<svg xmlns="http://www.w3.org/2000/svg" xmlns:xlink="http://www.w3.org/1999/xlink" width="1920" zoomAndPan="magnify" viewBox="0 0 1440 1439.999935" height="1920" preserveAspectRatio="xMidYMid meet" version="1.0"><defs><g/></defs><path fill="#ffffff" d="M 828.390625 282.214844 C 1001.554688 282.214844 1174.722656 282.175781 1347.902344 282.09375 C 1362.867188 282.09375 1377.1875 282.820312 1390.429688 291.003906 C 1406.914062 301.230469 1417.363281 321.988281 1414.042969 340.863281 C 1402.117188 408.382812 1389.742188 475.820312 1377.855469 543.378906 C 1363.003906 627.261719 1348.246094 711.164062 1333.585938 795.085938 C 1332.390625 801.828125 1330.628906 808.472656 1328.988281 815.132812 C 1322.019531 843.34375 1306.710938 857.296875 1278.117188 859.6875 C 1222.363281 864.246094 1166.550781 867.910156 1110.816406 872.546875 C 1051.238281 877.507812 991.71875 883.199219 932.136719 888.464844 C 906.742188 890.707031 881.332031 892.777344 855.910156 894.683594 C 795.15625 899.199219 734.542969 903.351562 673.890625 908.027344 C 598.59375 913.820312 523.3125 919.828125 448.042969 926.050781 C 429.492188 927.550781 410.984375 930.546875 392.433594 930.8125 C 365.984375 931.175781 347.394531 916.636719 342.027344 890.429688 C 333.359375 848.265625 326.25 805.757812 318.554688 763.390625 C 301.195312 668.035156 283.863281 572.664062 266.570312 477.277344 C 258.710938 433.960938 250.773438 390.621094 243.117188 347.261719 C 236.820312 311.578125 260.171875 283.550781 297.109375 282.457031 C 312.84375 282.011719 328.601562 282.355469 344.335938 282.355469 Z M 614.351562 529.445312 L 564.308594 529.445312 C 563.316406 529.445312 562.285156 529.445312 561.371094 529.445312 C 536.503906 529.324219 533.992188 526.308594 536.078125 554.4375 C 538.527344 587.628906 540.816406 620.820312 543.570312 653.972656 C 544.785156 668.390625 548.066406 670.902344 562.101562 669.992188 C 585.539062 668.480469 608.957031 666.867188 632.355469 665.152344 C 647.925781 663.976562 663.460938 662.175781 679.054688 661.222656 C 689.179688 660.613281 696.347656 659.054688 692.195312 645.890625 C 690.496094 640.503906 691.589844 634.207031 691.488281 628.3125 C 691.042969 599.960938 690.355469 571.425781 690.3125 542.972656 C 690.3125 532.746094 685.980469 529.183594 676.136719 529.363281 C 655.5625 529.707031 634.988281 529.445312 614.351562 529.445312 Z M 833.855469 346.816406 C 810.34375 346.816406 786.8125 347.082031 763.300781 346.695312 C 753.4375 346.554688 748.882812 349.9375 749.449219 360.285156 C 751.210938 393.476562 752.585938 426.6875 754.144531 459.902344 C 754.492188 467.132812 758.542969 470.027344 765.546875 470.027344 C 777.3125 469.925781 789.082031 470.027344 800.828125 470.027344 C 833.230469 470.027344 865.632812 469.90625 897.871094 470.027344 C 907.046875 470.027344 913.484375 467.050781 913.707031 457.105469 C 914.457031 423.773438 914.945312 390.460938 915.367188 357.144531 C 915.367188 350.078125 911.765625 346.65625 904.433594 346.695312 C 880.921875 346.917969 857.390625 346.816406 833.855469 346.816406 Z M 1068.652344 346.816406 C 1045.121094 346.816406 1021.609375 347.019531 998.078125 346.816406 C 987.667969 346.695312 980.863281 349.996094 980.679688 361.5 C 980.175781 393.902344 979.789062 426.183594 979.183594 458.523438 C 979.019531 467.535156 983.699219 470.191406 991.921875 470.167969 C 1037.019531 470.046875 1082.101562 470.167969 1127.199219 470.167969 C 1133.84375 470.167969 1138.644531 467.738281 1139.1875 460.386719 C 1141.660156 427.257812 1143.929688 394.105469 1146.519531 360.972656 C 1147.289062 351.089844 1143.625 346.636719 1133.335938 346.796875 C 1111.789062 347.101562 1090.222656 346.835938 1068.652344 346.816406 Z M 603.554688 346.816406 C 580.023438 346.816406 556.492188 346.535156 532.957031 346.917969 C 518.78125 347.140625 517.890625 347.667969 518.78125 362.371094 C 520.644531 393.617188 523.542969 424.804688 525.851562 456.011719 C 526.703125 467.515625 533.527344 470.191406 543.835938 470.191406 C 585.996094 469.90625 628.183594 469.804688 670.34375 470.289062 C 681.644531 470.433594 686.34375 466.6875 686.0625 455.222656 C 685.25 423.855469 684.5625 392.445312 684.746094 361.09375 C 684.746094 348.597656 678.527344 346.59375 668.300781 346.757812 C 646.710938 347.019531 625.144531 346.796875 603.554688 346.816406 Z M 834.808594 529.464844 C 813.199219 529.464844 791.570312 529.667969 770.003906 529.363281 C 760.871094 529.242188 754.875 531.046875 755.441406 542.125 C 757.226562 577.359375 758.601562 612.640625 760.179688 647.898438 C 760.503906 654.84375 763.785156 658.589844 771.300781 658.164062 C 806.539062 656.140625 841.796875 654.398438 877.03125 652.269531 C 883.835938 651.847656 890.519531 649.761719 897.285156 649.132812 C 906.234375 648.324219 908.382812 643.058594 908.445312 635.117188 C 908.726562 604.742188 908.808594 574.179688 909.902344 543.742188 C 910.367188 531.125 904.191406 529.101562 893.820312 529.304688 C 874.136719 529.707031 854.472656 529.425781 834.808594 529.464844 Z M 1055.773438 529.464844 C 1033.171875 529.464844 1010.59375 529.566406 987.992188 529.464844 C 980.054688 529.464844 974.910156 531.492188 974.828125 540.867188 C 974.542969 572.296875 973.917969 603.648438 973.410156 635.160156 C 973.269531 644.070312 977.460938 646.882812 986.289062 646.277344 C 1016.667969 644.25 1046.945312 642.976562 1077.261719 641.011719 C 1088.945312 640.261719 1100.550781 638.09375 1112.234375 637.246094 C 1119.585938 636.699219 1122.523438 632.628906 1123.515625 626.207031 C 1124.710938 618.492188 1126.105469 610.796875 1126.816406 603.039062 C 1128.636719 583.539062 1129.894531 563.996094 1131.839844 544.53125 C 1133.113281 531.714844 1132 529.808594 1117.664062 529.546875 C 1097.046875 529.121094 1076.46875 529.40625 1055.773438 529.40625 Z M 407.175781 529.464844 C 393.386719 529.464844 379.613281 529.261719 365.84375 529.464844 C 345.8125 529.832031 344.679688 530.132812 347.476562 549.152344 C 353.1875 587.910156 360.089844 626.472656 366.855469 665.050781 C 368.070312 672.058594 371.492188 678.253906 380.304688 677.929688 C 407.804688 676.976562 435.367188 676.734375 462.789062 674.628906 C 477.308594 673.515625 478.988281 670.578125 478.117188 655.472656 C 475.992188 621.183594 473.09375 586.941406 470.363281 552.695312 C 470.140625 549.796875 468.335938 547.042969 468.152344 544.167969 C 467.425781 533.578125 463.011719 528.472656 451.425781 529.203125 C 436.722656 530.113281 421.917969 529.425781 407.175781 529.40625 Z M 697.5625 782.996094 L 695.984375 782.996094 C 695.984375 766.289062 696.167969 749.558594 695.984375 732.851562 C 695.84375 722.910156 690.65625 719.203125 680.59375 720.703125 C 668.96875 722.320312 657.203125 722.910156 645.476562 723.71875 C 619.148438 725.542969 592.660156 727.566406 566.230469 728.800781 C 555.742188 729.289062 552.683594 734.109375 553.453125 743.667969 C 556.066406 775.925781 558.414062 808.207031 560.90625 840.488281 C 561.695312 850.617188 569.167969 850.070312 576.074219 849.621094 C 612.304688 847.273438 648.496094 844.480469 684.722656 842.433594 C 695.253906 841.847656 697.90625 836.582031 697.726562 827.324219 C 697.339844 812.5 697.5625 797.738281 697.5625 782.996094 Z M 380.871094 346.835938 C 362.257812 346.835938 343.667969 347.160156 325.078125 346.714844 C 314.585938 346.472656 310.902344 350.765625 312.722656 360.890625 C 318.574219 392.484375 324.671875 424.054688 329.957031 455.75 C 331.800781 466.867188 337.652344 470.25 347.980469 470.167969 C 381.273438 469.925781 414.546875 469.84375 447.820312 470.167969 C 458.554688 470.269531 461.308594 465.085938 460.539062 455.667969 C 458.007812 424.523438 455.476562 393.375 453.308594 362.230469 C 452.558594 351.375 447.71875 346.492188 436.664062 346.734375 C 418.070312 347.121094 399.460938 346.835938 380.871094 346.835938 Z M 903.925781 769.792969 C 903.925781 751.464844 904.109375 734.714844 903.925781 718.007812 C 903.925781 711.082031 900.769531 708.246094 892.75 708.855469 C 865.347656 710.878906 837.847656 711.648438 810.40625 713.371094 C 797.726562 714.179688 785.152344 716.53125 772.472656 717.300781 C 763.320312 717.847656 761.113281 722.484375 761.273438 730.625 C 761.902344 758.167969 762.023438 785.730469 762.652344 813.269531 C 762.773438 818.089844 763.300781 823.519531 765.648438 827.449219 C 767.675781 830.769531 772.636719 834.535156 776.140625 834.375 C 800.625 833.257812 825.148438 831.761719 849.53125 829.210938 C 866.765625 827.386719 883.816406 823.742188 900.949219 820.90625 C 901.921875 803.308594 902.976562 785.730469 903.925781 769.792969 Z M 968.730469 763.230469 L 967.941406 763.230469 C 967.941406 775.988281 967.800781 788.765625 967.941406 801.527344 C 968.183594 818.558594 968.347656 819.328125 983.800781 818.089844 C 1021.851562 815.011719 1059.824219 811.105469 1097.835938 807.601562 C 1104.355469 807.011719 1108.75 804.886719 1109.320312 797.292969 C 1111.34375 769.953125 1114.160156 742.613281 1115.675781 715.292969 C 1116.667969 697.859375 1114.300781 696.378906 1097.898438 697.9375 C 1088.15625 698.851562 1078.394531 699.640625 1068.613281 699.964844 C 1047.996094 700.773438 1027.300781 700.289062 1006.785156 702.109375 C 969.277344 705.453125 969.320312 705.976562 968.730469 742.613281 C 968.652344 749.417969 968.753906 756.285156 968.753906 763.167969 Z M 1281.617188 346.835938 C 1265.882812 346.835938 1250.167969 346.636719 1234.433594 346.835938 C 1217.078125 347.101562 1215.78125 347.121094 1213.675781 363.667969 C 1209.746094 394.730469 1207.597656 426 1204.519531 457.1875 C 1203.710938 465.632812 1206.890625 470.046875 1215.921875 470.007812 C 1247.375 469.886719 1278.824219 469.765625 1310.273438 470.128906 C 1321.089844 470.25 1326.152344 465.855469 1327.933594 455.144531 C 1333.179688 423.308594 1339.074219 391.574219 1344.90625 359.839844 C 1346.464844 351.273438 1344.074219 346.675781 1334.777344 346.757812 C 1317 346.957031 1299.238281 346.835938 1281.617188 346.835938 Z M 494.824219 838.949219 C 492.679688 810.597656 490.613281 782.246094 488.285156 753.894531 C 487.960938 750.046875 485.855469 746.339844 485.449219 742.492188 C 484.515625 733.804688 480.0625 731.007812 471.535156 731.679688 C 447.09375 733.582031 422.585938 734.917969 398.125 736.539062 C 382.875 737.550781 380.929688 739.375 383.441406 754.339844 C 388.992188 787.167969 395.226562 819.894531 401.039062 852.679688 C 402.457031 860.78125 406.546875 865.054688 414.953125 864.40625 C 435.488281 862.828125 456.023438 861.125 476.558594 859.566406 C 495.777344 858.089844 495.777344 858.148438 494.824219 839.03125 Z M 1257.519531 529.425781 C 1241.785156 529.425781 1226.046875 529.609375 1210.332031 529.425781 C 1201.664062 529.285156 1198.363281 533.292969 1197.714844 541.699219 C 1195.691406 568.023438 1193.058594 594.351562 1190.769531 620.800781 C 1189.757812 632.242188 1192.207031 634.976562 1202.921875 634.144531 C 1218.554688 632.992188 1234.128906 631.3125 1249.761719 630.277344 C 1261.53125 629.527344 1273.476562 630.277344 1285.082031 628.636719 C 1289.78125 627.949219 1296.726562 623.046875 1297.578125 619 C 1302.863281 594.109375 1306.671875 568.914062 1311.003906 543.824219 C 1312.664062 534.125 1309.464844 529.019531 1298.851562 529.324219 C 1285.0625 529.730469 1271.289062 529.425781 1257.519531 529.425781 Z M 1194.375 801 C 1215.539062 798.972656 1235.019531 796.949219 1254.542969 795.367188 C 1262.460938 794.699219 1267.421875 791.320312 1268.71875 783.21875 C 1273.640625 754.277344 1278.683594 725.359375 1283.136719 696.359375 C 1283.503906 694.070312 1279.753906 688.867188 1278.09375 688.945312 C 1248.730469 690.296875 1219.390625 692.019531 1190.082031 694.109375 C 1182.667969 694.65625 1181.839844 701.015625 1181.332031 707.253906 C 1179.492188 730.683594 1177.28125 754.097656 1175.398438 777.546875 C 1174.996094 782.429688 1173.878906 787.671875 1175.398438 792.128906 C 1176.574219 795.671875 1180.726562 799.074219 1184.371094 800.65625 C 1187.691406 802.195312 1192.105469 801 1194.375 801 Z M 1194.375 801 " fill-opacity="1" fill-rule="nonzero"/><path fill="#ffffff" d="M 852.0625 1120.648438 C 701.453125 1120.648438 550.820312 1120.324219 400.230469 1120.933594 C 369.851562 1121.054688 344.78125 1112.203125 323.800781 1090.152344 C 294.335938 1059.1875 292.128906 1010.074219 313.109375 972.183594 C 320.722656 958.433594 329.308594 945.167969 336.011719 931.015625 C 337.640625 927.578125 338.746094 923.984375 339.332031 920.226562 C 339.917969 916.46875 339.960938 912.707031 339.457031 908.941406 C 319.425781 796.117188 298.585938 683.417969 278.558594 570.617188 C 259.96875 466.441406 242.105469 362.167969 223.777344 257.933594 C 217.703125 223.179688 211.34375 188.492188 205.695312 153.679688 C 203.527344 140.433594 197.59375 133.425781 183.597656 131.136719 C 144.898438 124.820312 106.421875 117.125 67.941406 110.015625 C 56.378906 107.890625 44.695312 106.351562 33.230469 103.820312 C 15.003906 99.769531 3.625 84.621094 5.488281 67.792969 C 7.511719 50.191406 23.714844 37.027344 43.578125 39.4375 C 67.882812 42.496094 91.921875 47.378906 116.039062 51.75 C 158.445312 59.425781 200.773438 67.566406 243.261719 74.878906 C 253.527344 76.640625 258.46875 80.710938 260.191406 91.34375 C 264.929688 120.324219 270.902344 149.101562 276.167969 178 C 291.742188 263.785156 307.519531 349.53125 322.625 435.398438 C 341.480469 542.507812 359.566406 649.761719 378.316406 756.890625 C 387.429688 808.957031 397.273438 860.921875 406.933594 912.828125 C 409.484375 926.539062 409.160156 938.75 400.65625 951.304688 C 389.214844 968.378906 381.597656 988 370.277344 1005.195312 C 356.789062 1025.730469 368.980469 1058.214844 400.269531 1055.417969 C 407.09375 1054.8125 414.042969 1055.417969 420.925781 1055.417969 L 1300.980469 1055.417969 C 1308.835938 1055.417969 1316.835938 1054.792969 1324.550781 1055.90625 C 1325.589844 1056.050781 1326.621094 1056.246094 1327.640625 1056.488281 C 1328.660156 1056.734375 1329.667969 1057.023438 1330.660156 1057.367188 C 1331.652344 1057.707031 1332.625 1058.09375 1333.582031 1058.53125 C 1334.535156 1058.964844 1335.46875 1059.445312 1336.375 1059.96875 C 1337.285156 1060.496094 1338.164062 1061.0625 1339.019531 1061.671875 C 1339.871094 1062.28125 1340.695312 1062.929688 1341.488281 1063.617188 C 1342.277344 1064.308594 1343.035156 1065.035156 1343.753906 1065.796875 C 1344.476562 1066.558594 1345.160156 1067.351562 1345.804688 1068.179688 C 1346.449219 1069.007812 1347.050781 1069.863281 1347.613281 1070.75 C 1348.175781 1071.636719 1348.695312 1072.546875 1349.167969 1073.484375 C 1349.640625 1074.417969 1350.070312 1075.375 1350.453125 1076.351562 C 1350.835938 1077.328125 1351.167969 1078.324219 1351.453125 1079.332031 C 1351.742188 1080.34375 1351.976562 1081.363281 1352.164062 1082.394531 C 1352.355469 1083.425781 1352.492188 1084.464844 1352.578125 1085.511719 C 1352.667969 1086.558594 1352.703125 1087.605469 1352.691406 1088.652344 C 1352.675781 1089.703125 1352.613281 1090.75 1352.5 1091.792969 C 1350.898438 1109.550781 1340.449219 1119.433594 1321.59375 1120.507812 C 1313.757812 1120.972656 1305.859375 1120.667969 1297.980469 1120.667969 Z M 852.0625 1120.648438 " fill-opacity="1" fill-rule="nonzero"/><path fill="#ffffff" d="M 1109.765625 1257.53125 C 1105.714844 1206.902344 1154.316406 1147.625 1216.957031 1148.617188 C 1276.597656 1149.546875 1326.050781 1191.386719 1326.902344 1254.9375 C 1327.730469 1314.902344 1286.398438 1365.695312 1218.210938 1365.695312 C 1147.351562 1365.671875 1107.332031 1306.660156 1109.765625 1257.53125 Z M 1219.121094 1207.792969 C 1189.695312 1207.792969 1168.148438 1228.933594 1168.636719 1257.507812 C 1169.101562 1284.910156 1192.371094 1307.269531 1220.480469 1307.308594 C 1243.464844 1307.308594 1268.859375 1280.433594 1268.65625 1256.253906 C 1268.355469 1230.414062 1245.328125 1207.875 1219.042969 1207.792969 Z M 1219.121094 1207.792969 " fill-opacity="1" fill-rule="nonzero"/><path fill="#ffffff" d="M 608.839844 1257.855469 C 608.597656 1317.191406 560.398438 1366.910156 503.390625 1366.625 C 441.199219 1366.320312 395.207031 1318.265625 393.445312 1255.890625 C 391.824219 1197.96875 444.074219 1147.644531 502.136719 1148.089844 C 557.847656 1148.597656 614.003906 1199.753906 608.839844 1257.855469 Z M 549.929688 1260.546875 C 551.183594 1232.195312 532.511719 1209.554688 506.53125 1207.894531 C 476.84375 1206.089844 454.644531 1225.351562 452.824219 1253.277344 C 450.941406 1281.992188 470.136719 1304.777344 499.402344 1306.316406 C 500.984375 1306.425781 502.570312 1306.453125 504.15625 1306.402344 C 505.742188 1306.351562 507.324219 1306.222656 508.898438 1306.011719 C 510.46875 1305.800781 512.03125 1305.515625 513.574219 1305.148438 C 515.117188 1304.78125 516.640625 1304.335938 518.140625 1303.816406 C 519.640625 1303.296875 521.109375 1302.703125 522.550781 1302.035156 C 523.988281 1301.367188 525.390625 1300.628906 526.757812 1299.820312 C 528.125 1299.011719 529.445312 1298.136719 530.722656 1297.191406 C 532 1296.25 533.226562 1295.246094 534.402344 1294.179688 C 535.578125 1293.117188 536.699219 1291.992188 537.761719 1290.816406 C 538.828125 1289.636719 539.828125 1288.410156 540.769531 1287.128906 C 541.707031 1285.851562 542.582031 1284.527344 543.386719 1283.160156 C 544.195312 1281.792969 544.929688 1280.386719 545.59375 1278.949219 C 546.261719 1277.507812 546.851562 1276.035156 547.371094 1274.535156 C 547.886719 1273.035156 548.328125 1271.511719 548.691406 1269.964844 C 549.054688 1268.421875 549.339844 1266.863281 549.546875 1265.289062 C 549.753906 1263.714844 549.882812 1262.132812 549.929688 1260.546875 Z M 549.929688 1260.546875 " fill-opacity="1" fill-rule="nonzero"/><g fill="#ffffff" fill-opacity="1"><g transform="translate(710.323696, 1103.786596)"><g><path d="M 2.421875 0.125 C 1.785156 0.125 1.304688 -0.0390625 0.984375 -0.375 C 0.671875 -0.71875 0.515625 -1.179688 0.515625 -1.765625 C 0.515625 -2.421875 0.726562 -2.925781 1.15625 -3.28125 C 1.59375 -3.632812 2.289062 -3.820312 3.25 -3.84375 L 4.671875 -3.875 L 4.671875 -4.21875 C 4.671875 -4.726562 4.5625 -5.09375 4.34375 -5.3125 C 4.125 -5.539062 3.78125 -5.65625 3.3125 -5.65625 C 2.84375 -5.65625 2.5 -5.570312 2.28125 -5.40625 C 2.0625 -5.25 1.929688 -4.992188 1.890625 -4.640625 L 0.796875 -4.75 C 0.972656 -5.882812 1.816406 -6.453125 3.328125 -6.453125 C 4.128906 -6.453125 4.726562 -6.269531 5.125 -5.90625 C 5.53125 -5.539062 5.734375 -5.015625 5.734375 -4.328125 L 5.734375 -1.59375 C 5.734375 -1.28125 5.773438 -1.046875 5.859375 -0.890625 C 5.941406 -0.734375 6.097656 -0.65625 6.328125 -0.65625 C 6.429688 -0.65625 6.546875 -0.664062 6.671875 -0.6875 L 6.671875 -0.03125 C 6.410156 0.03125 6.140625 0.0625 5.859375 0.0625 C 5.472656 0.0625 5.1875 -0.0390625 5 -0.25 C 4.820312 -0.457031 4.722656 -0.78125 4.703125 -1.21875 L 4.671875 -1.21875 C 4.398438 -0.726562 4.082031 -0.378906 3.71875 -0.171875 C 3.363281 0.0234375 2.929688 0.125 2.421875 0.125 Z M 2.671875 -0.671875 C 3.054688 -0.671875 3.398438 -0.757812 3.703125 -0.9375 C 4.003906 -1.113281 4.238281 -1.351562 4.40625 -1.65625 C 4.582031 -1.96875 4.671875 -2.285156 4.671875 -2.609375 L 4.671875 -3.125 L 3.515625 -3.109375 C 3.015625 -3.097656 2.632812 -3.046875 2.375 -2.953125 C 2.125 -2.859375 1.929688 -2.710938 1.796875 -2.515625 C 1.660156 -2.328125 1.59375 -2.070312 1.59375 -1.75 C 1.59375 -1.40625 1.6875 -1.140625 1.875 -0.953125 C 2.0625 -0.765625 2.328125 -0.671875 2.671875 -0.671875 Z M 2.671875 -0.671875 "/></g></g><g transform="translate(716.997524, 1103.786596)"><g><path d="M 5.5625 -1.75 C 5.5625 -1.15625 5.335938 -0.691406 4.890625 -0.359375 C 4.441406 -0.0351562 3.8125 0.125 3 0.125 C 2.207031 0.125 1.597656 -0.00390625 1.171875 -0.265625 C 0.742188 -0.523438 0.460938 -0.929688 0.328125 -1.484375 L 1.265625 -1.671875 C 1.359375 -1.328125 1.546875 -1.078125 1.828125 -0.921875 C 2.109375 -0.765625 2.5 -0.6875 3 -0.6875 C 3.53125 -0.6875 3.921875 -0.765625 4.171875 -0.921875 C 4.421875 -1.085938 4.546875 -1.335938 4.546875 -1.671875 C 4.546875 -1.921875 4.457031 -2.125 4.28125 -2.28125 C 4.113281 -2.4375 3.835938 -2.566406 3.453125 -2.671875 L 2.703125 -2.859375 C 2.085938 -3.015625 1.648438 -3.164062 1.390625 -3.3125 C 1.140625 -3.46875 0.941406 -3.65625 0.796875 -3.875 C 0.660156 -4.09375 0.59375 -4.359375 0.59375 -4.671875 C 0.59375 -5.242188 0.796875 -5.679688 1.203125 -5.984375 C 1.617188 -6.285156 2.21875 -6.4375 3 -6.4375 C 3.707031 -6.4375 4.265625 -6.3125 4.671875 -6.0625 C 5.085938 -5.820312 5.347656 -5.429688 5.453125 -4.890625 L 4.5 -4.765625 C 4.445312 -5.046875 4.289062 -5.257812 4.03125 -5.40625 C 3.78125 -5.5625 3.4375 -5.640625 3 -5.640625 C 2.53125 -5.640625 2.179688 -5.566406 1.953125 -5.421875 C 1.722656 -5.273438 1.609375 -5.054688 1.609375 -4.765625 C 1.609375 -4.585938 1.65625 -4.441406 1.75 -4.328125 C 1.84375 -4.210938 1.976562 -4.113281 2.15625 -4.03125 C 2.34375 -3.945312 2.734375 -3.832031 3.328125 -3.6875 C 3.890625 -3.539062 4.289062 -3.410156 4.53125 -3.296875 C 4.78125 -3.179688 4.972656 -3.050781 5.109375 -2.90625 C 5.253906 -2.757812 5.363281 -2.585938 5.4375 -2.390625 C 5.519531 -2.203125 5.5625 -1.988281 5.5625 -1.75 Z M 5.5625 -1.75 "/></g></g><g transform="translate(722.997523, 1103.786596)"><g><path d="M 4.8125 -1.015625 C 4.613281 -0.609375 4.351562 -0.316406 4.03125 -0.140625 C 3.707031 0.0351562 3.3125 0.125 2.84375 0.125 C 2.039062 0.125 1.445312 -0.144531 1.0625 -0.6875 C 0.6875 -1.226562 0.5 -2.046875 0.5 -3.140625 C 0.5 -5.347656 1.28125 -6.453125 2.84375 -6.453125 C 3.320312 -6.453125 3.71875 -6.363281 4.03125 -6.1875 C 4.351562 -6.019531 4.613281 -5.742188 4.8125 -5.359375 L 4.828125 -5.359375 L 4.8125 -6.0625 L 4.8125 -8.703125 L 5.859375 -8.703125 L 5.859375 -1.3125 C 5.859375 -0.644531 5.875 -0.207031 5.90625 0 L 4.890625 0 C 4.878906 -0.0625 4.863281 -0.207031 4.84375 -0.4375 C 4.832031 -0.664062 4.828125 -0.859375 4.828125 -1.015625 Z M 1.609375 -3.171875 C 1.609375 -2.285156 1.722656 -1.648438 1.953125 -1.265625 C 2.191406 -0.890625 2.578125 -0.703125 3.109375 -0.703125 C 3.703125 -0.703125 4.132812 -0.90625 4.40625 -1.3125 C 4.675781 -1.726562 4.8125 -2.375 4.8125 -3.25 C 4.8125 -4.082031 4.675781 -4.691406 4.40625 -5.078125 C 4.132812 -5.472656 3.707031 -5.671875 3.125 -5.671875 C 2.59375 -5.671875 2.207031 -5.472656 1.96875 -5.078125 C 1.726562 -4.691406 1.609375 -4.054688 1.609375 -3.171875 Z M 1.609375 -3.171875 "/></g></g></g></svg>