<svg xmlns="http://www.w3.org/2000/svg" xmlns:xlink="http://www.w3.org/1999/xlink" width="1920" zoomAndPan="magnify" viewBox="0 0 1440 1439.999935" height="1920" preserveAspectRatio="xMidYMid meet" version="1.0"><defs><g/><clipPath id="957df51c06"><path d="M 45.875 279 L 1394 279 L 1394 1162 L 45.875 1162 Z M 45.875 279 " clip-rule="nonzero"/></clipPath></defs><g clip-path="url(#957df51c06)"><path fill="#377813" d="M 1316.875 279.832031 L 121.972656 279.832031 C 120.71875 279.832031 119.46875 279.863281 118.214844 279.925781 C 116.964844 279.988281 115.714844 280.082031 114.46875 280.207031 C 113.222656 280.332031 111.976562 280.484375 110.738281 280.667969 C 109.5 280.855469 108.265625 281.070312 107.035156 281.316406 C 105.808594 281.558594 104.585938 281.835938 103.371094 282.140625 C 102.15625 282.445312 100.949219 282.78125 99.75 283.144531 C 98.550781 283.511719 97.363281 283.902344 96.183594 284.328125 C 95.003906 284.75 93.835938 285.199219 92.675781 285.679688 C 91.519531 286.160156 90.375 286.667969 89.242188 287.207031 C 88.109375 287.742188 86.992188 288.304688 85.886719 288.898438 C 84.78125 289.488281 83.691406 290.105469 82.617188 290.75 C 81.542969 291.394531 80.484375 292.066406 79.441406 292.761719 C 78.402344 293.457031 77.375 294.179688 76.371094 294.925781 C 75.363281 295.671875 74.375 296.445312 73.410156 297.238281 C 72.441406 298.035156 71.492188 298.851562 70.5625 299.695312 C 69.632812 300.535156 68.726562 301.398438 67.839844 302.285156 C 66.957031 303.171875 66.089844 304.078125 65.25 305.007812 C 64.410156 305.933594 63.589844 306.882812 62.796875 307.851562 C 62 308.820312 61.230469 309.808594 60.484375 310.8125 C 59.734375 311.820312 59.015625 312.84375 58.316406 313.886719 C 57.621094 314.925781 56.953125 315.984375 56.308594 317.058594 C 55.664062 318.136719 55.042969 319.222656 54.453125 320.328125 C 53.863281 321.433594 53.296875 322.554688 52.761719 323.683594 C 52.226562 324.816406 51.71875 325.960938 51.238281 327.121094 C 50.757812 328.277344 50.304688 329.445312 49.882812 330.625 C 49.460938 331.804688 49.066406 332.996094 48.703125 334.191406 C 48.335938 335.390625 48.003906 336.597656 47.699219 337.8125 C 47.390625 339.03125 47.117188 340.25 46.871094 341.480469 C 46.625 342.710938 46.410156 343.941406 46.226562 345.183594 C 46.042969 346.421875 45.886719 347.664062 45.761719 348.910156 C 45.640625 350.160156 45.546875 351.40625 45.484375 352.660156 C 45.421875 353.910156 45.386719 355.164062 45.386719 356.414062 L 45.386719 1084.714844 C 45.386719 1085.96875 45.421875 1087.222656 45.484375 1088.472656 C 45.546875 1089.722656 45.640625 1090.972656 45.761719 1092.21875 C 45.886719 1093.46875 46.042969 1094.710938 46.226562 1095.949219 C 46.410156 1097.1875 46.625 1098.421875 46.871094 1099.652344 C 47.117188 1100.878906 47.390625 1102.101562 47.699219 1103.316406 C 48.003906 1104.53125 48.335938 1105.738281 48.703125 1106.9375 C 49.066406 1108.136719 49.460938 1109.328125 49.882812 1110.507812 C 50.304688 1111.6875 50.757812 1112.855469 51.238281 1114.011719 C 51.71875 1115.167969 52.226562 1116.3125 52.761719 1117.445312 C 53.296875 1118.578125 53.863281 1119.699219 54.453125 1120.804688 C 55.042969 1121.90625 55.664062 1122.996094 56.308594 1124.070312 C 56.953125 1125.144531 57.621094 1126.203125 58.316406 1127.246094 C 59.015625 1128.289062 59.734375 1129.3125 60.484375 1130.316406 C 61.230469 1131.324219 62 1132.3125 62.796875 1133.28125 C 63.589844 1134.25 64.410156 1135.195312 65.25 1136.125 C 66.089844 1137.054688 66.957031 1137.960938 67.839844 1138.847656 C 68.726562 1139.734375 69.632812 1140.597656 70.5625 1141.4375 C 71.492188 1142.28125 72.441406 1143.097656 73.410156 1143.894531 C 74.375 1144.6875 75.363281 1145.460938 76.371094 1146.207031 C 77.375 1146.953125 78.402344 1147.675781 79.441406 1148.371094 C 80.484375 1149.066406 81.542969 1149.738281 82.617188 1150.382812 C 83.691406 1151.027344 84.78125 1151.644531 85.886719 1152.234375 C 86.992188 1152.828125 88.109375 1153.390625 89.242188 1153.925781 C 90.375 1154.460938 91.519531 1154.96875 92.675781 1155.449219 C 93.835938 1155.929688 95.003906 1156.382812 96.183594 1156.804688 C 97.363281 1157.226562 98.550781 1157.621094 99.75 1157.984375 C 100.949219 1158.351562 102.15625 1158.683594 103.371094 1158.992188 C 104.585938 1159.296875 105.808594 1159.570312 107.035156 1159.816406 C 108.265625 1160.0625 109.5 1160.277344 110.738281 1160.460938 C 111.976562 1160.648438 113.222656 1160.800781 114.46875 1160.925781 C 115.714844 1161.050781 116.964844 1161.144531 118.214844 1161.207031 C 119.46875 1161.269531 120.71875 1161.300781 121.972656 1161.300781 L 1316.875 1161.300781 C 1318.125 1161.300781 1319.378906 1161.269531 1320.628906 1161.207031 C 1321.882812 1161.144531 1323.132812 1161.050781 1324.378906 1160.925781 C 1325.625 1160.804688 1326.867188 1160.648438 1328.109375 1160.464844 C 1329.347656 1160.277344 1330.582031 1160.0625 1331.808594 1159.820312 C 1333.039062 1159.574219 1334.261719 1159.296875 1335.476562 1158.992188 C 1336.691406 1158.6875 1337.898438 1158.351562 1339.097656 1157.988281 C 1340.296875 1157.625 1341.488281 1157.230469 1342.667969 1156.808594 C 1343.847656 1156.386719 1345.015625 1155.933594 1346.171875 1155.453125 C 1347.328125 1154.972656 1348.476562 1154.464844 1349.609375 1153.929688 C 1350.742188 1153.394531 1351.859375 1152.828125 1352.964844 1152.238281 C 1354.070312 1151.648438 1355.160156 1151.03125 1356.234375 1150.386719 C 1357.308594 1149.742188 1358.367188 1149.070312 1359.410156 1148.375 C 1360.449219 1147.679688 1361.472656 1146.957031 1362.480469 1146.210938 C 1363.488281 1145.464844 1364.476562 1144.691406 1365.445312 1143.898438 C 1366.414062 1143.101562 1367.359375 1142.285156 1368.289062 1141.441406 C 1369.21875 1140.601562 1370.125 1139.738281 1371.011719 1138.851562 C 1371.898438 1137.964844 1372.761719 1137.058594 1373.601562 1136.128906 C 1374.445312 1135.199219 1375.261719 1134.253906 1376.058594 1133.285156 C 1376.855469 1132.316406 1377.625 1131.328125 1378.371094 1130.320312 C 1379.117188 1129.316406 1379.839844 1128.292969 1380.535156 1127.25 C 1381.234375 1126.207031 1381.902344 1125.148438 1382.546875 1124.074219 C 1383.191406 1123 1383.8125 1121.910156 1384.402344 1120.804688 C 1384.992188 1119.699219 1385.558594 1118.582031 1386.09375 1117.449219 C 1386.628906 1116.316406 1387.136719 1115.171875 1387.617188 1114.015625 C 1388.097656 1112.855469 1388.550781 1111.6875 1388.972656 1110.507812 C 1389.394531 1109.328125 1389.789062 1108.140625 1390.152344 1106.941406 C 1390.519531 1105.742188 1390.851562 1104.535156 1391.160156 1103.320312 C 1391.464844 1102.105469 1391.738281 1100.882812 1391.984375 1099.652344 C 1392.230469 1098.425781 1392.445312 1097.191406 1392.628906 1095.949219 C 1392.816406 1094.710938 1392.96875 1093.46875 1393.09375 1092.222656 C 1393.21875 1090.972656 1393.3125 1089.726562 1393.375 1088.472656 C 1393.4375 1087.222656 1393.46875 1085.96875 1393.46875 1084.714844 L 1393.46875 356.414062 C 1393.46875 355.164062 1393.4375 353.910156 1393.375 352.660156 C 1393.3125 351.40625 1393.21875 350.15625 1393.09375 348.910156 C 1392.96875 347.664062 1392.816406 346.421875 1392.628906 345.179688 C 1392.445312 343.941406 1392.230469 342.707031 1391.984375 341.480469 C 1391.738281 340.25 1391.464844 339.027344 1391.160156 337.8125 C 1390.851562 336.597656 1390.519531 335.390625 1390.152344 334.191406 C 1389.789062 332.992188 1389.394531 331.804688 1388.972656 330.625 C 1388.550781 329.445312 1388.097656 328.273438 1387.617188 327.117188 C 1387.136719 325.960938 1386.628906 324.816406 1386.09375 323.683594 C 1385.558594 322.550781 1384.992188 321.429688 1384.402344 320.328125 C 1383.8125 319.222656 1383.191406 318.132812 1382.546875 317.058594 C 1381.902344 315.984375 1381.234375 314.925781 1380.535156 313.882812 C 1379.839844 312.839844 1379.117188 311.816406 1378.371094 310.808594 C 1377.625 309.804688 1376.855469 308.816406 1376.058594 307.847656 C 1375.261719 306.878906 1374.445312 305.929688 1373.601562 305.003906 C 1372.761719 304.074219 1371.898438 303.167969 1371.011719 302.28125 C 1370.125 301.394531 1369.21875 300.53125 1368.289062 299.691406 C 1367.359375 298.847656 1366.414062 298.03125 1365.445312 297.234375 C 1364.476562 296.441406 1363.488281 295.667969 1362.480469 294.921875 C 1361.472656 294.175781 1360.449219 293.453125 1359.410156 292.757812 C 1358.367188 292.0625 1357.308594 291.390625 1356.234375 290.746094 C 1355.160156 290.101562 1354.070312 289.484375 1352.964844 288.894531 C 1351.859375 288.300781 1350.738281 287.738281 1349.609375 287.203125 C 1348.476562 286.667969 1347.328125 286.15625 1346.171875 285.679688 C 1345.015625 285.199219 1343.847656 284.746094 1342.667969 284.324219 C 1341.488281 283.902344 1340.296875 283.507812 1339.097656 283.144531 C 1337.898438 282.777344 1336.691406 282.445312 1335.476562 282.140625 C 1334.261719 281.832031 1333.039062 281.558594 1331.808594 281.3125 C 1330.582031 281.066406 1329.347656 280.851562 1328.109375 280.667969 C 1326.867188 280.484375 1325.625 280.328125 1324.378906 280.207031 C 1323.132812 280.082031 1321.882812 279.988281 1320.628906 279.925781 C 1319.378906 279.863281 1318.125 279.832031 1316.875 279.832031 Z M 931.292969 720.566406 L 1351.980469 345.5625 C 1353.140625 349.089844 1353.746094 352.707031 1353.792969 356.414062 L 1353.792969 1084.714844 C 1353.746094 1088.425781 1353.140625 1092.042969 1351.980469 1095.566406 Z M 1316.828125 319.519531 C 1318.234375 319.578125 1319.632812 319.714844 1321.023438 319.9375 L 743.851562 834.402344 C 743.019531 835.148438 742.152344 835.851562 741.253906 836.519531 C 740.351562 837.183594 739.425781 837.808594 738.46875 838.390625 C 737.511719 838.972656 736.53125 839.507812 735.527344 840 C 734.523438 840.492188 733.496094 840.9375 732.453125 841.339844 C 731.40625 841.738281 730.34375 842.085938 729.265625 842.390625 C 728.1875 842.691406 727.101562 842.945312 726 843.148438 C 724.898438 843.347656 723.792969 843.5 722.675781 843.601562 C 721.5625 843.707031 720.445312 843.757812 719.328125 843.757812 C 718.207031 843.757812 717.089844 843.707031 715.976562 843.601562 C 714.863281 843.5 713.753906 843.347656 712.652344 843.148438 C 711.550781 842.945312 710.464844 842.691406 709.386719 842.390625 C 708.308594 842.085938 707.246094 841.738281 706.203125 841.339844 C 705.15625 840.9375 704.128906 840.492188 703.125 840 C 702.121094 839.507812 701.140625 838.972656 700.183594 838.390625 C 699.226562 837.808594 698.300781 837.183594 697.402344 836.519531 C 696.5 835.851562 695.632812 835.148438 694.800781 834.402344 L 117.789062 319.9375 C 119.175781 319.71875 120.570312 319.578125 121.972656 319.519531 Z M 86.886719 1095.566406 C 85.726562 1092.042969 85.121094 1088.425781 85.074219 1084.714844 L 85.074219 356.414062 C 85.121094 352.707031 85.726562 349.089844 86.886719 345.5625 L 507.566406 720.566406 Z M 121.972656 1121.648438 C 120.570312 1121.589844 119.175781 1121.449219 117.789062 1121.230469 L 537.34375 747.179688 L 668.503906 864.03125 C 670.238281 865.578125 672.039062 867.042969 673.90625 868.425781 C 675.773438 869.808594 677.699219 871.101562 679.683594 872.308594 C 681.667969 873.515625 683.707031 874.628906 685.792969 875.652344 C 687.878906 876.671875 690.007812 877.597656 692.179688 878.425781 C 694.351562 879.25 696.554688 879.980469 698.792969 880.605469 C 701.027344 881.234375 703.289062 881.757812 705.574219 882.175781 C 707.859375 882.597656 710.160156 882.914062 712.472656 883.125 C 714.785156 883.335938 717.105469 883.441406 719.429688 883.441406 C 721.75 883.441406 724.070312 883.335938 726.382812 883.125 C 728.699219 882.914062 730.996094 882.597656 733.28125 882.175781 C 735.566406 881.757812 737.828125 881.234375 740.066406 880.605469 C 742.300781 879.980469 744.507812 879.25 746.675781 878.425781 C 748.847656 877.597656 750.976562 876.671875 753.0625 875.652344 C 755.152344 874.628906 757.1875 873.515625 759.171875 872.308594 C 761.15625 871.101562 763.085938 869.808594 764.953125 868.425781 C 766.820312 867.042969 768.621094 865.578125 770.351562 864.03125 L 901.480469 747.144531 L 1321.035156 1121.195312 C 1319.644531 1121.414062 1318.246094 1121.554688 1316.839844 1121.613281 Z M 121.972656 1121.648438 " fill-opacity="1" fill-rule="nonzero"/></g><g fill="#377813" fill-opacity="1"><g transform="translate(700.747343, 1141.452649)"><g><path d="M 2.421875 0.125 C 1.785156 0.125 1.304688 -0.0390625 0.984375 -0.375 C 0.671875 -0.71875 0.515625 -1.179688 0.515625 -1.765625 C 0.515625 -2.421875 0.726562 -2.925781 1.15625 -3.28125 C 1.59375 -3.632812 2.289062 -3.820312 3.25 -3.84375 L 4.671875 -3.875 L 4.671875 -4.21875 C 4.671875 -4.726562 4.5625 -5.09375 4.34375 -5.3125 C 4.125 -5.539062 3.78125 -5.65625 3.3125 -5.65625 C 2.84375 -5.65625 2.5 -5.570312 2.28125 -5.40625 C 2.0625 -5.25 1.929688 -4.992188 1.890625 -4.640625 L 0.796875 -4.75 C 0.972656 -5.882812 1.816406 -6.453125 3.328125 -6.453125 C 4.128906 -6.453125 4.726562 -6.269531 5.125 -5.90625 C 5.53125 -5.539062 5.734375 -5.015625 5.734375 -4.328125 L 5.734375 -1.59375 C 5.734375 -1.28125 5.773438 -1.046875 5.859375 -0.890625 C 5.941406 -0.734375 6.097656 -0.65625 6.328125 -0.65625 C 6.429688 -0.65625 6.546875 -0.664062 6.671875 -0.6875 L 6.671875 -0.03125 C 6.410156 0.03125 6.140625 0.0625 5.859375 0.0625 C 5.472656 0.0625 5.1875 -0.0390625 5 -0.25 C 4.820312 -0.457031 4.722656 -0.78125 4.703125 -1.21875 L 4.671875 -1.21875 C 4.398438 -0.726562 4.082031 -0.378906 3.71875 -0.171875 C 3.363281 0.0234375 2.929688 0.125 2.421875 0.125 Z M 2.671875 -0.671875 C 3.054688 -0.671875 3.398438 -0.757812 3.703125 -0.9375 C 4.003906 -1.113281 4.238281 -1.351562 4.40625 -1.65625 C 4.582031 -1.96875 4.671875 -2.285156 4.671875 -2.609375 L 4.671875 -3.125 L 3.515625 -3.109375 C 3.015625 -3.097656 2.632812 -3.046875 2.375 -2.953125 C 2.125 -2.859375 1.929688 -2.710938 1.796875 -2.515625 C 1.660156 -2.328125 1.59375 -2.070312 1.59375 -1.75 C 1.59375 -1.40625 1.6875 -1.140625 1.875 -0.953125 C 2.0625 -0.765625 2.328125 -0.671875 2.671875 -0.671875 Z M 2.671875 -0.671875 "/></g></g><g transform="translate(707.42117, 1141.452649)"><g><path d="M 5.5625 -1.75 C 5.5625 -1.15625 5.335938 -0.691406 4.890625 -0.359375 C 4.441406 -0.0351562 3.8125 0.125 3 0.125 C 2.207031 0.125 1.597656 -0.00390625 1.171875 -0.265625 C 0.742188 -0.523438 0.460938 -0.929688 0.328125 -1.484375 L 1.265625 -1.671875 C 1.359375 -1.328125 1.546875 -1.078125 1.828125 -0.921875 C 2.109375 -0.765625 2.5 -0.6875 3 -0.6875 C 3.53125 -0.6875 3.921875 -0.765625 4.171875 -0.921875 C 4.421875 -1.085938 4.546875 -1.335938 4.546875 -1.671875 C 4.546875 -1.921875 4.457031 -2.125 4.28125 -2.28125 C 4.113281 -2.4375 3.835938 -2.566406 3.453125 -2.671875 L 2.703125 -2.859375 C 2.085938 -3.015625 1.648438 -3.164062 1.390625 -3.3125 C 1.140625 -3.46875 0.941406 -3.65625 0.796875 -3.875 C 0.660156 -4.09375 0.59375 -4.359375 0.59375 -4.671875 C 0.59375 -5.242188 0.796875 -5.679688 1.203125 -5.984375 C 1.617188 -6.285156 2.21875 -6.4375 3 -6.4375 C 3.707031 -6.4375 4.265625 -6.3125 4.671875 -6.0625 C 5.085938 -5.820312 5.347656 -5.429688 5.453125 -4.890625 L 4.5 -4.765625 C 4.445312 -5.046875 4.289062 -5.257812 4.03125 -5.40625 C 3.78125 -5.5625 3.4375 -5.640625 3 -5.640625 C 2.53125 -5.640625 2.179688 -5.566406 1.953125 -5.421875 C 1.722656 -5.273438 1.609375 -5.054688 1.609375 -4.765625 C 1.609375 -4.585938 1.65625 -4.441406 1.75 -4.328125 C 1.84375 -4.210938 1.976562 -4.113281 2.15625 -4.03125 C 2.34375 -3.945312 2.734375 -3.832031 3.328125 -3.6875 C 3.890625 -3.539062 4.289062 -3.410156 4.53125 -3.296875 C 4.78125 -3.179688 4.972656 -3.050781 5.109375 -2.90625 C 5.253906 -2.757812 5.363281 -2.585938 5.4375 -2.390625 C 5.519531 -2.203125 5.5625 -1.988281 5.5625 -1.75 Z M 5.5625 -1.75 "/></g></g><g transform="translate(713.42117, 1141.452649)"><g><path d="M 4.8125 -1.015625 C 4.613281 -0.609375 4.351562 -0.316406 4.03125 -0.140625 C 3.707031 0.0351562 3.3125 0.125 2.84375 0.125 C 2.039062 0.125 1.445312 -0.144531 1.0625 -0.6875 C 0.6875 -1.226562 0.5 -2.046875 0.5 -3.140625 C 0.5 -5.347656 1.28125 -6.453125 2.84375 -6.453125 C 3.320312 -6.453125 3.71875 -6.363281 4.03125 -6.1875 C 4.351562 -6.019531 4.613281 -5.742188 4.8125 -5.359375 L 4.828125 -5.359375 L 4.8125 -6.0625 L 4.8125 -8.703125 L 5.859375 -8.703125 L 5.859375 -1.3125 C 5.859375 -0.644531 5.875 -0.207031 5.90625 0 L 4.890625 0 C 4.878906 -0.0625 4.863281 -0.207031 4.84375 -0.4375 C 4.832031 -0.664062 4.828125 -0.859375 4.828125 -1.015625 Z M 1.609375 -3.171875 C 1.609375 -2.285156 1.722656 -1.648438 1.953125 -1.265625 C 2.191406 -0.890625 2.578125 -0.703125 3.109375 -0.703125 C 3.703125 -0.703125 4.132812 -0.90625 4.40625 -1.3125 C 4.675781 -1.726562 4.8125 -2.375 4.8125 -3.25 C 4.8125 -4.082031 4.675781 -4.691406 4.40625 -5.078125 C 4.132812 -5.472656 3.707031 -5.671875 3.125 -5.671875 C 2.59375 -5.671875 2.207031 -5.472656 1.96875 -5.078125 C 1.726562 -4.691406 1.609375 -4.054688 1.609375 -3.171875 Z M 1.609375 -3.171875 "/></g></g></g></svg>