<svg xmlns="http://www.w3.org/2000/svg" xmlns:xlink="http://www.w3.org/1999/xlink" width="1920" zoomAndPan="magnify" viewBox="0 0 1440 1439.999935" height="1920" preserveAspectRatio="xMidYMid meet" version="1.0"><defs><g/><clipPath id="8d7f3d3b15"><path d="M 24.144531 24.144531 L 1416 24.144531 L 1416 1416 L 24.144531 1416 Z M 24.144531 24.144531 " clip-rule="nonzero"/></clipPath></defs><path fill="#377813" d="M 709.125 1089.667969 L 730.871094 1089.667969 C 742.832031 1089.667969 752.617188 1079.882812 752.617188 1067.925781 C 752.617188 1055.964844 742.832031 1046.179688 730.871094 1046.179688 L 709.125 1046.179688 C 697.164062 1046.179688 687.378906 1055.964844 687.378906 1067.925781 C 687.378906 1079.882812 697.164062 1089.667969 709.125 1089.667969 Z M 709.125 1089.667969 " fill-opacity="1" fill-rule="nonzero"/><path fill="#377813" d="M 225.289062 530.8125 L 197.019531 524.289062 C 185.058594 521.027344 173.101562 528.636719 170.925781 540.597656 C 167.664062 552.558594 175.273438 564.519531 187.234375 566.691406 L 215.503906 573.214844 C 226.375 576.476562 239.421875 568.867188 241.597656 556.90625 C 243.773438 546.035156 236.160156 534.074219 225.289062 530.8125 Z M 225.289062 530.8125 " fill-opacity="1" fill-rule="nonzero"/><path fill="#377813" d="M 222.027344 612.359375 L 195.933594 606.921875 C 183.972656 604.746094 173.101562 611.269531 169.839844 623.230469 C 167.664062 635.191406 174.1875 646.0625 186.148438 649.324219 C 186.148438 649.324219 212.242188 654.761719 212.242188 654.761719 C 224.203125 656.9375 235.074219 649.324219 238.335938 638.453125 C 241.597656 626.492188 233.988281 614.53125 222.027344 612.359375 Z M 222.027344 612.359375 " fill-opacity="1" fill-rule="nonzero"/><path fill="#377813" d="M 350.324219 588.4375 L 378.59375 594.960938 C 390.554688 598.222656 402.515625 590.613281 404.6875 578.652344 C 407.949219 566.691406 400.339844 554.730469 388.378906 552.558594 L 360.109375 546.035156 C 348.152344 542.773438 336.191406 550.382812 334.015625 562.34375 C 330.753906 574.304688 338.367188 586.261719 350.324219 588.4375 Z M 350.324219 588.4375 " fill-opacity="1" fill-rule="nonzero"/><path fill="#377813" d="M 350.324219 671.070312 L 376.417969 676.507812 C 388.378906 678.679688 399.253906 671.070312 402.515625 660.199219 C 404.6875 648.238281 398.164062 637.363281 386.207031 634.101562 L 360.109375 628.667969 C 348.152344 626.492188 337.277344 633.015625 334.015625 644.976562 C 330.753906 656.9375 338.367188 667.808594 350.324219 671.070312 Z M 350.324219 671.070312 " fill-opacity="1" fill-rule="nonzero"/><g clip-path="url(#8d7f3d3b15)"><path fill="#377813" d="M 1394.105469 1372.359375 L 1339.742188 1372.359375 L 1339.742188 67.636719 L 1394.105469 67.636719 C 1406.066406 67.636719 1415.851562 57.847656 1415.851562 45.890625 C 1415.851562 33.929688 1406.066406 24.144531 1394.105469 24.144531 L 1295.164062 24.144531 C 1287.554688 24.144531 1277.769531 27.40625 1271.242188 31.753906 L 1134.246094 132.871094 L 305.746094 132.871094 L 167.664062 31.753906 C 162.226562 27.40625 152.441406 24.144531 144.832031 24.144531 L 45.890625 24.144531 C 33.929688 24.144531 24.144531 33.929688 24.144531 45.890625 C 24.144531 57.847656 33.929688 67.636719 45.890625 67.636719 L 100.253906 67.636719 L 100.253906 1372.359375 L 45.890625 1372.359375 C 33.929688 1372.359375 24.144531 1382.144531 24.144531 1394.105469 C 24.144531 1406.066406 33.929688 1415.851562 45.890625 1415.851562 L 144.832031 1415.851562 C 152.441406 1415.851562 162.226562 1412.589844 168.75 1408.238281 L 452.527344 1198.398438 C 452.527344 1198.398438 761.3125 1199.484375 982.03125 1198.398438 C 982.03125 1198.398438 1272.332031 1408.238281 1272.332031 1408.238281 C 1277.769531 1412.589844 1287.554688 1415.851562 1295.164062 1415.851562 L 1394.105469 1415.851562 C 1406.066406 1415.851562 1415.851562 1406.066406 1415.851562 1394.105469 C 1415.851562 1382.144531 1406.066406 1372.359375 1394.105469 1372.359375 Z M 143.742188 67.636719 L 263.34375 155.703125 C 263.34375 155.703125 263.34375 413.386719 263.34375 413.386719 L 227.464844 400.339844 L 227.464844 340.539062 C 227.464844 328.578125 217.679688 318.792969 205.71875 318.792969 C 193.757812 318.792969 183.972656 328.578125 183.972656 340.539062 L 183.972656 384.03125 L 143.742188 369.894531 Z M 143.742188 416.648438 L 263.34375 460.140625 L 263.34375 730.871094 L 143.742188 737.394531 Z M 143.742188 779.796875 L 263.34375 774.359375 L 263.34375 1001.601562 L 227.464844 1014.648438 L 227.464844 960.285156 C 227.464844 948.324219 217.679688 938.539062 205.71875 938.539062 C 193.757812 938.539062 183.972656 948.324219 183.972656 960.285156 L 183.972656 1030.957031 L 143.742188 1045.089844 Z M 143.742188 1372.359375 L 143.742188 1091.84375 L 263.34375 1047.265625 L 263.34375 1283.203125 C 263.34375 1283.203125 263.34375 1284.292969 263.34375 1284.292969 Z M 426.433594 1163.605469 L 306.835938 1251.671875 L 306.835938 1030.957031 L 426.433594 986.378906 Z M 426.433594 940.714844 L 385.117188 955.933594 L 385.117188 913.53125 C 385.117188 901.570312 375.332031 891.785156 363.371094 891.785156 C 351.414062 891.785156 341.628906 901.570312 341.628906 913.53125 L 341.628906 972.246094 L 306.835938 985.292969 L 306.835938 772.1875 L 426.433594 765.664062 Z M 426.433594 722.171875 L 306.835938 728.695312 L 306.835938 475.363281 L 426.433594 518.851562 Z M 426.433594 473.1875 L 385.117188 457.964844 L 385.117188 401.425781 C 385.117188 389.46875 375.332031 379.679688 363.371094 379.679688 C 351.414062 379.679688 341.628906 389.46875 341.628906 401.425781 L 341.628906 441.65625 L 306.835938 429.695312 L 306.835938 188.320312 L 426.433594 276.390625 Z M 850.46875 1154.90625 L 589.523438 1154.90625 L 589.523438 1002.6875 L 850.46875 1002.6875 Z M 643.886719 959.195312 L 643.886719 893.960938 L 796.105469 893.960938 L 796.105469 959.195312 Z M 970.070312 1154.90625 L 893.960938 1154.90625 L 893.960938 980.941406 C 893.960938 968.984375 884.175781 959.195312 872.214844 959.195312 L 839.597656 959.195312 L 839.597656 872.214844 C 839.597656 860.253906 829.8125 850.46875 817.851562 850.46875 L 770.011719 850.46875 L 775.449219 845.035156 C 783.058594 836.335938 781.972656 822.199219 773.273438 814.589844 C 764.574219 806.980469 750.441406 808.066406 742.832031 816.765625 L 721.085938 841.773438 L 699.339844 816.765625 C 691.726562 808.066406 677.59375 805.890625 668.894531 814.589844 C 660.199219 822.199219 658.023438 836.335938 666.722656 845.035156 L 672.15625 850.46875 L 622.144531 850.46875 C 610.183594 850.46875 600.398438 860.253906 600.398438 872.214844 L 600.398438 959.195312 L 567.78125 959.195312 C 555.820312 959.195312 546.035156 968.984375 546.035156 980.941406 L 546.035156 1154.90625 L 469.925781 1154.90625 L 469.925781 763.488281 L 970.070312 763.488281 Z M 611.269531 719.996094 L 611.269531 654.761719 L 654.761719 654.761719 L 654.761719 719.996094 Z M 785.234375 719.996094 L 785.234375 654.761719 L 828.726562 654.761719 L 828.726562 719.996094 Z M 970.070312 719.996094 L 872.214844 719.996094 L 872.214844 633.015625 C 872.214844 621.054688 862.429688 611.269531 850.46875 611.269531 L 763.488281 611.269531 C 751.527344 611.269531 741.742188 621.054688 741.742188 633.015625 L 741.742188 719.996094 L 698.253906 719.996094 L 698.253906 633.015625 C 698.253906 621.054688 688.464844 611.269531 676.507812 611.269531 L 589.523438 611.269531 C 577.566406 611.269531 567.78125 621.054688 567.78125 633.015625 L 567.78125 719.996094 L 469.925781 719.996094 L 469.925781 524.289062 L 970.070312 524.289062 Z M 611.269531 480.796875 L 611.269531 415.5625 L 654.761719 415.5625 L 654.761719 480.796875 Z M 785.234375 480.796875 L 785.234375 415.5625 L 828.726562 415.5625 L 828.726562 480.796875 Z M 970.070312 480.796875 L 872.214844 480.796875 L 872.214844 393.816406 C 872.214844 381.855469 862.429688 372.070312 850.46875 372.070312 L 763.488281 372.070312 C 751.527344 372.070312 741.742188 381.855469 741.742188 393.816406 L 741.742188 480.796875 L 698.253906 480.796875 L 698.253906 393.816406 C 698.253906 381.855469 688.464844 372.070312 676.507812 372.070312 L 589.523438 372.070312 C 577.566406 372.070312 567.78125 381.855469 567.78125 393.816406 L 567.78125 480.796875 L 469.925781 480.796875 L 469.925781 285.089844 L 970.070312 285.089844 Z M 452.527344 241.597656 L 364.460938 176.363281 L 1075.535156 176.363281 L 987.464844 241.597656 Z M 1133.160156 1251.671875 L 1013.5625 1163.605469 L 1013.5625 987.464844 L 1133.160156 1032.042969 Z M 1133.160156 985.292969 L 1097.28125 972.246094 L 1097.28125 913.53125 C 1097.28125 901.570312 1087.496094 891.785156 1075.535156 891.785156 C 1063.574219 891.785156 1053.789062 901.570312 1053.789062 913.53125 L 1053.789062 955.933594 L 1013.5625 940.714844 L 1013.5625 765.664062 L 1133.160156 772.1875 Z M 1133.160156 727.609375 L 1013.5625 721.085938 L 1013.5625 518.851562 L 1133.160156 475.363281 Z M 1133.160156 429.695312 L 1097.28125 442.742188 L 1097.28125 402.515625 C 1097.28125 390.554688 1087.496094 380.769531 1075.535156 380.769531 C 1063.574219 380.769531 1053.789062 390.554688 1053.789062 402.515625 L 1053.789062 459.050781 L 1013.5625 473.1875 L 1013.5625 276.390625 L 1133.160156 188.320312 Z M 1296.25 1372.359375 L 1176.652344 1284.292969 C 1176.652344 1284.292969 1176.652344 1283.203125 1176.652344 1283.203125 L 1176.652344 1047.265625 L 1296.25 1091.84375 Z M 1296.25 1045.089844 L 1256.023438 1029.871094 L 1256.023438 959.195312 C 1256.023438 947.238281 1246.238281 937.453125 1234.277344 937.453125 C 1222.316406 937.453125 1212.53125 947.238281 1212.53125 959.195312 L 1212.53125 1013.5625 L 1176.652344 1000.511719 L 1176.652344 774.359375 L 1296.25 780.882812 Z M 1296.25 736.304688 L 1176.652344 730.871094 L 1176.652344 460.140625 L 1296.25 416.648438 Z M 1296.25 369.894531 L 1256.023438 384.03125 L 1256.023438 340.539062 C 1256.023438 328.578125 1246.238281 318.792969 1234.277344 318.792969 C 1222.316406 318.792969 1212.53125 328.578125 1212.53125 340.539062 L 1212.53125 400.339844 L 1176.652344 413.386719 L 1176.652344 156.792969 C 1176.652344 156.792969 1176.652344 155.703125 1176.652344 155.703125 L 1296.25 67.636719 Z M 1296.25 369.894531 " fill-opacity="1" fill-rule="nonzero"/></g><path fill="#377813" d="M 1220.140625 574.304688 C 1231.015625 574.304688 1242.976562 569.953125 1252.761719 566.691406 C 1264.71875 563.429688 1271.242188 552.558594 1269.070312 540.597656 C 1265.808594 528.636719 1254.933594 522.113281 1242.976562 524.289062 L 1214.707031 530.8125 C 1202.746094 534.074219 1196.222656 544.945312 1198.398438 556.90625 C 1201.660156 566.691406 1210.355469 574.304688 1220.140625 574.304688 Z M 1220.140625 574.304688 " fill-opacity="1" fill-rule="nonzero"/><path fill="#377813" d="M 1242.976562 605.835938 L 1216.878906 611.269531 C 1204.921875 613.445312 1197.308594 625.40625 1200.570312 637.363281 C 1202.746094 649.324219 1214.707031 656.9375 1226.664062 653.675781 L 1252.761719 648.238281 C 1264.71875 646.0625 1272.332031 634.101562 1269.070312 622.144531 C 1266.894531 611.269531 1254.933594 603.660156 1242.976562 605.835938 Z M 1242.976562 605.835938 " fill-opacity="1" fill-rule="nonzero"/><path fill="#377813" d="M 1057.050781 596.046875 C 1067.925781 596.046875 1079.882812 591.699219 1089.667969 588.4375 C 1101.628906 585.175781 1108.152344 574.304688 1105.980469 562.34375 C 1102.71875 550.382812 1091.84375 543.859375 1079.882812 546.035156 L 1051.613281 552.558594 C 1039.65625 555.820312 1033.132812 566.691406 1035.304688 578.652344 C 1038.566406 589.523438 1047.265625 596.046875 1057.050781 596.046875 Z M 1057.050781 596.046875 " fill-opacity="1" fill-rule="nonzero"/><path fill="#377813" d="M 1079.882812 627.578125 L 1053.789062 633.015625 C 1041.828125 635.191406 1034.21875 647.148438 1037.480469 659.109375 C 1039.65625 668.894531 1048.351562 676.507812 1059.226562 676.507812 C 1069.011719 676.507812 1079.882812 672.15625 1089.667969 669.984375 C 1101.628906 667.808594 1109.242188 655.847656 1105.980469 643.886719 C 1103.804688 633.015625 1091.84375 625.40625 1079.882812 627.578125 Z M 1079.882812 627.578125 " fill-opacity="1" fill-rule="nonzero"/><g fill="#377813" fill-opacity="1"><g transform="translate(710.323696, 1077.955782)"><g><path d="M 2.421875 0.125 C 1.785156 0.125 1.304688 -0.0390625 0.984375 -0.375 C 0.671875 -0.71875 0.515625 -1.179688 0.515625 -1.765625 C 0.515625 -2.421875 0.726562 -2.925781 1.15625 -3.28125 C 1.59375 -3.632812 2.289062 -3.820312 3.25 -3.84375 L 4.671875 -3.875 L 4.671875 -4.21875 C 4.671875 -4.726562 4.5625 -5.09375 4.34375 -5.3125 C 4.125 -5.539062 3.78125 -5.65625 3.3125 -5.65625 C 2.84375 -5.65625 2.5 -5.570312 2.28125 -5.40625 C 2.0625 -5.25 1.929688 -4.992188 1.890625 -4.640625 L 0.796875 -4.75 C 0.972656 -5.882812 1.816406 -6.453125 3.328125 -6.453125 C 4.128906 -6.453125 4.726562 -6.269531 5.125 -5.90625 C 5.53125 -5.539062 5.734375 -5.015625 5.734375 -4.328125 L 5.734375 -1.59375 C 5.734375 -1.28125 5.773438 -1.046875 5.859375 -0.890625 C 5.941406 -0.734375 6.097656 -0.65625 6.328125 -0.65625 C 6.429688 -0.65625 6.546875 -0.664062 6.671875 -0.6875 L 6.671875 -0.03125 C 6.410156 0.03125 6.140625 0.0625 5.859375 0.0625 C 5.472656 0.0625 5.1875 -0.0390625 5 -0.25 C 4.820312 -0.457031 4.722656 -0.78125 4.703125 -1.21875 L 4.671875 -1.21875 C 4.398438 -0.726562 4.082031 -0.378906 3.71875 -0.171875 C 3.363281 0.0234375 2.929688 0.125 2.421875 0.125 Z M 2.671875 -0.671875 C 3.054688 -0.671875 3.398438 -0.757812 3.703125 -0.9375 C 4.003906 -1.113281 4.238281 -1.351562 4.40625 -1.65625 C 4.582031 -1.96875 4.671875 -2.285156 4.671875 -2.609375 L 4.671875 -3.125 L 3.515625 -3.109375 C 3.015625 -3.097656 2.632812 -3.046875 2.375 -2.953125 C 2.125 -2.859375 1.929688 -2.710938 1.796875 -2.515625 C 1.660156 -2.328125 1.59375 -2.070312 1.59375 -1.75 C 1.59375 -1.40625 1.6875 -1.140625 1.875 -0.953125 C 2.0625 -0.765625 2.328125 -0.671875 2.671875 -0.671875 Z M 2.671875 -0.671875 "/></g></g><g transform="translate(716.997524, 1077.955782)"><g><path d="M 5.5625 -1.75 C 5.5625 -1.15625 5.335938 -0.691406 4.890625 -0.359375 C 4.441406 -0.0351562 3.8125 0.125 3 0.125 C 2.207031 0.125 1.597656 -0.00390625 1.171875 -0.265625 C 0.742188 -0.523438 0.460938 -0.929688 0.328125 -1.484375 L 1.265625 -1.671875 C 1.359375 -1.328125 1.546875 -1.078125 1.828125 -0.921875 C 2.109375 -0.765625 2.5 -0.6875 3 -0.6875 C 3.53125 -0.6875 3.921875 -0.765625 4.171875 -0.921875 C 4.421875 -1.085938 4.546875 -1.335938 4.546875 -1.671875 C 4.546875 -1.921875 4.457031 -2.125 4.28125 -2.28125 C 4.113281 -2.4375 3.835938 -2.566406 3.453125 -2.671875 L 2.703125 -2.859375 C 2.085938 -3.015625 1.648438 -3.164062 1.390625 -3.3125 C 1.140625 -3.46875 0.941406 -3.65625 0.796875 -3.875 C 0.660156 -4.09375 0.59375 -4.359375 0.59375 -4.671875 C 0.59375 -5.242188 0.796875 -5.679688 1.203125 -5.984375 C 1.617188 -6.285156 2.21875 -6.4375 3 -6.4375 C 3.707031 -6.4375 4.265625 -6.3125 4.671875 -6.0625 C 5.085938 -5.820312 5.347656 -5.429688 5.453125 -4.890625 L 4.5 -4.765625 C 4.445312 -5.046875 4.289062 -5.257812 4.03125 -5.40625 C 3.78125 -5.5625 3.4375 -5.640625 3 -5.640625 C 2.53125 -5.640625 2.179688 -5.566406 1.953125 -5.421875 C 1.722656 -5.273438 1.609375 -5.054688 1.609375 -4.765625 C 1.609375 -4.585938 1.65625 -4.441406 1.75 -4.328125 C 1.84375 -4.210938 1.976562 -4.113281 2.15625 -4.03125 C 2.34375 -3.945312 2.734375 -3.832031 3.328125 -3.6875 C 3.890625 -3.539062 4.289062 -3.410156 4.53125 -3.296875 C 4.78125 -3.179688 4.972656 -3.050781 5.109375 -2.90625 C 5.253906 -2.757812 5.363281 -2.585938 5.4375 -2.390625 C 5.519531 -2.203125 5.5625 -1.988281 5.5625 -1.75 Z M 5.5625 -1.75 "/></g></g><g transform="translate(722.997523, 1077.955782)"><g><path d="M 4.8125 -1.015625 C 4.613281 -0.609375 4.351562 -0.316406 4.03125 -0.140625 C 3.707031 0.0351562 3.3125 0.125 2.84375 0.125 C 2.039062 0.125 1.445312 -0.144531 1.0625 -0.6875 C 0.6875 -1.226562 0.5 -2.046875 0.5 -3.140625 C 0.5 -5.347656 1.28125 -6.453125 2.84375 -6.453125 C 3.320312 -6.453125 3.71875 -6.363281 4.03125 -6.1875 C 4.351562 -6.019531 4.613281 -5.742188 4.8125 -5.359375 L 4.828125 -5.359375 L 4.8125 -6.0625 L 4.8125 -8.703125 L 5.859375 -8.703125 L 5.859375 -1.3125 C 5.859375 -0.644531 5.875 -0.207031 5.90625 0 L 4.890625 0 C 4.878906 -0.0625 4.863281 -0.207031 4.84375 -0.4375 C 4.832031 -0.664062 4.828125 -0.859375 4.828125 -1.015625 Z M 1.609375 -3.171875 C 1.609375 -2.285156 1.722656 -1.648438 1.953125 -1.265625 C 2.191406 -0.890625 2.578125 -0.703125 3.109375 -0.703125 C 3.703125 -0.703125 4.132812 -0.90625 4.40625 -1.3125 C 4.675781 -1.726562 4.8125 -2.375 4.8125 -3.25 C 4.8125 -4.082031 4.675781 -4.691406 4.40625 -5.078125 C 4.132812 -5.472656 3.707031 -5.671875 3.125 -5.671875 C 2.59375 -5.671875 2.207031 -5.472656 1.96875 -5.078125 C 1.726562 -4.691406 1.609375 -4.054688 1.609375 -3.171875 Z M 1.609375 -3.171875 "/></g></g></g></svg>