<svg xmlns="http://www.w3.org/2000/svg" xmlns:xlink="http://www.w3.org/1999/xlink" width="1920" zoomAndPan="magnify" viewBox="0 0 1440 1439.999935" height="1920" preserveAspectRatio="xMidYMid meet" version="1.0"><defs><g/><clipPath id="74f7e69aab"><path d="M 357 81.597656 L 635 81.597656 L 635 360 L 357 360 Z M 357 81.597656 " clip-rule="nonzero"/></clipPath><clipPath id="20c11ab2e7"><path d="M 795 81.597656 L 1074 81.597656 L 1074 360 L 795 360 Z M 795 81.597656 " clip-rule="nonzero"/></clipPath><clipPath id="74653dcc11"><path d="M 469 942 L 969 942 L 969 1358.097656 L 469 1358.097656 Z M 469 942 " clip-rule="nonzero"/></clipPath><clipPath id="eff0f74501"><path d="M 24.144531 775 L 517 775 L 517 1192 L 24.144531 1192 Z M 24.144531 775 " clip-rule="nonzero"/></clipPath><clipPath id="75af3aa1d2"><path d="M 920 775 L 1411.644531 775 L 1411.644531 1192 L 920 1192 Z M 920 775 " clip-rule="nonzero"/></clipPath></defs><g clip-path="url(#74f7e69aab)"><path fill="#377813" d="M 634.789062 220.382812 C 634.789062 222.652344 634.734375 224.921875 634.621094 227.191406 C 634.511719 229.460938 634.34375 231.722656 634.121094 233.984375 C 633.898438 236.246094 633.621094 238.5 633.285156 240.746094 C 632.953125 242.992188 632.566406 245.230469 632.121094 247.457031 C 631.679688 249.683594 631.179688 251.898438 630.628906 254.101562 C 630.078125 256.304688 629.472656 258.496094 628.8125 260.667969 C 628.152344 262.839844 627.441406 264.996094 626.675781 267.136719 C 625.910156 269.273438 625.09375 271.394531 624.222656 273.492188 C 623.355469 275.589844 622.433594 277.664062 621.464844 279.71875 C 620.492188 281.773438 619.472656 283.800781 618.402344 285.804688 C 617.332031 287.804688 616.210938 289.78125 615.042969 291.730469 C 613.875 293.679688 612.660156 295.597656 611.398438 297.484375 C 610.136719 299.375 608.828125 301.230469 607.476562 303.054688 C 606.125 304.878906 604.726562 306.667969 603.285156 308.425781 C 601.84375 310.179688 600.363281 311.898438 598.835938 313.582031 C 597.3125 315.265625 595.746094 316.910156 594.140625 318.515625 C 592.535156 320.121094 590.890625 321.6875 589.207031 323.210938 C 587.523438 324.738281 585.804688 326.222656 584.046875 327.660156 C 582.292969 329.101562 580.503906 330.5 578.679688 331.851562 C 576.855469 333.207031 574.996094 334.511719 573.109375 335.773438 C 571.21875 337.035156 569.300781 338.25 567.355469 339.417969 C 565.40625 340.585938 563.429688 341.707031 561.425781 342.777344 C 559.425781 343.847656 557.394531 344.867188 555.34375 345.839844 C 553.289062 346.808594 551.214844 347.730469 549.117188 348.601562 C 547.015625 349.46875 544.898438 350.285156 542.761719 351.050781 C 540.621094 351.816406 538.464844 352.527344 536.292969 353.1875 C 534.117188 353.847656 531.929688 354.453125 529.726562 355.003906 C 527.523438 355.558594 525.308594 356.054688 523.082031 356.496094 C 520.851562 356.941406 518.617188 357.328125 516.371094 357.660156 C 514.121094 357.996094 511.867188 358.273438 509.609375 358.496094 C 507.347656 358.71875 505.082031 358.886719 502.816406 358.996094 C 500.546875 359.109375 498.277344 359.164062 496.003906 359.164062 C 493.734375 359.164062 491.464844 359.109375 489.195312 358.996094 C 486.925781 358.886719 484.664062 358.71875 482.402344 358.496094 C 480.140625 358.273438 477.886719 357.996094 475.640625 357.660156 C 473.394531 357.328125 471.15625 356.941406 468.929688 356.496094 C 466.703125 356.054688 464.488281 355.558594 462.285156 355.003906 C 460.082031 354.453125 457.890625 353.847656 455.71875 353.1875 C 453.546875 352.527344 451.390625 351.816406 449.25 351.050781 C 447.113281 350.285156 444.992188 349.46875 442.894531 348.601562 C 440.796875 347.730469 438.722656 346.8125 436.667969 345.839844 C 434.613281 344.867188 432.585938 343.847656 430.582031 342.777344 C 428.582031 341.707031 426.605469 340.585938 424.65625 339.417969 C 422.707031 338.25 420.789062 337.035156 418.902344 335.773438 C 417.011719 334.511719 415.15625 333.207031 413.332031 331.851562 C 411.507812 330.5 409.71875 329.101562 407.960938 327.660156 C 406.207031 326.222656 404.488281 324.738281 402.804688 323.210938 C 401.121094 321.6875 399.476562 320.121094 397.871094 318.515625 C 396.265625 316.910156 394.699219 315.265625 393.175781 313.582031 C 391.648438 311.898438 390.164062 310.179688 388.726562 308.425781 C 387.285156 306.667969 385.886719 304.878906 384.535156 303.054688 C 383.179688 301.230469 381.875 299.375 380.613281 297.484375 C 379.351562 295.597656 378.136719 293.679688 376.96875 291.730469 C 375.800781 289.78125 374.679688 287.804688 373.609375 285.804688 C 372.539062 283.800781 371.519531 281.773438 370.546875 279.71875 C 369.578125 277.664062 368.65625 275.589844 367.785156 273.492188 C 366.917969 271.394531 366.101562 269.273438 365.335938 267.136719 C 364.570312 264.996094 363.859375 262.839844 363.199219 260.667969 C 362.539062 258.496094 361.933594 256.304688 361.382812 254.101562 C 360.828125 251.898438 360.332031 249.683594 359.890625 247.457031 C 359.445312 245.230469 359.058594 242.992188 358.726562 240.746094 C 358.390625 238.5 358.113281 236.246094 357.890625 233.984375 C 357.667969 231.722656 357.5 229.460938 357.390625 227.191406 C 357.277344 224.921875 357.222656 222.652344 357.222656 220.382812 C 357.222656 218.109375 357.277344 215.839844 357.390625 213.570312 C 357.5 211.304688 357.667969 209.039062 357.890625 206.777344 C 358.113281 204.519531 358.390625 202.265625 358.726562 200.019531 C 359.058594 197.769531 359.445312 195.535156 359.890625 193.304688 C 360.332031 191.078125 360.828125 188.863281 361.382812 186.660156 C 361.933594 184.457031 362.539062 182.269531 363.199219 180.09375 C 363.859375 177.921875 364.570312 175.765625 365.335938 173.625 C 366.101562 171.488281 366.917969 169.371094 367.785156 167.269531 C 368.65625 165.171875 369.578125 163.097656 370.546875 161.042969 C 371.519531 158.992188 372.539062 156.960938 373.609375 154.960938 C 374.679688 152.957031 375.800781 150.980469 376.96875 149.03125 C 378.136719 147.085938 379.351562 145.167969 380.613281 143.277344 C 381.875 141.390625 383.179688 139.53125 384.535156 137.707031 C 385.886719 135.882812 387.285156 134.09375 388.726562 132.339844 C 390.164062 130.582031 391.648438 128.863281 393.175781 127.179688 C 394.699219 125.496094 396.265625 123.851562 397.871094 122.246094 C 399.476562 120.640625 401.121094 119.074219 402.804688 117.550781 C 404.488281 116.023438 406.207031 114.542969 407.960938 113.101562 C 409.71875 111.660156 411.507812 110.261719 413.332031 108.910156 C 415.15625 107.558594 417.011719 106.25 418.902344 104.988281 C 420.789062 103.726562 422.707031 102.511719 424.65625 101.34375 C 426.605469 100.175781 428.582031 99.054688 430.582031 97.984375 C 432.585938 96.914062 434.613281 95.894531 436.667969 94.921875 C 438.722656 93.953125 440.796875 93.03125 442.894531 92.164062 C 444.992188 91.292969 447.113281 90.476562 449.25 89.710938 C 451.390625 88.945312 453.546875 88.234375 455.71875 87.574219 C 457.890625 86.914062 460.082031 86.308594 462.285156 85.757812 C 464.488281 85.207031 466.703125 84.707031 468.929688 84.265625 C 471.15625 83.820312 473.394531 83.433594 475.640625 83.101562 C 477.886719 82.765625 480.140625 82.488281 482.402344 82.265625 C 484.664062 82.042969 486.925781 81.878906 489.195312 81.765625 C 491.464844 81.652344 493.734375 81.597656 496.003906 81.597656 C 498.277344 81.597656 500.546875 81.652344 502.816406 81.765625 C 505.082031 81.878906 507.347656 82.042969 509.609375 82.265625 C 511.867188 82.488281 514.121094 82.765625 516.371094 83.101562 C 518.617188 83.433594 520.851562 83.820312 523.082031 84.265625 C 525.308594 84.707031 527.523438 85.207031 529.726562 85.757812 C 531.929688 86.308594 534.117188 86.914062 536.292969 87.574219 C 538.464844 88.234375 540.621094 88.945312 542.761719 89.710938 C 544.898438 90.476562 547.015625 91.292969 549.117188 92.164062 C 551.214844 93.03125 553.289062 93.953125 555.34375 94.921875 C 557.394531 95.894531 559.425781 96.914062 561.425781 97.984375 C 563.429688 99.054688 565.40625 100.175781 567.355469 101.34375 C 569.300781 102.511719 571.21875 103.726562 573.109375 104.988281 C 574.996094 106.25 576.855469 107.558594 578.679688 108.910156 C 580.503906 110.261719 582.292969 111.660156 584.046875 113.101562 C 585.804688 114.542969 587.523438 116.023438 589.207031 117.550781 C 590.890625 119.074219 592.535156 120.640625 594.140625 122.246094 C 595.746094 123.851562 597.3125 125.496094 598.835938 127.179688 C 600.363281 128.863281 601.84375 130.582031 603.285156 132.339844 C 604.726562 134.09375 606.125 135.882812 607.476562 137.707031 C 608.828125 139.53125 610.136719 141.390625 611.398438 143.277344 C 612.660156 145.167969 613.875 147.085938 615.042969 149.03125 C 616.210938 150.980469 617.332031 152.957031 618.402344 154.960938 C 619.472656 156.960938 620.492188 158.992188 621.464844 161.042969 C 622.433594 163.097656 623.355469 165.171875 624.222656 167.269531 C 625.09375 169.371094 625.910156 171.488281 626.675781 173.625 C 627.441406 175.765625 628.152344 177.921875 628.8125 180.09375 C 629.472656 182.269531 630.078125 184.457031 630.628906 186.660156 C 631.179688 188.863281 631.679688 191.078125 632.121094 193.304688 C 632.566406 195.535156 632.953125 197.769531 633.285156 200.019531 C 633.621094 202.265625 633.898438 204.519531 634.121094 206.777344 C 634.34375 209.039062 634.511719 211.304688 634.621094 213.570312 C 634.734375 215.839844 634.789062 218.109375 634.789062 220.382812 Z M 634.789062 220.382812 " fill-opacity="1" fill-rule="nonzero"/></g><g clip-path="url(#20c11ab2e7)"><path fill="#377813" d="M 1073.34375 220.382812 C 1073.34375 222.652344 1073.285156 224.921875 1073.175781 227.191406 C 1073.0625 229.460938 1072.894531 231.722656 1072.671875 233.984375 C 1072.449219 236.246094 1072.171875 238.5 1071.839844 240.746094 C 1071.507812 242.992188 1071.117188 245.230469 1070.675781 247.457031 C 1070.230469 249.683594 1069.734375 251.898438 1069.183594 254.101562 C 1068.632812 256.304688 1068.023438 258.496094 1067.367188 260.667969 C 1066.707031 262.839844 1065.996094 264.996094 1065.230469 267.136719 C 1064.464844 269.273438 1063.648438 271.394531 1062.777344 273.492188 C 1061.910156 275.589844 1060.988281 277.664062 1060.015625 279.71875 C 1059.046875 281.773438 1058.023438 283.800781 1056.953125 285.804688 C 1055.882812 287.804688 1054.765625 289.78125 1053.597656 291.730469 C 1052.429688 293.679688 1051.214844 295.597656 1049.953125 297.484375 C 1048.691406 299.375 1047.382812 301.230469 1046.03125 303.054688 C 1044.675781 304.878906 1043.28125 306.667969 1041.839844 308.425781 C 1040.398438 310.179688 1038.914062 311.898438 1037.390625 313.582031 C 1035.863281 315.265625 1034.300781 316.910156 1032.695312 318.515625 C 1031.085938 320.121094 1029.441406 321.6875 1027.761719 323.210938 C 1026.078125 324.738281 1024.359375 326.222656 1022.601562 327.660156 C 1020.847656 329.101562 1019.054688 330.5 1017.230469 331.851562 C 1015.40625 333.207031 1013.550781 334.511719 1011.664062 335.773438 C 1009.773438 337.035156 1007.855469 338.25 1005.90625 339.417969 C 1003.960938 340.585938 1001.984375 341.707031 999.980469 342.777344 C 997.976562 343.847656 995.949219 344.867188 993.894531 345.839844 C 991.84375 346.808594 989.765625 347.730469 987.667969 348.601562 C 985.570312 349.46875 983.453125 350.285156 981.3125 351.050781 C 979.175781 351.816406 977.019531 352.527344 974.84375 353.1875 C 972.671875 353.847656 970.484375 354.453125 968.28125 355.003906 C 966.078125 355.558594 963.863281 356.054688 961.632812 356.496094 C 959.40625 356.941406 957.167969 357.328125 954.921875 357.660156 C 952.675781 357.996094 950.421875 358.273438 948.164062 358.496094 C 945.902344 358.71875 943.636719 358.886719 941.367188 358.996094 C 939.101562 359.109375 936.832031 359.164062 934.558594 359.164062 C 932.289062 359.164062 930.019531 359.109375 927.75 358.996094 C 925.480469 358.886719 923.214844 358.71875 920.957031 358.496094 C 918.695312 358.273438 916.441406 357.996094 914.195312 357.660156 C 911.949219 357.328125 909.710938 356.941406 907.484375 356.496094 C 905.257812 356.054688 903.039062 355.558594 900.835938 355.003906 C 898.632812 354.453125 896.445312 353.847656 894.273438 353.1875 C 892.097656 352.527344 889.941406 351.816406 887.804688 351.050781 C 885.667969 350.285156 883.546875 349.46875 881.449219 348.601562 C 879.351562 347.730469 877.273438 346.8125 875.222656 345.839844 C 873.167969 344.867188 871.140625 343.847656 869.136719 342.777344 C 867.132812 341.707031 865.160156 340.585938 863.210938 339.417969 C 861.261719 338.25 859.34375 337.035156 857.457031 335.773438 C 855.566406 334.511719 853.710938 333.207031 851.886719 331.851562 C 850.0625 330.5 848.273438 329.101562 846.515625 327.660156 C 844.761719 326.222656 843.042969 324.738281 841.359375 323.210938 C 839.675781 321.6875 838.03125 320.121094 836.425781 318.515625 C 834.820312 316.910156 833.253906 315.265625 831.726562 313.582031 C 830.203125 311.898438 828.71875 310.179688 827.277344 308.425781 C 825.835938 306.667969 824.441406 304.878906 823.085938 303.054688 C 821.734375 301.230469 820.425781 299.375 819.164062 297.484375 C 817.902344 295.597656 816.6875 293.679688 815.519531 291.730469 C 814.351562 289.78125 813.234375 287.804688 812.164062 285.804688 C 811.09375 283.800781 810.070312 281.773438 809.101562 279.71875 C 808.128906 277.664062 807.210938 275.589844 806.339844 273.492188 C 805.472656 271.394531 804.652344 269.273438 803.890625 267.136719 C 803.125 264.996094 802.410156 262.839844 801.753906 260.667969 C 801.09375 258.496094 800.488281 256.304688 799.933594 254.101562 C 799.382812 251.898438 798.886719 249.683594 798.441406 247.457031 C 798 245.230469 797.613281 242.992188 797.277344 240.746094 C 796.945312 238.5 796.667969 236.246094 796.445312 233.984375 C 796.222656 231.722656 796.054688 229.460938 795.945312 227.191406 C 795.832031 224.921875 795.777344 222.652344 795.777344 220.382812 C 795.777344 218.109375 795.832031 215.839844 795.945312 213.570312 C 796.054688 211.304688 796.222656 209.039062 796.445312 206.777344 C 796.667969 204.519531 796.945312 202.265625 797.277344 200.019531 C 797.613281 197.769531 798 195.535156 798.441406 193.304688 C 798.886719 191.078125 799.382812 188.863281 799.933594 186.660156 C 800.488281 184.457031 801.09375 182.269531 801.753906 180.09375 C 802.410156 177.921875 803.125 175.765625 803.890625 173.625 C 804.652344 171.488281 805.472656 169.371094 806.339844 167.269531 C 807.210938 165.171875 808.128906 163.097656 809.101562 161.042969 C 810.070312 158.992188 811.09375 156.960938 812.164062 154.960938 C 813.234375 152.957031 814.351562 150.980469 815.519531 149.03125 C 816.6875 147.085938 817.902344 145.167969 819.164062 143.277344 C 820.425781 141.390625 821.734375 139.53125 823.085938 137.707031 C 824.441406 135.882812 825.835938 134.09375 827.277344 132.339844 C 828.71875 130.582031 830.203125 128.863281 831.726562 127.179688 C 833.253906 125.496094 834.820312 123.851562 836.425781 122.246094 C 838.03125 120.640625 839.675781 119.074219 841.359375 117.550781 C 843.042969 116.023438 844.761719 114.542969 846.515625 113.101562 C 848.273438 111.660156 850.0625 110.261719 851.886719 108.910156 C 853.710938 107.558594 855.566406 106.25 857.457031 104.988281 C 859.34375 103.726562 861.261719 102.511719 863.210938 101.34375 C 865.160156 100.175781 867.132812 99.054688 869.136719 97.984375 C 871.140625 96.914062 873.167969 95.894531 875.222656 94.921875 C 877.273438 93.953125 879.351562 93.03125 881.449219 92.164062 C 883.546875 91.292969 885.667969 90.476562 887.804688 89.710938 C 889.941406 88.945312 892.097656 88.234375 894.273438 87.574219 C 896.445312 86.914062 898.632812 86.308594 900.835938 85.757812 C 903.039062 85.207031 905.257812 84.707031 907.484375 84.265625 C 909.710938 83.820312 911.949219 83.433594 914.195312 83.101562 C 916.441406 82.765625 918.695312 82.488281 920.957031 82.265625 C 923.214844 82.042969 925.480469 81.878906 927.75 81.765625 C 930.019531 81.652344 932.289062 81.597656 934.558594 81.597656 C 936.832031 81.597656 939.101562 81.652344 941.367188 81.765625 C 943.636719 81.878906 945.902344 82.042969 948.164062 82.265625 C 950.421875 82.488281 952.675781 82.765625 954.921875 83.101562 C 957.167969 83.433594 959.40625 83.820312 961.632812 84.265625 C 963.863281 84.707031 966.078125 85.207031 968.28125 85.757812 C 970.484375 86.308594 972.671875 86.914062 974.84375 87.574219 C 977.019531 88.234375 979.175781 88.945312 981.3125 89.710938 C 983.453125 90.476562 985.570312 91.292969 987.667969 92.164062 C 989.765625 93.03125 991.84375 93.953125 993.894531 94.921875 C 995.949219 95.894531 997.976562 96.914062 999.980469 97.984375 C 1001.984375 99.054688 1003.960938 100.175781 1005.90625 101.34375 C 1007.855469 102.511719 1009.773438 103.726562 1011.664062 104.988281 C 1013.550781 106.25 1015.40625 107.558594 1017.230469 108.910156 C 1019.054688 110.261719 1020.847656 111.660156 1022.601562 113.101562 C 1024.359375 114.542969 1026.078125 116.023438 1027.761719 117.550781 C 1029.441406 119.074219 1031.085938 120.640625 1032.695312 122.246094 C 1034.300781 123.851562 1035.863281 125.496094 1037.390625 127.179688 C 1038.914062 128.863281 1040.398438 130.582031 1041.839844 132.339844 C 1043.28125 134.09375 1044.675781 135.882812 1046.03125 137.707031 C 1047.382812 139.53125 1048.691406 141.390625 1049.953125 143.277344 C 1051.214844 145.167969 1052.429688 147.085938 1053.597656 149.03125 C 1054.765625 150.980469 1055.882812 152.957031 1056.953125 154.960938 C 1058.023438 156.960938 1059.046875 158.992188 1060.015625 161.042969 C 1060.988281 163.097656 1061.910156 165.171875 1062.777344 167.269531 C 1063.648438 169.371094 1064.464844 171.488281 1065.230469 173.625 C 1065.996094 175.765625 1066.707031 177.921875 1067.367188 180.09375 C 1068.027344 182.269531 1068.632812 184.457031 1069.183594 186.660156 C 1069.734375 188.863281 1070.230469 191.078125 1070.675781 193.304688 C 1071.117188 195.535156 1071.507812 197.769531 1071.839844 200.019531 C 1072.171875 202.265625 1072.449219 204.519531 1072.671875 206.777344 C 1072.894531 209.039062 1073.0625 211.304688 1073.175781 213.570312 C 1073.285156 215.839844 1073.34375 218.109375 1073.34375 220.382812 Z M 1073.34375 220.382812 " fill-opacity="1" fill-rule="nonzero"/></g><path fill="#377813" d="M 885.347656 748.503906 C 885.347656 751.230469 885.28125 753.953125 885.144531 756.675781 C 885.011719 759.398438 884.8125 762.117188 884.542969 764.828125 C 884.277344 767.542969 883.945312 770.246094 883.542969 772.941406 C 883.144531 775.636719 882.679688 778.324219 882.148438 780.996094 C 881.613281 783.667969 881.019531 786.328125 880.355469 788.972656 C 879.695312 791.613281 878.96875 794.242188 878.175781 796.847656 C 877.382812 799.457031 876.53125 802.042969 875.613281 804.609375 C 874.695312 807.175781 873.710938 809.71875 872.667969 812.238281 C 871.625 814.753906 870.523438 817.246094 869.355469 819.710938 C 868.191406 822.175781 866.96875 824.609375 865.683594 827.011719 C 864.398438 829.414062 863.054688 831.785156 861.652344 834.125 C 860.25 836.460938 858.792969 838.761719 857.28125 841.03125 C 855.765625 843.296875 854.195312 845.523438 852.574219 847.710938 C 850.949219 849.902344 849.273438 852.050781 847.542969 854.15625 C 845.816406 856.265625 844.035156 858.328125 842.203125 860.347656 C 840.375 862.367188 838.496094 864.339844 836.570312 866.265625 C 834.640625 868.195312 832.667969 870.074219 830.648438 871.902344 C 828.628906 873.734375 826.566406 875.511719 824.460938 877.242188 C 822.351562 878.972656 820.203125 880.648438 818.015625 882.269531 C 815.824219 883.894531 813.597656 885.464844 811.332031 886.976562 C 809.066406 888.492188 806.761719 889.949219 804.425781 891.351562 C 802.089844 892.753906 799.71875 894.09375 797.3125 895.378906 C 794.910156 896.664062 792.476562 897.890625 790.011719 899.054688 C 787.546875 900.21875 785.058594 901.324219 782.539062 902.367188 C 780.019531 903.410156 777.480469 904.390625 774.914062 905.308594 C 772.347656 906.226562 769.757812 907.082031 767.152344 907.875 C 764.542969 908.664062 761.917969 909.390625 759.273438 910.054688 C 756.628906 910.714844 753.972656 911.3125 751.296875 911.84375 C 748.625 912.375 745.941406 912.84375 743.242188 913.242188 C 740.546875 913.640625 737.84375 913.976562 735.132812 914.242188 C 732.417969 914.511719 729.703125 914.710938 726.980469 914.84375 C 724.257812 914.976562 721.53125 915.042969 718.808594 915.042969 C 716.082031 915.042969 713.359375 914.976562 710.636719 914.84375 C 707.914062 914.710938 705.195312 914.511719 702.484375 914.242188 C 699.769531 913.976562 697.066406 913.640625 694.371094 913.242188 C 691.675781 912.84375 688.992188 912.375 686.316406 911.84375 C 683.644531 911.3125 680.984375 910.714844 678.339844 910.054688 C 675.699219 909.390625 673.070312 908.664062 670.464844 907.875 C 667.855469 907.082031 665.269531 906.226562 662.703125 905.308594 C 660.136719 904.390625 657.59375 903.410156 655.074219 902.367188 C 652.558594 901.324219 650.066406 900.21875 647.601562 899.054688 C 645.140625 897.890625 642.707031 896.664062 640.300781 895.378906 C 637.898438 894.09375 635.527344 892.753906 633.1875 891.351562 C 630.851562 889.949219 628.550781 888.492188 626.28125 886.976562 C 624.015625 885.464844 621.789062 883.894531 619.601562 882.269531 C 617.410156 880.648438 615.261719 878.972656 613.15625 877.242188 C 611.050781 875.511719 608.984375 873.734375 606.964844 871.902344 C 604.945312 870.074219 602.972656 868.195312 601.046875 866.265625 C 599.121094 864.339844 597.242188 862.367188 595.410156 860.347656 C 593.578125 858.328125 591.800781 856.265625 590.070312 854.15625 C 588.339844 852.050781 586.664062 849.902344 585.042969 847.710938 C 583.417969 845.523438 581.847656 843.296875 580.335938 841.03125 C 578.820312 838.761719 577.363281 836.460938 575.960938 834.125 C 574.5625 831.785156 573.21875 829.414062 571.933594 827.011719 C 570.648438 824.609375 569.421875 822.175781 568.257812 819.710938 C 567.09375 817.246094 565.988281 814.753906 564.945312 812.238281 C 563.902344 809.71875 562.921875 807.175781 562.003906 804.609375 C 561.085938 802.042969 560.230469 799.457031 559.4375 796.847656 C 558.648438 794.242188 557.921875 791.613281 557.257812 788.972656 C 556.597656 786.328125 556 783.667969 555.46875 780.996094 C 554.9375 778.324219 554.46875 775.636719 554.070312 772.941406 C 553.671875 770.246094 553.335938 767.542969 553.070312 764.828125 C 552.804688 762.117188 552.601562 759.398438 552.46875 756.675781 C 552.335938 753.953125 552.269531 751.230469 552.269531 748.503906 C 552.269531 745.78125 552.335938 743.054688 552.46875 740.332031 C 552.601562 737.613281 552.804688 734.894531 553.070312 732.183594 C 553.335938 729.46875 553.671875 726.765625 554.070312 724.070312 C 554.46875 721.371094 554.9375 718.6875 555.46875 716.015625 C 556 713.34375 556.597656 710.683594 557.257812 708.039062 C 557.921875 705.394531 558.648438 702.769531 559.4375 700.160156 C 560.230469 697.554688 561.085938 694.964844 562.003906 692.398438 C 562.921875 689.832031 563.902344 687.292969 564.945312 684.773438 C 565.988281 682.253906 567.09375 679.765625 568.257812 677.300781 C 569.421875 674.835938 570.648438 672.402344 571.933594 670 C 573.21875 667.59375 574.5625 665.226562 575.960938 662.886719 C 577.363281 660.550781 578.820312 658.246094 580.335938 655.980469 C 581.847656 653.714844 583.417969 651.488281 585.042969 649.296875 C 586.664062 647.109375 588.339844 644.960938 590.070312 642.855469 C 591.800781 640.746094 593.578125 638.683594 595.410156 636.664062 C 597.242188 634.644531 599.121094 632.671875 601.046875 630.746094 C 602.972656 628.816406 604.945312 626.9375 606.964844 625.109375 C 608.984375 623.277344 611.050781 621.496094 613.15625 619.769531 C 615.261719 618.039062 617.410156 616.363281 619.601562 614.738281 C 621.789062 613.117188 624.015625 611.546875 626.28125 610.03125 C 628.550781 608.519531 630.851562 607.0625 633.1875 605.660156 C 635.527344 604.257812 637.898438 602.914062 640.300781 601.628906 C 642.707031 600.347656 645.140625 599.121094 647.601562 597.957031 C 650.066406 596.789062 652.558594 595.6875 655.074219 594.644531 C 657.59375 593.601562 660.136719 592.621094 662.703125 591.703125 C 665.269531 590.78125 667.855469 589.929688 670.464844 589.136719 C 673.070312 588.347656 675.699219 587.621094 678.339844 586.957031 C 680.984375 586.292969 683.644531 585.699219 686.316406 585.167969 C 688.992188 584.632812 691.675781 584.167969 694.371094 583.769531 C 697.066406 583.367188 699.769531 583.035156 702.484375 582.769531 C 705.195312 582.5 707.914062 582.300781 710.636719 582.167969 C 713.359375 582.03125 716.082031 581.964844 718.808594 581.964844 C 721.53125 581.964844 724.257812 582.03125 726.980469 582.167969 C 729.703125 582.300781 732.417969 582.5 735.132812 582.769531 C 737.84375 583.035156 740.546875 583.367188 743.242188 583.769531 C 745.941406 584.167969 748.625 584.632812 751.296875 585.167969 C 753.972656 585.699219 756.628906 586.292969 759.273438 586.957031 C 761.917969 587.621094 764.542969 588.347656 767.152344 589.136719 C 769.757812 589.929688 772.347656 590.78125 774.914062 591.703125 C 777.480469 592.621094 780.019531 593.601562 782.539062 594.644531 C 785.058594 595.6875 787.546875 596.789062 790.011719 597.957031 C 792.476562 599.121094 794.910156 600.347656 797.3125 601.628906 C 799.71875 602.914062 802.089844 604.257812 804.425781 605.660156 C 806.761719 607.0625 809.066406 608.519531 811.332031 610.03125 C 813.597656 611.546875 815.824219 613.117188 818.015625 614.738281 C 820.203125 616.363281 822.351562 618.039062 824.460938 619.769531 C 826.566406 621.496094 828.628906 623.277344 830.648438 625.109375 C 832.667969 626.9375 834.640625 628.816406 836.570312 630.746094 C 838.496094 632.671875 840.375 634.644531 842.203125 636.664062 C 844.035156 638.683594 845.816406 640.746094 847.542969 642.855469 C 849.273438 644.960938 850.949219 647.109375 852.574219 649.296875 C 854.195312 651.488281 855.765625 653.714844 857.28125 655.980469 C 858.792969 658.246094 860.25 660.550781 861.652344 662.886719 C 863.054688 665.226562 864.398438 667.59375 865.683594 670 C 866.96875 672.402344 868.191406 674.835938 869.355469 677.300781 C 870.523438 679.765625 871.625 682.253906 872.667969 684.773438 C 873.710938 687.292969 874.695312 689.832031 875.613281 692.398438 C 876.53125 694.964844 877.382812 697.554688 878.175781 700.160156 C 878.96875 702.769531 879.695312 705.394531 880.355469 708.039062 C 881.019531 710.683594 881.613281 713.34375 882.148438 716.015625 C 882.679688 718.6875 883.144531 721.371094 883.542969 724.070312 C 883.945312 726.765625 884.277344 729.46875 884.546875 732.183594 C 884.8125 734.894531 885.011719 737.613281 885.144531 740.332031 C 885.28125 743.054688 885.347656 745.78125 885.347656 748.503906 Z M 885.347656 748.503906 " fill-opacity="1" fill-rule="nonzero"/><g clip-path="url(#74653dcc11)"><path fill="#377813" d="M 718.808594 1359.148438 C 547.9375 1359.148438 486.539062 1316.792969 480.101562 1311.964844 C 473.105469 1306.746094 469 1298.5 469 1289.757812 L 469 1192.609375 C 469 1054.855469 581.078125 942.800781 718.808594 942.800781 C 856.5625 942.800781 968.617188 1054.855469 968.617188 1192.609375 L 968.617188 1289.757812 C 968.617188 1298.472656 964.507812 1306.71875 957.515625 1311.964844 C 951.101562 1316.792969 889.675781 1359.148438 718.808594 1359.148438 Z M 718.808594 1359.148438 " fill-opacity="1" fill-rule="nonzero"/></g><g clip-path="url(#eff0f74501)"><path fill="#377813" d="M 516.074219 964.949219 C 488.984375 856.339844 390.835938 775.511719 273.953125 775.511719 C 136.226562 775.511719 24.144531 887.566406 24.144531 1025.320312 L 24.144531 1122.46875 C 24.144531 1131.183594 28.253906 1139.429688 35.246094 1144.675781 C 41.6875 1149.503906 103.082031 1191.859375 273.953125 1191.859375 C 333.15625 1191.859375 378.957031 1186.726562 414.152344 1179.871094 C 417.675781 1094.519531 456.285156 1018.242188 516.074219 964.949219 Z M 516.074219 964.949219 " fill-opacity="1" fill-rule="nonzero"/></g><g clip-path="url(#75af3aa1d2)"><path fill="#377813" d="M 1162.164062 775.511719 C 1045.667969 775.511719 947.828125 855.785156 920.320312 963.839844 C 980.886719 1017.246094 1020.023438 1094.101562 1023.519531 1180.175781 C 1058.519531 1186.863281 1103.820312 1191.859375 1162.164062 1191.859375 C 1333.003906 1191.859375 1394.429688 1149.503906 1400.871094 1144.675781 C 1407.863281 1139.457031 1411.972656 1131.210938 1411.972656 1122.46875 L 1411.972656 1025.320312 C 1411.972656 887.566406 1299.917969 775.511719 1162.164062 775.511719 Z M 1162.164062 775.511719 " fill-opacity="1" fill-rule="nonzero"/></g><path fill="#377813" d="M 1329.453125 581.964844 C 1329.453125 584.691406 1329.386719 587.414062 1329.25 590.136719 C 1329.117188 592.859375 1328.917969 595.578125 1328.648438 598.289062 C 1328.382812 601.003906 1328.050781 603.707031 1327.648438 606.402344 C 1327.25 609.097656 1326.785156 611.78125 1326.25 614.457031 C 1325.71875 617.128906 1325.121094 619.789062 1324.460938 622.433594 C 1323.796875 625.074219 1323.070312 627.703125 1322.28125 630.308594 C 1321.488281 632.917969 1320.632812 635.503906 1319.714844 638.070312 C 1318.796875 640.636719 1317.816406 643.179688 1316.773438 645.699219 C 1315.730469 648.214844 1314.628906 650.707031 1313.460938 653.171875 C 1312.296875 655.632812 1311.070312 658.070312 1309.785156 660.472656 C 1308.503906 662.875 1307.160156 665.246094 1305.757812 667.585938 C 1304.355469 669.921875 1302.898438 672.222656 1301.382812 674.492188 C 1299.871094 676.757812 1298.300781 678.984375 1296.679688 681.171875 C 1295.054688 683.363281 1293.378906 685.511719 1291.648438 687.617188 C 1289.921875 689.722656 1288.140625 691.789062 1286.308594 693.808594 C 1284.480469 695.828125 1282.601562 697.800781 1280.671875 699.726562 C 1278.746094 701.65625 1276.773438 703.53125 1274.753906 705.363281 C 1272.734375 707.195312 1270.671875 708.972656 1268.5625 710.703125 C 1266.457031 712.433594 1264.308594 714.109375 1262.121094 715.730469 C 1259.929688 717.355469 1257.703125 718.925781 1255.4375 720.4375 C 1253.171875 721.953125 1250.867188 723.410156 1248.53125 724.8125 C 1246.191406 726.210938 1243.820312 727.554688 1241.417969 728.839844 C 1239.015625 730.125 1236.582031 731.351562 1234.117188 732.515625 C 1231.652344 733.679688 1229.164062 734.785156 1226.644531 735.828125 C 1224.125 736.871094 1221.582031 737.851562 1219.019531 738.769531 C 1216.453125 739.6875 1213.863281 740.542969 1211.257812 741.335938 C 1208.648438 742.125 1206.023438 742.851562 1203.378906 743.515625 C 1200.734375 744.175781 1198.074219 744.773438 1195.402344 745.304688 C 1192.730469 745.835938 1190.042969 746.304688 1187.347656 746.703125 C 1184.652344 747.101562 1181.949219 747.4375 1179.234375 747.703125 C 1176.523438 747.96875 1173.804688 748.171875 1171.085938 748.304688 C 1168.363281 748.4375 1165.636719 748.503906 1162.914062 748.503906 C 1160.1875 748.503906 1157.464844 748.4375 1154.742188 748.304688 C 1152.019531 748.171875 1149.300781 747.96875 1146.589844 747.703125 C 1143.875 747.4375 1141.171875 747.101562 1138.476562 746.703125 C 1135.78125 746.304688 1133.09375 745.835938 1130.421875 745.304688 C 1127.75 744.773438 1125.089844 744.175781 1122.445312 743.515625 C 1119.800781 742.851562 1117.175781 742.125 1114.570312 741.335938 C 1111.960938 740.542969 1109.375 739.6875 1106.808594 738.769531 C 1104.242188 737.851562 1101.699219 736.871094 1099.179688 735.828125 C 1096.664062 734.785156 1094.171875 733.679688 1091.707031 732.515625 C 1089.242188 731.351562 1086.808594 730.125 1084.40625 728.839844 C 1082.003906 727.554688 1079.632812 726.210938 1077.292969 724.8125 C 1074.957031 723.410156 1072.65625 721.953125 1070.386719 720.4375 C 1068.121094 718.925781 1065.894531 717.355469 1063.707031 715.730469 C 1061.515625 714.109375 1059.367188 712.433594 1057.261719 710.703125 C 1055.152344 708.972656 1053.089844 707.195312 1051.070312 705.363281 C 1049.050781 703.53125 1047.078125 701.65625 1045.152344 699.726562 C 1043.222656 697.800781 1041.34375 695.828125 1039.515625 693.808594 C 1037.683594 691.789062 1035.90625 689.722656 1034.175781 687.617188 C 1032.445312 685.511719 1030.769531 683.363281 1029.148438 681.171875 C 1027.523438 678.984375 1025.953125 676.757812 1024.441406 674.492188 C 1022.925781 672.222656 1021.46875 669.921875 1020.066406 667.585938 C 1018.664062 665.246094 1017.324219 662.875 1016.039062 660.472656 C 1014.753906 658.070312 1013.527344 655.632812 1012.363281 653.171875 C 1011.199219 650.707031 1010.09375 648.214844 1009.050781 645.699219 C 1008.007812 643.179688 1007.027344 640.636719 1006.109375 638.070312 C 1005.191406 635.503906 1004.335938 632.917969 1003.542969 630.308594 C 1002.753906 627.703125 1002.027344 625.074219 1001.363281 622.433594 C 1000.703125 619.789062 1000.105469 617.128906 999.574219 614.457031 C 999.042969 611.78125 998.574219 609.097656 998.175781 606.402344 C 997.777344 603.707031 997.441406 601.003906 997.175781 598.289062 C 996.90625 595.578125 996.707031 592.859375 996.574219 590.136719 C 996.441406 587.414062 996.375 584.691406 996.375 581.964844 C 996.375 579.242188 996.441406 576.515625 996.574219 573.792969 C 996.707031 571.070312 996.90625 568.355469 997.175781 565.640625 C 997.441406 562.929688 997.777344 560.226562 998.175781 557.53125 C 998.574219 554.832031 999.042969 552.148438 999.574219 549.476562 C 1000.105469 546.800781 1000.703125 544.144531 1001.363281 541.5 C 1002.027344 538.855469 1002.753906 536.230469 1003.542969 533.621094 C 1004.335938 531.015625 1005.191406 528.425781 1006.109375 525.859375 C 1007.027344 523.292969 1008.007812 520.753906 1009.050781 518.234375 C 1010.09375 515.714844 1011.199219 513.226562 1012.363281 510.761719 C 1013.527344 508.296875 1014.753906 505.863281 1016.039062 503.460938 C 1017.324219 501.054688 1018.664062 498.683594 1020.066406 496.347656 C 1021.46875 494.011719 1022.925781 491.707031 1024.441406 489.441406 C 1025.953125 487.175781 1027.523438 484.949219 1029.148438 482.757812 C 1030.769531 480.570312 1032.445312 478.421875 1034.175781 476.316406 C 1035.90625 474.207031 1037.683594 472.144531 1039.515625 470.125 C 1041.34375 468.105469 1043.222656 466.132812 1045.152344 464.203125 C 1047.078125 462.277344 1049.050781 460.398438 1051.070312 458.570312 C 1053.089844 456.738281 1055.152344 454.957031 1057.261719 453.230469 C 1059.367188 451.5 1061.515625 449.824219 1063.703125 448.199219 C 1065.894531 446.578125 1068.121094 445.007812 1070.386719 443.492188 C 1072.65625 441.980469 1074.957031 440.523438 1077.292969 439.121094 C 1079.632812 437.71875 1082.003906 436.375 1084.40625 435.089844 C 1086.808594 433.804688 1089.242188 432.582031 1091.707031 431.417969 C 1094.171875 430.25 1096.664062 429.148438 1099.179688 428.105469 C 1101.699219 427.0625 1104.242188 426.078125 1106.808594 425.160156 C 1109.375 424.242188 1111.960938 423.390625 1114.570312 422.597656 C 1117.175781 421.804688 1119.800781 421.078125 1122.445312 420.417969 C 1125.089844 419.753906 1127.75 419.160156 1130.421875 418.625 C 1133.09375 418.09375 1135.78125 417.628906 1138.476562 417.230469 C 1141.171875 416.828125 1143.875 416.496094 1146.589844 416.230469 C 1149.300781 415.960938 1152.019531 415.761719 1154.742188 415.628906 C 1157.464844 415.492188 1160.1875 415.425781 1162.914062 415.425781 C 1165.636719 415.425781 1168.363281 415.492188 1171.085938 415.628906 C 1173.804688 415.761719 1176.523438 415.960938 1179.234375 416.230469 C 1181.949219 416.496094 1184.652344 416.828125 1187.347656 417.230469 C 1190.042969 417.628906 1192.730469 418.09375 1195.402344 418.625 C 1198.074219 419.160156 1200.734375 419.753906 1203.378906 420.417969 C 1206.023438 421.078125 1208.648438 421.808594 1211.257812 422.597656 C 1213.863281 423.390625 1216.453125 424.242188 1219.019531 425.160156 C 1221.582031 426.078125 1224.125 427.0625 1226.644531 428.105469 C 1229.164062 429.148438 1231.652344 430.25 1234.117188 431.417969 C 1236.582031 432.582031 1239.015625 433.804688 1241.417969 435.089844 C 1243.820312 436.375 1246.191406 437.71875 1248.53125 439.121094 C 1250.867188 440.523438 1253.171875 441.980469 1255.4375 443.492188 C 1257.703125 445.007812 1259.929688 446.578125 1262.121094 448.199219 C 1264.308594 449.824219 1266.457031 451.5 1268.5625 453.230469 C 1270.671875 454.957031 1272.734375 456.738281 1274.753906 458.570312 C 1276.773438 460.398438 1278.746094 462.277344 1280.671875 464.203125 C 1282.601562 466.132812 1284.480469 468.105469 1286.308594 470.125 C 1288.140625 472.144531 1289.917969 474.207031 1291.648438 476.316406 C 1293.378906 478.421875 1295.054688 480.570312 1296.679688 482.757812 C 1298.300781 484.949219 1299.871094 487.175781 1301.382812 489.441406 C 1302.898438 491.707031 1304.355469 494.011719 1305.757812 496.347656 C 1307.160156 498.683594 1308.503906 501.054688 1309.785156 503.460938 C 1311.070312 505.863281 1312.296875 508.296875 1313.460938 510.761719 C 1314.628906 513.226562 1315.730469 515.714844 1316.773438 518.234375 C 1317.816406 520.753906 1318.796875 523.292969 1319.714844 525.859375 C 1320.632812 528.425781 1321.488281 531.015625 1322.28125 533.621094 C 1323.070312 536.230469 1323.796875 538.855469 1324.460938 541.5 C 1325.121094 544.144531 1325.71875 546.800781 1326.25 549.476562 C 1326.785156 552.148438 1327.25 554.832031 1327.648438 557.53125 C 1328.050781 560.226562 1328.382812 562.929688 1328.648438 565.640625 C 1328.917969 568.355469 1329.117188 571.070312 1329.25 573.792969 C 1329.386719 576.515625 1329.453125 579.242188 1329.453125 581.964844 Z M 1329.453125 581.964844 " fill-opacity="1" fill-rule="nonzero"/><path fill="#377813" d="M 441.242188 581.964844 C 441.242188 584.691406 441.175781 587.414062 441.042969 590.136719 C 440.90625 592.859375 440.707031 595.578125 440.441406 598.289062 C 440.171875 601.003906 439.839844 603.707031 439.4375 606.402344 C 439.039062 609.097656 438.574219 611.78125 438.042969 614.457031 C 437.511719 617.128906 436.914062 619.789062 436.25 622.433594 C 435.589844 625.074219 434.863281 627.703125 434.070312 630.308594 C 433.28125 632.917969 432.425781 635.503906 431.507812 638.070312 C 430.589844 640.636719 429.609375 643.179688 428.566406 645.699219 C 427.523438 648.214844 426.417969 650.707031 425.253906 653.171875 C 424.085938 655.632812 422.863281 658.070312 421.578125 660.472656 C 420.292969 662.875 418.949219 665.246094 417.546875 667.585938 C 416.148438 669.921875 414.6875 672.222656 413.175781 674.492188 C 411.660156 676.757812 410.089844 678.984375 408.46875 681.171875 C 406.84375 683.363281 405.167969 685.511719 403.4375 687.617188 C 401.710938 689.722656 399.929688 691.789062 398.101562 693.808594 C 396.269531 695.828125 394.390625 697.800781 392.464844 699.726562 C 390.535156 701.65625 388.5625 703.53125 386.542969 705.363281 C 384.523438 707.195312 382.460938 708.972656 380.355469 710.703125 C 378.246094 712.433594 376.097656 714.109375 373.910156 715.730469 C 371.722656 717.355469 369.492188 718.925781 367.226562 720.4375 C 364.960938 721.953125 362.660156 723.410156 360.320312 724.8125 C 357.984375 726.210938 355.613281 727.554688 353.207031 728.839844 C 350.804688 730.125 348.371094 731.351562 345.90625 732.515625 C 343.445312 733.679688 340.953125 734.785156 338.433594 735.828125 C 335.917969 736.871094 333.375 737.851562 330.808594 738.769531 C 328.242188 739.6875 325.65625 740.542969 323.046875 741.335938 C 320.4375 742.125 317.8125 742.851562 315.167969 743.515625 C 312.523438 744.175781 309.867188 744.773438 307.191406 745.304688 C 304.519531 745.835938 301.835938 746.304688 299.140625 746.703125 C 296.441406 747.101562 293.738281 747.4375 291.027344 747.703125 C 288.3125 747.96875 285.597656 748.171875 282.875 748.304688 C 280.152344 748.4375 277.429688 748.503906 274.703125 748.503906 C 271.976562 748.503906 269.253906 748.4375 266.53125 748.304688 C 263.808594 748.171875 261.089844 747.96875 258.378906 747.703125 C 255.667969 747.4375 252.960938 747.101562 250.265625 746.703125 C 247.570312 746.304688 244.886719 745.835938 242.210938 745.304688 C 239.539062 744.773438 236.878906 744.175781 234.238281 743.515625 C 231.59375 742.851562 228.96875 742.125 226.359375 741.335938 C 223.75 740.542969 221.164062 739.6875 218.597656 738.769531 C 216.03125 737.851562 213.488281 736.871094 210.96875 735.828125 C 208.453125 734.785156 205.960938 733.679688 203.496094 732.515625 C 201.035156 731.351562 198.601562 730.125 196.195312 728.839844 C 193.792969 727.554688 191.421875 726.210938 189.085938 724.8125 C 186.746094 723.410156 184.445312 721.953125 182.179688 720.4375 C 179.910156 718.925781 177.683594 717.355469 175.496094 715.730469 C 173.304688 714.109375 171.15625 712.433594 169.050781 710.703125 C 166.945312 708.972656 164.882812 707.195312 162.863281 705.363281 C 160.84375 703.53125 158.867188 701.65625 156.941406 699.726562 C 155.015625 697.800781 153.136719 695.828125 151.304688 693.808594 C 149.476562 691.789062 147.695312 689.722656 145.964844 687.617188 C 144.238281 685.511719 142.558594 683.363281 140.9375 681.171875 C 139.3125 678.984375 137.746094 676.757812 136.230469 674.492188 C 134.714844 672.222656 133.257812 669.921875 131.855469 667.585938 C 130.457031 665.246094 129.113281 662.875 127.828125 660.472656 C 126.542969 658.070312 125.316406 655.632812 124.152344 653.171875 C 122.988281 650.707031 121.882812 648.214844 120.839844 645.699219 C 119.796875 643.179688 118.816406 640.636719 117.898438 638.070312 C 116.980469 635.503906 116.125 632.917969 115.335938 630.308594 C 114.542969 627.703125 113.816406 625.074219 113.152344 622.433594 C 112.492188 619.789062 111.894531 617.128906 111.363281 614.457031 C 110.832031 611.78125 110.367188 609.097656 109.964844 606.402344 C 109.566406 603.707031 109.230469 601.003906 108.964844 598.289062 C 108.699219 595.578125 108.496094 592.859375 108.363281 590.136719 C 108.230469 587.414062 108.164062 584.691406 108.164062 581.964844 C 108.164062 579.242188 108.230469 576.515625 108.363281 573.792969 C 108.496094 571.070312 108.699219 568.355469 108.964844 565.640625 C 109.230469 562.929688 109.566406 560.226562 109.964844 557.53125 C 110.367188 554.832031 110.832031 552.148438 111.363281 549.476562 C 111.894531 546.800781 112.492188 544.144531 113.152344 541.5 C 113.816406 538.855469 114.542969 536.230469 115.335938 533.621094 C 116.125 531.015625 116.980469 528.425781 117.898438 525.859375 C 118.816406 523.292969 119.796875 520.753906 120.839844 518.234375 C 121.882812 515.714844 122.988281 513.226562 124.152344 510.761719 C 125.316406 508.296875 126.542969 505.863281 127.828125 503.460938 C 129.113281 501.054688 130.457031 498.683594 131.855469 496.347656 C 133.257812 494.011719 134.714844 491.707031 136.230469 489.441406 C 137.746094 487.175781 139.3125 484.949219 140.9375 482.757812 C 142.558594 480.570312 144.238281 478.421875 145.964844 476.316406 C 147.695312 474.207031 149.476562 472.144531 151.304688 470.125 C 153.136719 468.105469 155.015625 466.132812 156.941406 464.203125 C 158.867188 462.277344 160.84375 460.398438 162.863281 458.570312 C 164.882812 456.738281 166.945312 454.957031 169.050781 453.230469 C 171.15625 451.5 173.304688 449.824219 175.496094 448.199219 C 177.683594 446.578125 179.910156 445.007812 182.179688 443.492188 C 184.445312 441.980469 186.746094 440.523438 189.085938 439.121094 C 191.421875 437.71875 193.792969 436.375 196.195312 435.089844 C 198.601562 433.804688 201.035156 432.582031 203.496094 431.417969 C 205.960938 430.25 208.453125 429.148438 210.96875 428.105469 C 213.488281 427.0625 216.03125 426.078125 218.597656 425.160156 C 221.164062 424.242188 223.75 423.390625 226.359375 422.597656 C 228.96875 421.804688 231.59375 421.078125 234.238281 420.417969 C 236.878906 419.753906 239.539062 419.160156 242.210938 418.625 C 244.886719 418.09375 247.570312 417.628906 250.265625 417.230469 C 252.960938 416.828125 255.667969 416.496094 258.378906 416.230469 C 261.089844 415.960938 263.808594 415.761719 266.53125 415.628906 C 269.253906 415.492188 271.976562 415.425781 274.703125 415.425781 C 277.429688 415.425781 280.152344 415.492188 282.875 415.628906 C 285.597656 415.761719 288.3125 415.960938 291.027344 416.230469 C 293.738281 416.496094 296.441406 416.828125 299.140625 417.230469 C 301.835938 417.628906 304.519531 418.09375 307.191406 418.625 C 309.867188 419.160156 312.523438 419.753906 315.167969 420.417969 C 317.8125 421.078125 320.4375 421.808594 323.046875 422.597656 C 325.65625 423.390625 328.242188 424.242188 330.808594 425.160156 C 333.375 426.078125 335.917969 427.0625 338.433594 428.105469 C 340.953125 429.148438 343.445312 430.25 345.90625 431.417969 C 348.371094 432.582031 350.804688 433.804688 353.207031 435.089844 C 355.613281 436.375 357.984375 437.71875 360.320312 439.121094 C 362.660156 440.523438 364.960938 441.980469 367.226562 443.492188 C 369.492188 445.007812 371.722656 446.578125 373.910156 448.199219 C 376.097656 449.824219 378.246094 451.5 380.355469 453.230469 C 382.460938 454.957031 384.523438 456.738281 386.542969 458.570312 C 388.5625 460.398438 390.535156 462.277344 392.464844 464.203125 C 394.390625 466.132812 396.269531 468.105469 398.101562 470.125 C 399.929688 472.144531 401.710938 474.207031 403.4375 476.316406 C 405.167969 478.421875 406.84375 480.570312 408.46875 482.757812 C 410.09375 484.949219 411.660156 487.175781 413.175781 489.441406 C 414.6875 491.707031 416.148438 494.011719 417.546875 496.347656 C 418.949219 498.683594 420.292969 501.054688 421.578125 503.460938 C 422.863281 505.863281 424.085938 508.296875 425.253906 510.761719 C 426.417969 513.226562 427.523438 515.714844 428.566406 518.234375 C 429.609375 520.753906 430.589844 523.292969 431.507812 525.859375 C 432.425781 528.425781 433.28125 531.015625 434.070312 533.621094 C 434.863281 536.230469 435.589844 538.855469 436.25 541.5 C 436.914062 544.144531 437.511719 546.800781 438.042969 549.476562 C 438.574219 552.148438 439.039062 554.832031 439.4375 557.53125 C 439.839844 560.226562 440.171875 562.929688 440.441406 565.640625 C 440.707031 568.355469 440.90625 571.070312 441.042969 573.792969 C 441.175781 576.515625 441.242188 579.242188 441.242188 581.964844 Z M 441.242188 581.964844 " fill-opacity="1" fill-rule="nonzero"/><path fill="#377813" d="M 940.859375 748.503906 C 940.859375 779.621094 934.394531 809.238281 922.789062 836.105469 C 949.851562 801.824219 984.019531 773.902344 1022.714844 753.945312 C 972.808594 713.199219 940.886719 651.246094 940.886719 581.964844 C 940.886719 512.269531 973.222656 450.066406 1023.601562 409.320312 C 997.066406 395.164062 967.117188 386.921875 934.558594 386.921875 C 844.65625 386.921875 770.40625 446.429688 747.757812 528.5625 C 856.507812 542.828125 940.859375 635.898438 940.859375 748.503906 Z M 940.859375 748.503906 " fill-opacity="1" fill-rule="nonzero"/><path fill="#377813" d="M 496.753906 581.964844 C 496.753906 651.496094 464.558594 713.644531 414.347656 754.390625 C 454.757812 775.375 490.066406 805.15625 517.542969 841.710938 C 504.332031 813.34375 496.753906 781.8125 496.753906 748.503906 C 496.753906 638.230469 577.636719 546.742188 683.113281 529.589844 C 660.824219 446.929688 586.296875 386.921875 496.003906 386.921875 C 465.140625 386.921875 436.523438 394.25 411.015625 407.070312 C 463.085938 447.734375 496.753906 510.9375 496.753906 581.964844 Z M 496.753906 581.964844 " fill-opacity="1" fill-rule="nonzero"/><g fill="#377813" fill-opacity="1"><g transform="translate(710.323696, 1077.955782)"><g><path d="M 2.421875 0.125 C 1.785156 0.125 1.304688 -0.0390625 0.984375 -0.375 C 0.671875 -0.71875 0.515625 -1.179688 0.515625 -1.765625 C 0.515625 -2.421875 0.726562 -2.925781 1.15625 -3.28125 C 1.59375 -3.632812 2.289062 -3.820312 3.25 -3.84375 L 4.671875 -3.875 L 4.671875 -4.21875 C 4.671875 -4.726562 4.5625 -5.09375 4.34375 -5.3125 C 4.125 -5.539062 3.78125 -5.65625 3.3125 -5.65625 C 2.84375 -5.65625 2.5 -5.570312 2.28125 -5.40625 C 2.0625 -5.25 1.929688 -4.992188 1.890625 -4.640625 L 0.796875 -4.75 C 0.972656 -5.882812 1.816406 -6.453125 3.328125 -6.453125 C 4.128906 -6.453125 4.726562 -6.269531 5.125 -5.90625 C 5.53125 -5.539062 5.734375 -5.015625 5.734375 -4.328125 L 5.734375 -1.59375 C 5.734375 -1.28125 5.773438 -1.046875 5.859375 -0.890625 C 5.941406 -0.734375 6.097656 -0.65625 6.328125 -0.65625 C 6.429688 -0.65625 6.546875 -0.664062 6.671875 -0.6875 L 6.671875 -0.03125 C 6.410156 0.03125 6.140625 0.0625 5.859375 0.0625 C 5.472656 0.0625 5.1875 -0.0390625 5 -0.25 C 4.820312 -0.457031 4.722656 -0.78125 4.703125 -1.21875 L 4.671875 -1.21875 C 4.398438 -0.726562 4.082031 -0.378906 3.71875 -0.171875 C 3.363281 0.0234375 2.929688 0.125 2.421875 0.125 Z M 2.671875 -0.671875 C 3.054688 -0.671875 3.398438 -0.757812 3.703125 -0.9375 C 4.003906 -1.113281 4.238281 -1.351562 4.40625 -1.65625 C 4.582031 -1.96875 4.671875 -2.285156 4.671875 -2.609375 L 4.671875 -3.125 L 3.515625 -3.109375 C 3.015625 -3.097656 2.632812 -3.046875 2.375 -2.953125 C 2.125 -2.859375 1.929688 -2.710938 1.796875 -2.515625 C 1.660156 -2.328125 1.59375 -2.070312 1.59375 -1.75 C 1.59375 -1.40625 1.6875 -1.140625 1.875 -0.953125 C 2.0625 -0.765625 2.328125 -0.671875 2.671875 -0.671875 Z M 2.671875 -0.671875 "/></g></g><g transform="translate(716.997524, 1077.955782)"><g><path d="M 5.5625 -1.75 C 5.5625 -1.15625 5.335938 -0.691406 4.890625 -0.359375 C 4.441406 -0.0351562 3.8125 0.125 3 0.125 C 2.207031 0.125 1.597656 -0.00390625 1.171875 -0.265625 C 0.742188 -0.523438 0.460938 -0.929688 0.328125 -1.484375 L 1.265625 -1.671875 C 1.359375 -1.328125 1.546875 -1.078125 1.828125 -0.921875 C 2.109375 -0.765625 2.5 -0.6875 3 -0.6875 C 3.53125 -0.6875 3.921875 -0.765625 4.171875 -0.921875 C 4.421875 -1.085938 4.546875 -1.335938 4.546875 -1.671875 C 4.546875 -1.921875 4.457031 -2.125 4.28125 -2.28125 C 4.113281 -2.4375 3.835938 -2.566406 3.453125 -2.671875 L 2.703125 -2.859375 C 2.085938 -3.015625 1.648438 -3.164062 1.390625 -3.3125 C 1.140625 -3.46875 0.941406 -3.65625 0.796875 -3.875 C 0.660156 -4.09375 0.59375 -4.359375 0.59375 -4.671875 C 0.59375 -5.242188 0.796875 -5.679688 1.203125 -5.984375 C 1.617188 -6.285156 2.21875 -6.4375 3 -6.4375 C 3.707031 -6.4375 4.265625 -6.3125 4.671875 -6.0625 C 5.085938 -5.820312 5.347656 -5.429688 5.453125 -4.890625 L 4.5 -4.765625 C 4.445312 -5.046875 4.289062 -5.257812 4.03125 -5.40625 C 3.78125 -5.5625 3.4375 -5.640625 3 -5.640625 C 2.53125 -5.640625 2.179688 -5.566406 1.953125 -5.421875 C 1.722656 -5.273438 1.609375 -5.054688 1.609375 -4.765625 C 1.609375 -4.585938 1.65625 -4.441406 1.75 -4.328125 C 1.84375 -4.210938 1.976562 -4.113281 2.15625 -4.03125 C 2.34375 -3.945312 2.734375 -3.832031 3.328125 -3.6875 C 3.890625 -3.539062 4.289062 -3.410156 4.53125 -3.296875 C 4.78125 -3.179688 4.972656 -3.050781 5.109375 -2.90625 C 5.253906 -2.757812 5.363281 -2.585938 5.4375 -2.390625 C 5.519531 -2.203125 5.5625 -1.988281 5.5625 -1.75 Z M 5.5625 -1.75 "/></g></g><g transform="translate(722.997523, 1077.955782)"><g><path d="M 4.8125 -1.015625 C 4.613281 -0.609375 4.351562 -0.316406 4.03125 -0.140625 C 3.707031 0.0351562 3.3125 0.125 2.84375 0.125 C 2.039062 0.125 1.445312 -0.144531 1.0625 -0.6875 C 0.6875 -1.226562 0.5 -2.046875 0.5 -3.140625 C 0.5 -5.347656 1.28125 -6.453125 2.84375 -6.453125 C 3.320312 -6.453125 3.71875 -6.363281 4.03125 -6.1875 C 4.351562 -6.019531 4.613281 -5.742188 4.8125 -5.359375 L 4.828125 -5.359375 L 4.8125 -6.0625 L 4.8125 -8.703125 L 5.859375 -8.703125 L 5.859375 -1.3125 C 5.859375 -0.644531 5.875 -0.207031 5.90625 0 L 4.890625 0 C 4.878906 -0.0625 4.863281 -0.207031 4.84375 -0.4375 C 4.832031 -0.664062 4.828125 -0.859375 4.828125 -1.015625 Z M 1.609375 -3.171875 C 1.609375 -2.285156 1.722656 -1.648438 1.953125 -1.265625 C 2.191406 -0.890625 2.578125 -0.703125 3.109375 -0.703125 C 3.703125 -0.703125 4.132812 -0.90625 4.40625 -1.3125 C 4.675781 -1.726562 4.8125 -2.375 4.8125 -3.25 C 4.8125 -4.082031 4.675781 -4.691406 4.40625 -5.078125 C 4.132812 -5.472656 3.707031 -5.671875 3.125 -5.671875 C 2.59375 -5.671875 2.207031 -5.472656 1.96875 -5.078125 C 1.726562 -4.691406 1.609375 -4.054688 1.609375 -3.171875 Z M 1.609375 -3.171875 "/></g></g></g></svg>