<svg xmlns="http://www.w3.org/2000/svg" xmlns:xlink="http://www.w3.org/1999/xlink" width="1920" zoomAndPan="magnify" viewBox="0 0 1440 1439.999935" height="1920" preserveAspectRatio="xMidYMid meet" version="1.0"><defs><g/></defs><path fill="#377813" d="M 1339.445312 849.617188 L 1229.488281 659.171875 C 1226.925781 654.730469 1222.917969 651.292969 1218.136719 649.433594 L 985.980469 559.167969 C 993.207031 534.777344 997.105469 508.976562 997.105469 482.277344 C 997.105469 332.800781 875.5 211.195312 726.027344 211.195312 C 576.550781 211.195312 454.945312 332.800781 454.945312 482.277344 C 454.945312 508.976562 458.847656 534.777344 466.070312 559.167969 L 233.914062 649.433594 C 229.132812 651.292969 225.125 654.730469 222.5625 659.171875 L 112.605469 849.617188 C 109.316406 855.3125 108.679688 862.160156 110.863281 868.367188 C 113.046875 874.570312 117.828125 879.515625 123.957031 881.898438 L 219.539062 919.0625 L 219.539062 1229.253906 C 219.539062 1238.550781 225.246094 1246.894531 233.914062 1250.265625 L 717.851562 1438.433594 C 720.480469 1439.457031 723.25 1439.96875 726.019531 1439.96875 C 728.789062 1439.96875 731.5625 1439.457031 734.1875 1438.433594 L 1218.128906 1250.265625 C 1226.796875 1246.894531 1232.503906 1238.550781 1232.503906 1229.253906 L 1232.503906 919.0625 L 1328.085938 881.898438 C 1334.214844 879.515625 1339 874.570312 1341.179688 868.367188 C 1343.367188 862.160156 1342.730469 855.3125 1339.445312 849.617188 Z M 726.027344 256.28125 C 850.640625 256.28125 952.019531 357.664062 952.019531 482.277344 C 952.019531 606.890625 850.636719 708.269531 726.027344 708.269531 C 601.414062 708.269531 500.03125 606.890625 500.03125 482.277344 C 500.03125 357.660156 601.410156 256.28125 726.027344 256.28125 Z M 726.027344 753.355469 C 833.4375 753.355469 926.457031 690.558594 970.304688 599.75 L 1148.210938 670.269531 L 726.027344 834.429688 L 303.835938 670.269531 L 481.746094 599.75 C 525.589844 690.558594 618.613281 753.355469 726.027344 753.355469 Z M 164.792969 849.398438 L 251.9375 698.460938 L 693.359375 870.101562 L 606.214844 1021.042969 Z M 264.628906 936.59375 L 607.902344 1070.070312 C 618.269531 1074.097656 630.03125 1069.964844 635.59375 1060.332031 L 703.484375 942.746094 L 703.484375 1384.472656 L 264.628906 1213.832031 Z M 1187.425781 1213.832031 L 748.570312 1384.472656 L 748.570312 942.746094 L 816.457031 1060.332031 C 822.023438 1069.964844 833.78125 1074.101562 844.148438 1070.070312 L 1187.425781 936.59375 Z M 845.835938 1021.042969 L 758.6875 870.101562 L 1200.113281 698.464844 L 1287.257812 849.398438 Z M 669.9375 628.710938 C 685.542969 628.707031 700.226562 622.617188 711.289062 611.558594 L 887.023438 435.824219 C 909.855469 412.988281 909.855469 375.832031 887.019531 352.992188 C 875.960938 341.929688 861.25 335.839844 845.609375 335.839844 C 829.964844 335.839844 815.257812 341.929688 804.195312 352.992188 L 674.835938 482.351562 L 640.3125 438.910156 C 629.148438 424.863281 612.445312 416.808594 594.492188 416.808594 C 581.34375 416.808594 568.421875 421.320312 558.109375 429.515625 C 532.859375 449.59375 528.652344 486.46875 548.71875 511.714844 L 622.273438 604.273438 C 633.269531 619.59375 651.027344 628.710938 669.9375 628.710938 Z M 586.160156 464.808594 C 589.191406 462.402344 592.363281 461.894531 594.492188 461.894531 C 598.617188 461.894531 602.453125 463.742188 605.011719 466.960938 L 655.253906 530.1875 C 659.253906 535.21875 665.203125 538.304688 671.621094 538.667969 C 678.019531 539.027344 684.300781 536.644531 688.84375 532.105469 L 836.070312 384.878906 C 838.613281 382.332031 842 380.929688 845.605469 380.929688 C 849.210938 380.929688 852.589844 382.332031 855.136719 384.875 C 860.394531 390.136719 860.394531 398.695312 855.136719 403.953125 L 679.40625 579.683594 C 676.144531 582.945312 672.453125 583.628906 669.929688 583.628906 C 665.417969 583.628906 661.359375 581.519531 658.785156 577.832031 C 658.519531 577.449219 658.242188 577.078125 657.953125 576.710938 L 584.011719 483.664062 C 579.410156 477.871094 580.371094 469.410156 586.160156 464.808594 Z M 703.484375 128.160156 L 703.484375 22.574219 C 703.484375 10.125 713.574219 0.03125 726.027344 0.03125 C 738.476562 0.03125 748.570312 10.125 748.570312 22.574219 L 748.570312 128.160156 C 748.570312 140.609375 738.476562 150.703125 726.027344 150.703125 C 713.574219 150.703125 703.484375 140.609375 703.484375 128.160156 Z M 475.859375 92.46875 C 469.632812 81.6875 473.328125 67.898438 484.113281 61.675781 C 494.890625 55.453125 508.679688 59.144531 514.90625 69.925781 L 567.695312 161.363281 C 573.917969 172.144531 570.226562 185.929688 559.445312 192.15625 C 555.894531 194.203125 552.015625 195.179688 548.191406 195.179688 C 540.402344 195.179688 532.828125 191.136719 528.648438 183.90625 Z M 305.425781 236.015625 C 311.648438 225.230469 325.4375 221.539062 336.21875 227.765625 L 427.65625 280.554688 C 438.4375 286.78125 442.128906 300.566406 435.90625 311.347656 C 431.730469 318.578125 424.152344 322.625 416.359375 322.625 C 412.539062 322.625 408.664062 321.652344 405.113281 319.601562 L 313.675781 266.8125 C 302.894531 260.585938 299.199219 246.796875 305.425781 236.015625 Z M 237.851562 476.339844 C 237.851562 463.890625 247.941406 453.796875 260.394531 453.796875 L 365.976562 453.796875 C 378.425781 453.796875 388.519531 463.890625 388.519531 476.339844 C 388.519531 488.789062 378.425781 498.882812 365.976562 498.882812 L 260.394531 498.882812 C 247.941406 498.882812 237.851562 488.792969 237.851562 476.339844 Z M 882.765625 167.292969 L 935.558594 75.855469 C 941.78125 65.070312 955.570312 61.375 966.351562 67.605469 C 977.132812 73.832031 980.828125 87.617188 974.605469 98.398438 L 921.8125 189.835938 C 917.632812 197.066406 910.058594 201.113281 902.265625 201.113281 C 898.441406 201.113281 894.566406 200.136719 891.015625 198.089844 C 880.238281 191.867188 876.542969 178.078125 882.765625 167.292969 Z M 1010.214844 321.625 C 1003.988281 310.84375 1007.683594 297.054688 1018.464844 290.832031 L 1109.902344 238.042969 C 1120.683594 231.820312 1134.472656 235.515625 1140.695312 246.292969 C 1146.921875 257.074219 1143.226562 270.863281 1132.445312 277.085938 L 1041.007812 329.875 C 1037.457031 331.925781 1033.582031 332.898438 1029.757812 332.898438 C 1021.964844 332.898438 1014.386719 328.855469 1010.214844 321.625 Z M 1074.210938 465.664062 L 1179.792969 465.664062 C 1192.242188 465.664062 1202.335938 475.753906 1202.335938 488.207031 C 1202.335938 500.65625 1192.242188 510.75 1179.792969 510.75 L 1074.210938 510.75 C 1061.757812 510.75 1051.667969 500.65625 1051.667969 488.207031 C 1051.667969 475.757812 1061.761719 465.664062 1074.210938 465.664062 Z M 1074.210938 465.664062 " fill-opacity="1" fill-rule="nonzero"/><g fill="#377813" fill-opacity="1"><g transform="translate(716.353253, 1402.49693)"><g><path d="M 2.421875 0.125 C 1.785156 0.125 1.304688 -0.0390625 0.984375 -0.375 C 0.671875 -0.71875 0.515625 -1.179688 0.515625 -1.765625 C 0.515625 -2.421875 0.726562 -2.925781 1.15625 -3.28125 C 1.59375 -3.632812 2.289062 -3.820312 3.25 -3.84375 L 4.671875 -3.875 L 4.671875 -4.21875 C 4.671875 -4.726562 4.5625 -5.09375 4.34375 -5.3125 C 4.125 -5.539062 3.78125 -5.65625 3.3125 -5.65625 C 2.84375 -5.65625 2.5 -5.570312 2.28125 -5.40625 C 2.0625 -5.25 1.929688 -4.992188 1.890625 -4.640625 L 0.796875 -4.75 C 0.972656 -5.882812 1.816406 -6.453125 3.328125 -6.453125 C 4.128906 -6.453125 4.726562 -6.269531 5.125 -5.90625 C 5.53125 -5.539062 5.734375 -5.015625 5.734375 -4.328125 L 5.734375 -1.59375 C 5.734375 -1.28125 5.773438 -1.046875 5.859375 -0.890625 C 5.941406 -0.734375 6.097656 -0.65625 6.328125 -0.65625 C 6.429688 -0.65625 6.546875 -0.664062 6.671875 -0.6875 L 6.671875 -0.03125 C 6.410156 0.03125 6.140625 0.0625 5.859375 0.0625 C 5.472656 0.0625 5.1875 -0.0390625 5 -0.25 C 4.820312 -0.457031 4.722656 -0.78125 4.703125 -1.21875 L 4.671875 -1.21875 C 4.398438 -0.726562 4.082031 -0.378906 3.71875 -0.171875 C 3.363281 0.0234375 2.929688 0.125 2.421875 0.125 Z M 2.671875 -0.671875 C 3.054688 -0.671875 3.398438 -0.757812 3.703125 -0.9375 C 4.003906 -1.113281 4.238281 -1.351562 4.40625 -1.65625 C 4.582031 -1.96875 4.671875 -2.285156 4.671875 -2.609375 L 4.671875 -3.125 L 3.515625 -3.109375 C 3.015625 -3.097656 2.632812 -3.046875 2.375 -2.953125 C 2.125 -2.859375 1.929688 -2.710938 1.796875 -2.515625 C 1.660156 -2.328125 1.59375 -2.070312 1.59375 -1.75 C 1.59375 -1.40625 1.6875 -1.140625 1.875 -0.953125 C 2.0625 -0.765625 2.328125 -0.671875 2.671875 -0.671875 Z M 2.671875 -0.671875 "/></g></g><g transform="translate(723.02708, 1402.49693)"><g><path d="M 5.5625 -1.75 C 5.5625 -1.15625 5.335938 -0.691406 4.890625 -0.359375 C 4.441406 -0.0351562 3.8125 0.125 3 0.125 C 2.207031 0.125 1.597656 -0.00390625 1.171875 -0.265625 C 0.742188 -0.523438 0.460938 -0.929688 0.328125 -1.484375 L 1.265625 -1.671875 C 1.359375 -1.328125 1.546875 -1.078125 1.828125 -0.921875 C 2.109375 -0.765625 2.5 -0.6875 3 -0.6875 C 3.53125 -0.6875 3.921875 -0.765625 4.171875 -0.921875 C 4.421875 -1.085938 4.546875 -1.335938 4.546875 -1.671875 C 4.546875 -1.921875 4.457031 -2.125 4.28125 -2.28125 C 4.113281 -2.4375 3.835938 -2.566406 3.453125 -2.671875 L 2.703125 -2.859375 C 2.085938 -3.015625 1.648438 -3.164062 1.390625 -3.3125 C 1.140625 -3.46875 0.941406 -3.65625 0.796875 -3.875 C 0.660156 -4.09375 0.59375 -4.359375 0.59375 -4.671875 C 0.59375 -5.242188 0.796875 -5.679688 1.203125 -5.984375 C 1.617188 -6.285156 2.21875 -6.4375 3 -6.4375 C 3.707031 -6.4375 4.265625 -6.3125 4.671875 -6.0625 C 5.085938 -5.820312 5.347656 -5.429688 5.453125 -4.890625 L 4.5 -4.765625 C 4.445312 -5.046875 4.289062 -5.257812 4.03125 -5.40625 C 3.78125 -5.5625 3.4375 -5.640625 3 -5.640625 C 2.53125 -5.640625 2.179688 -5.566406 1.953125 -5.421875 C 1.722656 -5.273438 1.609375 -5.054688 1.609375 -4.765625 C 1.609375 -4.585938 1.65625 -4.441406 1.75 -4.328125 C 1.84375 -4.210938 1.976562 -4.113281 2.15625 -4.03125 C 2.34375 -3.945312 2.734375 -3.832031 3.328125 -3.6875 C 3.890625 -3.539062 4.289062 -3.410156 4.53125 -3.296875 C 4.78125 -3.179688 4.972656 -3.050781 5.109375 -2.90625 C 5.253906 -2.757812 5.363281 -2.585938 5.4375 -2.390625 C 5.519531 -2.203125 5.5625 -1.988281 5.5625 -1.75 Z M 5.5625 -1.75 "/></g></g><g transform="translate(729.02708, 1402.49693)"><g><path d="M 4.8125 -1.015625 C 4.613281 -0.609375 4.351562 -0.316406 4.03125 -0.140625 C 3.707031 0.0351562 3.3125 0.125 2.84375 0.125 C 2.039062 0.125 1.445312 -0.144531 1.0625 -0.6875 C 0.6875 -1.226562 0.5 -2.046875 0.5 -3.140625 C 0.5 -5.347656 1.28125 -6.453125 2.84375 -6.453125 C 3.320312 -6.453125 3.71875 -6.363281 4.03125 -6.1875 C 4.351562 -6.019531 4.613281 -5.742188 4.8125 -5.359375 L 4.828125 -5.359375 L 4.8125 -6.0625 L 4.8125 -8.703125 L 5.859375 -8.703125 L 5.859375 -1.3125 C 5.859375 -0.644531 5.875 -0.207031 5.90625 0 L 4.890625 0 C 4.878906 -0.0625 4.863281 -0.207031 4.84375 -0.4375 C 4.832031 -0.664062 4.828125 -0.859375 4.828125 -1.015625 Z M 1.609375 -3.171875 C 1.609375 -2.285156 1.722656 -1.648438 1.953125 -1.265625 C 2.191406 -0.890625 2.578125 -0.703125 3.109375 -0.703125 C 3.703125 -0.703125 4.132812 -0.90625 4.40625 -1.3125 C 4.675781 -1.726562 4.8125 -2.375 4.8125 -3.25 C 4.8125 -4.082031 4.675781 -4.691406 4.40625 -5.078125 C 4.132812 -5.472656 3.707031 -5.671875 3.125 -5.671875 C 2.59375 -5.671875 2.207031 -5.472656 1.96875 -5.078125 C 1.726562 -4.691406 1.609375 -4.054688 1.609375 -3.171875 Z M 1.609375 -3.171875 "/></g></g></g></svg>