<svg xmlns="http://www.w3.org/2000/svg" xmlns:xlink="http://www.w3.org/1999/xlink" width="1920" zoomAndPan="magnify" viewBox="0 0 1440 1439.999935" height="1920" preserveAspectRatio="xMidYMid meet" version="1.0"><defs><g/></defs><path fill="#377813" d="M 1309.210938 1415.851562 L 131.082031 1415.851562 C 130.300781 1415.851562 129.519531 1415.8125 128.742188 1415.734375 C 127.960938 1415.660156 127.191406 1415.542969 126.421875 1415.390625 C 125.65625 1415.238281 124.898438 1415.050781 124.148438 1414.824219 C 123.402344 1414.597656 122.667969 1414.332031 121.945312 1414.035156 C 121.222656 1413.734375 120.515625 1413.398438 119.824219 1413.03125 C 119.136719 1412.664062 118.464844 1412.261719 117.816406 1411.828125 C 117.164062 1411.390625 116.539062 1410.925781 115.933594 1410.429688 C 115.328125 1409.933594 114.75 1409.410156 114.199219 1408.859375 C 113.644531 1408.304688 113.121094 1407.726562 112.625 1407.121094 C 112.128906 1406.515625 111.664062 1405.890625 111.230469 1405.238281 C 110.792969 1404.589844 110.394531 1403.917969 110.023438 1403.230469 C 109.65625 1402.539062 109.320312 1401.832031 109.023438 1401.113281 C 108.722656 1400.390625 108.460938 1399.652344 108.234375 1398.90625 C 108.003906 1398.15625 107.816406 1397.398438 107.664062 1396.632812 C 107.511719 1395.867188 107.394531 1395.09375 107.320312 1394.316406 C 107.242188 1393.535156 107.203125 1392.757812 107.203125 1391.972656 L 107.203125 988.3125 C 107.203125 987.527344 107.242188 986.75 107.320312 985.96875 C 107.394531 985.191406 107.511719 984.417969 107.664062 983.652344 C 107.816406 982.886719 108.003906 982.128906 108.234375 981.378906 C 108.460938 980.632812 108.722656 979.894531 109.023438 979.171875 C 109.320312 978.449219 109.65625 977.746094 110.023438 977.054688 C 110.394531 976.367188 110.792969 975.695312 111.230469 975.046875 C 111.664062 974.394531 112.128906 973.769531 112.625 973.164062 C 113.121094 972.558594 113.644531 971.980469 114.199219 971.425781 C 114.75 970.875 115.328125 970.351562 115.933594 969.855469 C 116.539062 969.359375 117.164062 968.894531 117.816406 968.457031 C 118.464844 968.023438 119.136719 967.621094 119.824219 967.253906 C 120.515625 966.886719 121.222656 966.550781 121.945312 966.25 C 122.667969 965.953125 123.402344 965.6875 124.148438 965.460938 C 124.898438 965.234375 125.65625 965.046875 126.421875 964.894531 C 127.191406 964.742188 127.960938 964.625 128.742188 964.550781 C 129.519531 964.472656 130.300781 964.433594 131.082031 964.433594 C 131.863281 964.433594 132.644531 964.472656 133.421875 964.550781 C 134.199219 964.625 134.972656 964.742188 135.738281 964.894531 C 136.507812 965.046875 137.265625 965.234375 138.011719 965.460938 C 138.761719 965.6875 139.496094 965.953125 140.21875 966.25 C 140.941406 966.550781 141.648438 966.886719 142.335938 967.253906 C 143.027344 967.621094 143.695312 968.023438 144.347656 968.457031 C 144.996094 968.894531 145.625 969.359375 146.226562 969.855469 C 146.832031 970.351562 147.410156 970.875 147.964844 971.425781 C 148.519531 971.980469 149.042969 972.558594 149.539062 973.164062 C 150.035156 973.769531 150.5 974.394531 150.933594 975.046875 C 151.367188 975.695312 151.769531 976.367188 152.136719 977.054688 C 152.507812 977.746094 152.839844 978.449219 153.140625 979.171875 C 153.441406 979.894531 153.703125 980.632812 153.929688 981.378906 C 154.15625 982.128906 154.347656 982.886719 154.5 983.652344 C 154.652344 984.417969 154.765625 985.191406 154.84375 985.96875 C 154.917969 986.75 154.957031 987.527344 154.957031 988.3125 L 154.957031 1368.097656 L 1285.335938 1368.097656 L 1285.335938 988.3125 C 1285.335938 987.527344 1285.375 986.75 1285.449219 985.96875 C 1285.527344 985.191406 1285.640625 984.417969 1285.792969 983.652344 C 1285.945312 982.886719 1286.136719 982.128906 1286.363281 981.378906 C 1286.589844 980.632812 1286.855469 979.894531 1287.152344 979.171875 C 1287.453125 978.449219 1287.785156 977.746094 1288.15625 977.054688 C 1288.523438 976.367188 1288.925781 975.695312 1289.359375 975.046875 C 1289.792969 974.394531 1290.257812 973.769531 1290.753906 973.164062 C 1291.25 972.558594 1291.777344 971.980469 1292.328125 971.425781 C 1292.882812 970.875 1293.460938 970.351562 1294.066406 969.855469 C 1294.667969 969.359375 1295.296875 968.894531 1295.945312 968.457031 C 1296.597656 968.023438 1297.265625 967.621094 1297.957031 967.253906 C 1298.644531 966.886719 1299.351562 966.550781 1300.074219 966.25 C 1300.796875 965.953125 1301.53125 965.6875 1302.28125 965.460938 C 1303.027344 965.234375 1303.785156 965.046875 1304.554688 964.894531 C 1305.320312 964.742188 1306.09375 964.625 1306.871094 964.550781 C 1307.648438 964.472656 1308.429688 964.433594 1309.210938 964.433594 C 1309.996094 964.433594 1310.773438 964.472656 1311.550781 964.550781 C 1312.332031 964.625 1313.101562 964.742188 1313.871094 964.894531 C 1314.636719 965.046875 1315.394531 965.234375 1316.144531 965.460938 C 1316.890625 965.6875 1317.625 965.953125 1318.347656 966.25 C 1319.070312 966.550781 1319.777344 966.886719 1320.46875 967.253906 C 1321.15625 967.621094 1321.828125 968.023438 1322.476562 968.457031 C 1323.128906 968.894531 1323.753906 969.359375 1324.359375 969.855469 C 1324.964844 970.351562 1325.542969 970.875 1326.09375 971.425781 C 1326.648438 971.980469 1327.171875 972.558594 1327.667969 973.164062 C 1328.164062 973.769531 1328.628906 974.394531 1329.066406 975.046875 C 1329.5 975.695312 1329.902344 976.367188 1330.269531 977.054688 C 1330.636719 977.746094 1330.972656 978.449219 1331.269531 979.171875 C 1331.570312 979.894531 1331.832031 980.632812 1332.058594 981.378906 C 1332.289062 982.128906 1332.476562 982.886719 1332.628906 983.652344 C 1332.78125 984.417969 1332.898438 985.191406 1332.972656 985.96875 C 1333.050781 986.75 1333.089844 987.527344 1333.089844 988.3125 L 1333.089844 1391.972656 C 1333.089844 1392.757812 1333.050781 1393.535156 1332.972656 1394.316406 C 1332.898438 1395.09375 1332.78125 1395.867188 1332.628906 1396.632812 C 1332.476562 1397.398438 1332.289062 1398.15625 1332.0625 1398.90625 C 1331.832031 1399.652344 1331.570312 1400.390625 1331.269531 1401.113281 C 1330.972656 1401.832031 1330.636719 1402.539062 1330.269531 1403.230469 C 1329.902344 1403.917969 1329.5 1404.589844 1329.066406 1405.238281 C 1328.628906 1405.890625 1328.164062 1406.515625 1327.667969 1407.121094 C 1327.171875 1407.726562 1326.648438 1408.304688 1326.09375 1408.859375 C 1325.542969 1409.410156 1324.964844 1409.933594 1324.359375 1410.429688 C 1323.753906 1410.925781 1323.128906 1411.390625 1322.476562 1411.828125 C 1321.828125 1412.261719 1321.15625 1412.664062 1320.46875 1413.03125 C 1319.777344 1413.398438 1319.070312 1413.734375 1318.347656 1414.035156 C 1317.625 1414.332031 1316.890625 1414.597656 1316.144531 1414.824219 C 1315.394531 1415.050781 1314.636719 1415.238281 1313.871094 1415.390625 C 1313.101562 1415.542969 1312.332031 1415.660156 1311.550781 1415.734375 C 1310.773438 1415.8125 1309.996094 1415.851562 1309.210938 1415.851562 Z M 1309.210938 1415.851562 " fill-opacity="1" fill-rule="nonzero"/><path fill="#377813" d="M 1362.21875 1012.15625 L 78.105469 1012.15625 C 77.324219 1012.15625 76.542969 1012.117188 75.765625 1012.042969 C 74.988281 1011.964844 74.214844 1011.851562 73.445312 1011.699219 C 72.679688 1011.546875 71.921875 1011.355469 71.175781 1011.128906 C 70.425781 1010.902344 69.691406 1010.640625 68.96875 1010.339844 C 68.246094 1010.039062 67.539062 1009.707031 66.851562 1009.339844 C 66.160156 1008.96875 65.488281 1008.566406 64.839844 1008.132812 C 64.191406 1007.699219 63.5625 1007.234375 62.957031 1006.738281 C 62.355469 1006.242188 61.773438 1005.71875 61.222656 1005.164062 C 60.667969 1004.609375 60.144531 1004.03125 59.648438 1003.429688 C 59.152344 1002.824219 58.6875 1002.195312 58.253906 1001.546875 C 57.816406 1000.894531 57.417969 1000.226562 57.046875 999.535156 C 56.679688 998.847656 56.34375 998.140625 56.046875 997.417969 C 55.746094 996.695312 55.484375 995.960938 55.257812 995.210938 C 55.03125 994.464844 54.839844 993.707031 54.6875 992.9375 C 54.535156 992.171875 54.421875 991.398438 54.34375 990.621094 C 54.265625 989.84375 54.230469 989.0625 54.230469 988.28125 L 54.230469 874.0625 C 54.230469 873.277344 54.265625 872.5 54.34375 871.722656 C 54.421875 870.941406 54.535156 870.171875 54.6875 869.402344 C 54.839844 868.636719 55.03125 867.878906 55.257812 867.128906 C 55.484375 866.382812 55.746094 865.648438 56.046875 864.925781 C 56.34375 864.203125 56.679688 863.496094 57.046875 862.804688 C 57.417969 862.117188 57.816406 861.445312 58.253906 860.796875 C 58.6875 860.144531 59.152344 859.519531 59.648438 858.914062 C 60.144531 858.308594 60.667969 857.730469 61.222656 857.179688 C 61.773438 856.625 62.351562 856.101562 62.957031 855.605469 C 63.5625 855.109375 64.191406 854.644531 64.839844 854.207031 C 65.488281 853.773438 66.160156 853.371094 66.851562 853.003906 C 67.539062 852.636719 68.246094 852.300781 68.96875 852.003906 C 69.691406 851.703125 70.425781 851.441406 71.175781 851.210938 C 71.921875 850.984375 72.679688 850.796875 73.445312 850.644531 C 74.214844 850.492188 74.988281 850.375 75.765625 850.300781 C 76.542969 850.222656 77.324219 850.183594 78.105469 850.183594 L 1362.21875 850.183594 C 1363 850.183594 1363.78125 850.222656 1364.558594 850.300781 C 1365.335938 850.375 1366.109375 850.492188 1366.875 850.644531 C 1367.644531 850.796875 1368.402344 850.984375 1369.148438 851.210938 C 1369.898438 851.441406 1370.632812 851.703125 1371.355469 852.003906 C 1372.078125 852.300781 1372.785156 852.636719 1373.472656 853.003906 C 1374.164062 853.371094 1374.832031 853.773438 1375.484375 854.207031 C 1376.132812 854.644531 1376.761719 855.109375 1377.367188 855.605469 C 1377.96875 856.101562 1378.546875 856.625 1379.101562 857.179688 C 1379.65625 857.730469 1380.179688 858.308594 1380.675781 858.914062 C 1381.171875 859.519531 1381.636719 860.144531 1382.070312 860.796875 C 1382.503906 861.445312 1382.90625 862.117188 1383.277344 862.804688 C 1383.644531 863.496094 1383.976562 864.203125 1384.277344 864.925781 C 1384.578125 865.644531 1384.839844 866.382812 1385.066406 867.128906 C 1385.292969 867.878906 1385.484375 868.636719 1385.636719 869.402344 C 1385.789062 870.171875 1385.902344 870.941406 1385.980469 871.722656 C 1386.054688 872.5 1386.09375 873.277344 1386.09375 874.0625 L 1386.09375 988.28125 C 1386.09375 989.0625 1386.054688 989.84375 1385.980469 990.621094 C 1385.902344 991.398438 1385.789062 992.171875 1385.636719 992.9375 C 1385.484375 993.707031 1385.292969 994.464844 1385.066406 995.210938 C 1384.839844 995.960938 1384.578125 996.695312 1384.277344 997.417969 C 1383.976562 998.140625 1383.644531 998.847656 1383.277344 999.535156 C 1382.90625 1000.226562 1382.503906 1000.894531 1382.070312 1001.546875 C 1381.636719 1002.195312 1381.171875 1002.824219 1380.675781 1003.429688 C 1380.179688 1004.03125 1379.65625 1004.609375 1379.101562 1005.164062 C 1378.546875 1005.71875 1377.96875 1006.242188 1377.367188 1006.738281 C 1376.761719 1007.234375 1376.132812 1007.699219 1375.484375 1008.132812 C 1374.832031 1008.566406 1374.164062 1008.96875 1373.472656 1009.339844 C 1372.785156 1009.707031 1372.078125 1010.039062 1371.355469 1010.339844 C 1370.632812 1010.640625 1369.898438 1010.902344 1369.148438 1011.128906 C 1368.402344 1011.355469 1367.644531 1011.546875 1366.875 1011.699219 C 1366.109375 1011.851562 1365.335938 1011.964844 1364.558594 1012.042969 C 1363.78125 1012.117188 1363 1012.15625 1362.21875 1012.15625 Z M 101.980469 964.402344 L 1338.339844 964.402344 L 1338.339844 897.9375 L 101.980469 897.9375 Z M 101.980469 964.402344 " fill-opacity="1" fill-rule="nonzero"/><path fill="#377813" d="M 1309.210938 897.9375 C 1308.429688 897.9375 1307.648438 897.898438 1306.871094 897.824219 C 1306.09375 897.746094 1305.320312 897.632812 1304.554688 897.480469 C 1303.785156 897.328125 1303.03125 897.136719 1302.28125 896.910156 C 1301.53125 896.683594 1300.796875 896.417969 1300.074219 896.121094 C 1299.351562 895.820312 1298.644531 895.488281 1297.957031 895.117188 C 1297.265625 894.75 1296.597656 894.347656 1295.945312 893.914062 C 1295.296875 893.480469 1294.667969 893.015625 1294.066406 892.519531 C 1293.460938 892.023438 1292.882812 891.496094 1292.328125 890.945312 C 1291.777344 890.390625 1291.25 889.8125 1290.753906 889.207031 C 1290.257812 888.605469 1289.792969 887.976562 1289.359375 887.328125 C 1288.925781 886.675781 1288.523438 886.007812 1288.15625 885.316406 C 1287.785156 884.625 1287.453125 883.921875 1287.152344 883.199219 C 1286.855469 882.476562 1286.589844 881.742188 1286.363281 880.992188 C 1286.136719 880.242188 1285.945312 879.484375 1285.792969 878.71875 C 1285.640625 877.953125 1285.527344 877.179688 1285.449219 876.402344 C 1285.375 875.625 1285.335938 874.84375 1285.335938 874.0625 L 1285.335938 399.273438 C 1285.335938 398.492188 1285.375 397.714844 1285.449219 396.933594 C 1285.527344 396.15625 1285.640625 395.382812 1285.792969 394.617188 C 1285.945312 393.851562 1286.136719 393.09375 1286.363281 392.34375 C 1286.589844 391.597656 1286.855469 390.859375 1287.152344 390.136719 C 1287.453125 389.414062 1287.785156 388.710938 1288.15625 388.019531 C 1288.523438 387.332031 1288.925781 386.660156 1289.359375 386.011719 C 1289.792969 385.359375 1290.257812 384.734375 1290.753906 384.128906 C 1291.25 383.523438 1291.777344 382.945312 1292.328125 382.390625 C 1292.882812 381.839844 1293.460938 381.3125 1294.066406 380.816406 C 1294.667969 380.320312 1295.296875 379.855469 1295.945312 379.421875 C 1296.597656 378.988281 1297.265625 378.585938 1297.957031 378.21875 C 1298.644531 377.847656 1299.351562 377.515625 1300.074219 377.214844 C 1300.796875 376.917969 1301.53125 376.652344 1302.28125 376.425781 C 1303.027344 376.199219 1303.785156 376.011719 1304.554688 375.855469 C 1305.320312 375.703125 1306.09375 375.589844 1306.871094 375.511719 C 1307.648438 375.4375 1308.429688 375.398438 1309.210938 375.398438 C 1309.996094 375.398438 1310.773438 375.4375 1311.550781 375.511719 C 1312.332031 375.589844 1313.101562 375.703125 1313.871094 375.855469 C 1314.636719 376.011719 1315.394531 376.199219 1316.144531 376.425781 C 1316.890625 376.652344 1317.625 376.917969 1318.347656 377.214844 C 1319.070312 377.515625 1319.777344 377.847656 1320.46875 378.21875 C 1321.15625 378.585938 1321.828125 378.988281 1322.476562 379.421875 C 1323.128906 379.855469 1323.753906 380.320312 1324.359375 380.816406 C 1324.964844 381.3125 1325.542969 381.839844 1326.09375 382.390625 C 1326.648438 382.945312 1327.171875 383.523438 1327.667969 384.128906 C 1328.164062 384.734375 1328.628906 385.359375 1329.066406 386.011719 C 1329.5 386.660156 1329.902344 387.332031 1330.269531 388.019531 C 1330.636719 388.710938 1330.972656 389.414062 1331.269531 390.136719 C 1331.570312 390.859375 1331.832031 391.597656 1332.058594 392.34375 C 1332.289062 393.09375 1332.476562 393.851562 1332.628906 394.617188 C 1332.78125 395.382812 1332.898438 396.15625 1332.972656 396.933594 C 1333.050781 397.714844 1333.089844 398.492188 1333.089844 399.273438 L 1333.089844 874.0625 C 1333.089844 874.84375 1333.050781 875.625 1332.972656 876.402344 C 1332.898438 877.179688 1332.78125 877.953125 1332.628906 878.71875 C 1332.476562 879.484375 1332.289062 880.242188 1332.0625 880.992188 C 1331.832031 881.742188 1331.570312 882.476562 1331.269531 883.199219 C 1330.972656 883.921875 1330.636719 884.625 1330.269531 885.316406 C 1329.902344 886.007812 1329.5 886.675781 1329.066406 887.328125 C 1328.628906 887.976562 1328.164062 888.605469 1327.667969 889.207031 C 1327.171875 889.8125 1326.648438 890.390625 1326.09375 890.945312 C 1325.542969 891.496094 1324.964844 892.023438 1324.359375 892.519531 C 1323.753906 893.015625 1323.128906 893.480469 1322.476562 893.914062 C 1321.828125 894.347656 1321.15625 894.75 1320.46875 895.117188 C 1319.777344 895.488281 1319.070312 895.820312 1318.347656 896.121094 C 1317.625 896.417969 1316.890625 896.683594 1316.144531 896.910156 C 1315.394531 897.136719 1314.636719 897.328125 1313.871094 897.480469 C 1313.101562 897.632812 1312.332031 897.746094 1311.550781 897.824219 C 1310.773438 897.898438 1309.996094 897.9375 1309.210938 897.9375 Z M 1203.261719 897.9375 C 1202.476562 897.9375 1201.699219 897.898438 1200.917969 897.824219 C 1200.140625 897.746094 1199.367188 897.632812 1198.601562 897.480469 C 1197.835938 897.328125 1197.078125 897.136719 1196.328125 896.910156 C 1195.582031 896.683594 1194.84375 896.417969 1194.121094 896.121094 C 1193.398438 895.820312 1192.695312 895.488281 1192.003906 895.117188 C 1191.316406 894.75 1190.644531 894.347656 1189.996094 893.914062 C 1189.34375 893.480469 1188.71875 893.015625 1188.113281 892.519531 C 1187.507812 892.023438 1186.929688 891.496094 1186.375 890.945312 C 1185.824219 890.390625 1185.300781 889.8125 1184.800781 889.207031 C 1184.308594 888.605469 1183.839844 887.976562 1183.40625 887.328125 C 1182.972656 886.675781 1182.570312 886.007812 1182.203125 885.316406 C 1181.832031 884.625 1181.5 883.921875 1181.199219 883.199219 C 1180.902344 882.476562 1180.636719 881.742188 1180.410156 880.992188 C 1180.183594 880.242188 1179.996094 879.484375 1179.84375 878.71875 C 1179.6875 877.953125 1179.574219 877.179688 1179.5 876.402344 C 1179.421875 875.625 1179.382812 874.84375 1179.382812 874.0625 L 1179.382812 399.273438 C 1179.382812 398.492188 1179.421875 397.714844 1179.5 396.933594 C 1179.574219 396.15625 1179.6875 395.382812 1179.84375 394.617188 C 1179.996094 393.851562 1180.183594 393.09375 1180.410156 392.34375 C 1180.636719 391.597656 1180.902344 390.859375 1181.199219 390.136719 C 1181.5 389.414062 1181.832031 388.710938 1182.203125 388.019531 C 1182.570312 387.332031 1182.972656 386.660156 1183.40625 386.011719 C 1183.839844 385.359375 1184.308594 384.734375 1184.804688 384.128906 C 1185.300781 383.523438 1185.824219 382.945312 1186.375 382.390625 C 1186.929688 381.839844 1187.507812 381.3125 1188.113281 380.816406 C 1188.71875 380.320312 1189.34375 379.855469 1189.996094 379.421875 C 1190.644531 378.988281 1191.316406 378.585938 1192.003906 378.21875 C 1192.695312 377.847656 1193.398438 377.515625 1194.121094 377.214844 C 1194.84375 376.917969 1195.582031 376.652344 1196.328125 376.425781 C 1197.078125 376.199219 1197.835938 376.011719 1198.601562 375.855469 C 1199.367188 375.703125 1200.140625 375.589844 1200.917969 375.511719 C 1201.699219 375.4375 1202.476562 375.398438 1203.261719 375.398438 C 1204.042969 375.398438 1204.820312 375.4375 1205.601562 375.511719 C 1206.378906 375.589844 1207.152344 375.703125 1207.917969 375.855469 C 1208.683594 376.011719 1209.441406 376.199219 1210.191406 376.425781 C 1210.9375 376.652344 1211.675781 376.917969 1212.398438 377.214844 C 1213.121094 377.515625 1213.824219 377.847656 1214.515625 378.21875 C 1215.203125 378.585938 1215.875 378.988281 1216.523438 379.421875 C 1217.175781 379.855469 1217.800781 380.320312 1218.40625 380.816406 C 1219.011719 381.3125 1219.589844 381.839844 1220.144531 382.390625 C 1220.695312 382.945312 1221.21875 383.523438 1221.714844 384.128906 C 1222.210938 384.734375 1222.679688 385.359375 1223.113281 386.011719 C 1223.546875 386.660156 1223.949219 387.332031 1224.316406 388.019531 C 1224.683594 388.710938 1225.019531 389.414062 1225.320312 390.136719 C 1225.617188 390.859375 1225.882812 391.597656 1226.109375 392.34375 C 1226.335938 393.09375 1226.523438 393.851562 1226.675781 394.617188 C 1226.828125 395.382812 1226.945312 396.15625 1227.019531 396.933594 C 1227.097656 397.714844 1227.136719 398.492188 1227.136719 399.273438 L 1227.136719 874.0625 C 1227.136719 874.84375 1227.097656 875.625 1227.019531 876.402344 C 1226.945312 877.179688 1226.828125 877.953125 1226.675781 878.71875 C 1226.523438 879.484375 1226.335938 880.242188 1226.109375 880.992188 C 1225.882812 881.742188 1225.617188 882.476562 1225.320312 883.199219 C 1225.019531 883.921875 1224.6875 884.625 1224.316406 885.316406 C 1223.949219 886.007812 1223.546875 886.675781 1223.113281 887.328125 C 1222.679688 887.976562 1222.210938 888.605469 1221.714844 889.207031 C 1221.21875 889.8125 1220.695312 890.390625 1220.144531 890.945312 C 1219.589844 891.496094 1219.011719 892.023438 1218.40625 892.519531 C 1217.800781 893.015625 1217.175781 893.480469 1216.523438 893.914062 C 1215.875 894.347656 1215.203125 894.75 1214.515625 895.117188 C 1213.824219 895.488281 1213.121094 895.820312 1212.398438 896.121094 C 1211.675781 896.417969 1210.9375 896.683594 1210.191406 896.910156 C 1209.441406 897.136719 1208.683594 897.328125 1207.917969 897.480469 C 1207.152344 897.632812 1206.378906 897.746094 1205.601562 897.824219 C 1204.820312 897.898438 1204.042969 897.9375 1203.261719 897.9375 Z M 1203.261719 897.9375 " fill-opacity="1" fill-rule="nonzero"/><path fill="#377813" d="M 1389.945312 423.152344 L 1082.027344 423.152344 C 1081.246094 423.152344 1080.464844 423.113281 1079.6875 423.035156 C 1078.90625 422.960938 1078.136719 422.84375 1077.367188 422.691406 C 1076.601562 422.539062 1075.84375 422.351562 1075.09375 422.125 C 1074.347656 421.898438 1073.613281 421.632812 1072.890625 421.335938 C 1072.167969 421.035156 1071.460938 420.699219 1070.769531 420.332031 C 1070.082031 419.964844 1069.410156 419.5625 1068.761719 419.128906 C 1068.109375 418.691406 1067.484375 418.226562 1066.878906 417.730469 C 1066.273438 417.234375 1065.695312 416.710938 1065.144531 416.160156 C 1064.589844 415.605469 1064.066406 415.027344 1063.570312 414.421875 C 1063.074219 413.816406 1062.609375 413.191406 1062.171875 412.539062 C 1061.738281 411.890625 1061.335938 411.21875 1060.96875 410.53125 C 1060.601562 409.839844 1060.265625 409.136719 1059.96875 408.414062 C 1059.667969 407.691406 1059.40625 406.953125 1059.179688 406.207031 C 1058.949219 405.457031 1058.761719 404.699219 1058.609375 403.933594 C 1058.457031 403.167969 1058.339844 402.394531 1058.265625 401.617188 C 1058.1875 400.835938 1058.148438 400.058594 1058.148438 399.273438 C 1058.148438 398.492188 1058.1875 397.714844 1058.265625 396.933594 C 1058.339844 396.15625 1058.457031 395.382812 1058.609375 394.617188 C 1058.761719 393.851562 1058.949219 393.09375 1059.175781 392.34375 C 1059.40625 391.597656 1059.667969 390.859375 1059.96875 390.136719 C 1060.265625 389.414062 1060.601562 388.710938 1060.96875 388.019531 C 1061.335938 387.332031 1061.738281 386.660156 1062.171875 386.011719 C 1062.609375 385.359375 1063.074219 384.734375 1063.570312 384.128906 C 1064.066406 383.523438 1064.589844 382.945312 1065.144531 382.390625 C 1065.695312 381.839844 1066.273438 381.3125 1066.878906 380.816406 C 1067.484375 380.320312 1068.109375 379.855469 1068.761719 379.421875 C 1069.410156 378.988281 1070.082031 378.585938 1070.769531 378.21875 C 1071.460938 377.847656 1072.167969 377.515625 1072.890625 377.214844 C 1073.613281 376.917969 1074.347656 376.652344 1075.09375 376.425781 C 1075.84375 376.199219 1076.601562 376.011719 1077.367188 375.855469 C 1078.136719 375.703125 1078.90625 375.589844 1079.6875 375.511719 C 1080.464844 375.4375 1081.246094 375.398438 1082.027344 375.398438 L 1292.765625 375.398438 L 720.148438 75.777344 L 147.527344 375.398438 L 358.265625 375.398438 C 359.050781 375.398438 359.828125 375.4375 360.609375 375.511719 C 361.386719 375.589844 362.160156 375.703125 362.925781 375.855469 C 363.691406 376.011719 364.449219 376.199219 365.199219 376.425781 C 365.945312 376.652344 366.683594 376.917969 367.402344 377.214844 C 368.125 377.515625 368.832031 377.847656 369.523438 378.21875 C 370.210938 378.585938 370.882812 378.988281 371.53125 379.421875 C 372.183594 379.855469 372.808594 380.320312 373.414062 380.816406 C 374.019531 381.3125 374.597656 381.839844 375.152344 382.390625 C 375.703125 382.945312 376.226562 383.523438 376.722656 384.128906 C 377.21875 384.734375 377.683594 385.359375 378.121094 386.011719 C 378.554688 386.660156 378.957031 387.332031 379.324219 388.019531 C 379.691406 388.710938 380.027344 389.414062 380.328125 390.136719 C 380.625 390.859375 380.886719 391.597656 381.117188 392.34375 C 381.34375 393.09375 381.53125 393.851562 381.683594 394.617188 C 381.835938 395.382812 381.953125 396.15625 382.027344 396.933594 C 382.105469 397.714844 382.144531 398.492188 382.144531 399.273438 C 382.144531 400.058594 382.105469 400.835938 382.027344 401.617188 C 381.953125 402.394531 381.835938 403.167969 381.683594 403.933594 C 381.53125 404.699219 381.34375 405.457031 381.117188 406.207031 C 380.886719 406.953125 380.625 407.691406 380.328125 408.414062 C 380.027344 409.136719 379.691406 409.839844 379.324219 410.53125 C 378.957031 411.21875 378.554688 411.890625 378.121094 412.539062 C 377.683594 413.191406 377.21875 413.816406 376.722656 414.421875 C 376.226562 415.027344 375.703125 415.605469 375.152344 416.160156 C 374.597656 416.710938 374.019531 417.234375 373.414062 417.730469 C 372.808594 418.226562 372.183594 418.691406 371.53125 419.128906 C 370.882812 419.5625 370.210938 419.964844 369.523438 420.332031 C 368.832031 420.699219 368.125 421.035156 367.402344 421.335938 C 366.683594 421.632812 365.945312 421.898438 365.199219 422.125 C 364.449219 422.351562 363.691406 422.539062 362.925781 422.691406 C 362.160156 422.84375 361.386719 422.960938 360.609375 423.035156 C 359.828125 423.113281 359.050781 423.152344 358.265625 423.152344 L 50.347656 423.152344 C 49.023438 423.152344 47.703125 423.042969 46.394531 422.824219 C 45.089844 422.605469 43.808594 422.28125 42.554688 421.847656 C 41.300781 421.414062 40.089844 420.882812 38.925781 420.25 C 37.757812 419.613281 36.652344 418.886719 35.609375 418.070312 C 34.566406 417.253906 33.597656 416.351562 32.703125 415.375 C 31.808594 414.394531 31 413.347656 30.28125 412.234375 C 29.5625 411.117188 28.9375 409.953125 28.414062 408.734375 C 27.886719 407.515625 27.464844 406.265625 27.148438 404.976562 C 26.832031 403.6875 26.625 402.382812 26.527344 401.058594 C 26.425781 399.738281 26.4375 398.414062 26.558594 397.09375 C 26.679688 395.773438 26.910156 394.472656 27.246094 393.1875 C 27.585938 391.90625 28.027344 390.660156 28.574219 389.449219 C 29.121094 388.242188 29.761719 387.085938 30.5 385.984375 C 31.238281 384.882812 32.0625 383.847656 32.972656 382.882812 C 33.882812 381.921875 34.867188 381.039062 35.925781 380.238281 C 36.984375 379.4375 38.101562 378.730469 39.277344 378.113281 L 709.074219 27.753906 C 710.78125 26.859375 712.574219 26.183594 714.445312 25.722656 C 716.316406 25.261719 718.21875 25.03125 720.148438 25.03125 C 722.074219 25.03125 723.976562 25.261719 725.847656 25.722656 C 727.71875 26.183594 729.511719 26.859375 731.21875 27.753906 L 1401.019531 378.113281 C 1402.195312 378.730469 1403.308594 379.4375 1404.367188 380.238281 C 1405.425781 381.039062 1406.410156 381.921875 1407.320312 382.882812 C 1408.230469 383.847656 1409.054688 384.882812 1409.792969 385.984375 C 1410.53125 387.085938 1411.175781 388.242188 1411.71875 389.449219 C 1412.265625 390.660156 1412.707031 391.90625 1413.046875 393.1875 C 1413.382812 394.472656 1413.613281 395.773438 1413.734375 397.09375 C 1413.855469 398.414062 1413.867188 399.738281 1413.769531 401.058594 C 1413.667969 402.382812 1413.460938 403.6875 1413.144531 404.976562 C 1412.828125 406.265625 1412.40625 407.515625 1411.878906 408.734375 C 1411.355469 409.953125 1410.734375 411.117188 1410.011719 412.234375 C 1409.292969 413.347656 1408.484375 414.394531 1407.589844 415.375 C 1406.695312 416.351562 1405.726562 417.253906 1404.683594 418.070312 C 1403.640625 418.886719 1402.535156 419.613281 1401.371094 420.25 C 1400.203125 420.882812 1398.996094 421.414062 1397.742188 421.847656 C 1396.488281 422.28125 1395.207031 422.605469 1393.898438 422.824219 C 1392.589844 423.042969 1391.269531 423.152344 1389.945312 423.152344 Z M 1389.945312 423.152344 " fill-opacity="1" fill-rule="nonzero"/><path fill="#377813" d="M 1042.480469 345.074219 L 397.8125 345.074219 C 397.03125 345.074219 396.25 345.035156 395.472656 344.960938 C 394.695312 344.882812 393.921875 344.769531 393.15625 344.617188 C 392.386719 344.464844 391.628906 344.273438 390.882812 344.046875 C 390.132812 343.820312 389.398438 343.558594 388.675781 343.257812 C 387.953125 342.957031 387.246094 342.625 386.558594 342.257812 C 385.867188 341.886719 385.199219 341.484375 384.546875 341.050781 C 383.898438 340.617188 383.269531 340.152344 382.664062 339.65625 C 382.0625 339.160156 381.480469 338.636719 380.929688 338.082031 C 380.375 337.527344 379.851562 336.949219 379.355469 336.347656 C 378.859375 335.742188 378.394531 335.113281 377.960938 334.464844 C 377.527344 333.8125 377.125 333.144531 376.753906 332.453125 C 376.386719 331.765625 376.054688 331.058594 375.753906 330.335938 C 375.453125 329.613281 375.191406 328.878906 374.964844 328.128906 C 374.738281 327.382812 374.546875 326.625 374.394531 325.855469 C 374.242188 325.089844 374.128906 324.316406 374.050781 323.539062 C 373.972656 322.761719 373.9375 321.980469 373.9375 321.199219 C 373.9375 320.417969 373.972656 319.636719 374.050781 318.859375 C 374.128906 318.082031 374.242188 317.308594 374.394531 316.539062 C 374.546875 315.773438 374.738281 315.015625 374.964844 314.269531 C 375.191406 313.519531 375.453125 312.785156 375.753906 312.0625 C 376.054688 311.339844 376.386719 310.632812 376.753906 309.941406 C 377.125 309.253906 377.527344 308.582031 377.960938 307.933594 C 378.394531 307.285156 378.859375 306.65625 379.355469 306.050781 C 379.851562 305.445312 380.375 304.867188 380.929688 304.316406 C 381.480469 303.761719 382.0625 303.238281 382.664062 302.742188 C 383.269531 302.246094 383.898438 301.78125 384.546875 301.347656 C 385.199219 300.910156 385.867188 300.511719 386.558594 300.140625 C 387.246094 299.773438 387.953125 299.4375 388.675781 299.140625 C 389.398438 298.839844 390.132812 298.578125 390.882812 298.351562 C 391.628906 298.125 392.386719 297.933594 393.15625 297.78125 C 393.921875 297.628906 394.695312 297.515625 395.472656 297.4375 C 396.25 297.359375 397.03125 297.320312 397.8125 297.320312 L 1042.480469 297.320312 C 1043.261719 297.320312 1044.042969 297.359375 1044.820312 297.4375 C 1045.597656 297.515625 1046.371094 297.628906 1047.140625 297.78125 C 1047.90625 297.933594 1048.664062 298.125 1049.410156 298.351562 C 1050.160156 298.578125 1050.894531 298.839844 1051.617188 299.140625 C 1052.339844 299.4375 1053.046875 299.773438 1053.734375 300.140625 C 1054.425781 300.511719 1055.09375 300.910156 1055.746094 301.347656 C 1056.394531 301.78125 1057.023438 302.246094 1057.628906 302.742188 C 1058.230469 303.238281 1058.8125 303.761719 1059.363281 304.316406 C 1059.917969 304.867188 1060.441406 305.445312 1060.9375 306.050781 C 1061.433594 306.65625 1061.898438 307.285156 1062.332031 307.933594 C 1062.769531 308.582031 1063.167969 309.253906 1063.539062 309.941406 C 1063.90625 310.632812 1064.242188 311.339844 1064.539062 312.0625 C 1064.839844 312.785156 1065.101562 313.519531 1065.328125 314.269531 C 1065.554688 315.015625 1065.746094 315.773438 1065.898438 316.539062 C 1066.050781 317.308594 1066.164062 318.082031 1066.242188 318.859375 C 1066.320312 319.636719 1066.359375 320.417969 1066.355469 321.199219 C 1066.359375 321.980469 1066.320312 322.761719 1066.242188 323.539062 C 1066.164062 324.316406 1066.050781 325.089844 1065.898438 325.855469 C 1065.746094 326.625 1065.554688 327.382812 1065.328125 328.128906 C 1065.101562 328.878906 1064.839844 329.613281 1064.539062 330.335938 C 1064.242188 331.058594 1063.90625 331.765625 1063.539062 332.453125 C 1063.167969 333.144531 1062.769531 333.8125 1062.332031 334.464844 C 1061.898438 335.113281 1061.433594 335.742188 1060.9375 336.347656 C 1060.441406 336.949219 1059.917969 337.527344 1059.363281 338.082031 C 1058.8125 338.636719 1058.230469 339.160156 1057.628906 339.65625 C 1057.023438 340.152344 1056.394531 340.617188 1055.746094 341.050781 C 1055.09375 341.484375 1054.425781 341.886719 1053.734375 342.257812 C 1053.046875 342.625 1052.339844 342.957031 1051.617188 343.257812 C 1050.894531 343.558594 1050.160156 343.820312 1049.410156 344.046875 C 1048.664062 344.273438 1047.90625 344.464844 1047.140625 344.617188 C 1046.371094 344.769531 1045.597656 344.882812 1044.820312 344.960938 C 1044.042969 345.035156 1043.261719 345.074219 1042.480469 345.074219 Z M 1042.480469 345.074219 " fill-opacity="1" fill-rule="nonzero"/><path fill="#377813" d="M 383.546875 608.046875 C 323.855469 608.046875 275.503906 566.558594 275.503906 515.523438 C 275.511719 511.730469 276.367188 508.140625 278.070312 504.75 L 376.5625 310.335938 C 376.90625 309.621094 377.285156 308.929688 377.699219 308.253906 C 378.113281 307.578125 378.558594 306.925781 379.035156 306.292969 C 379.511719 305.664062 380.023438 305.058594 380.558594 304.476562 C 381.097656 303.898438 381.664062 303.34375 382.257812 302.820312 C 382.851562 302.296875 383.46875 301.804688 384.109375 301.339844 C 384.753906 300.878906 385.417969 300.449219 386.101562 300.050781 C 386.785156 299.65625 387.488281 299.292969 388.210938 298.96875 C 388.933594 298.640625 389.667969 298.351562 390.417969 298.097656 C 391.167969 297.84375 391.925781 297.628906 392.699219 297.449219 C 393.46875 297.273438 394.25 297.132812 395.035156 297.03125 C 395.820312 296.933594 396.605469 296.871094 397.398438 296.847656 C 398.1875 296.828125 398.980469 296.84375 399.769531 296.898438 C 400.558594 296.957031 401.34375 297.050781 402.125 297.1875 C 402.902344 297.320312 403.675781 297.496094 404.4375 297.707031 C 405.199219 297.917969 405.953125 298.164062 406.6875 298.453125 C 407.425781 298.738281 408.148438 299.058594 408.855469 299.417969 C 409.5625 299.773438 410.25 300.167969 410.914062 300.59375 C 411.582031 301.019531 412.226562 301.476562 412.847656 301.96875 C 413.46875 302.457031 414.066406 302.976562 414.636719 303.527344 C 415.207031 304.074219 415.746094 304.652344 416.257812 305.253906 C 416.773438 305.859375 417.253906 306.484375 417.703125 307.136719 C 418.152344 307.789062 418.570312 308.460938 418.953125 309.152344 C 419.335938 309.84375 419.683594 310.554688 419.996094 311.28125 C 420.308594 312.007812 420.585938 312.75 420.824219 313.503906 C 421.066406 314.257812 421.265625 315.023438 421.429688 315.796875 C 421.59375 316.570312 421.714844 317.351562 421.800781 318.140625 C 421.886719 318.925781 421.933594 319.714844 421.941406 320.507812 C 421.945312 321.296875 421.914062 322.089844 421.84375 322.878906 C 421.769531 323.664062 421.660156 324.449219 421.511719 325.226562 C 421.363281 326.003906 421.175781 326.769531 420.949219 327.527344 C 420.722656 328.289062 420.460938 329.035156 420.160156 329.765625 C 419.859375 330.5 419.523438 331.214844 419.152344 331.914062 L 323.644531 520.449219 C 327.078125 542.445312 353.105469 560.203125 383.546875 560.203125 C 387.53125 560.28125 391.492188 560.023438 395.429688 559.429688 C 399.371094 558.832031 403.230469 557.90625 407.011719 556.65625 C 410.796875 555.402344 414.445312 553.839844 417.960938 551.964844 C 421.476562 550.089844 424.808594 547.929688 427.957031 545.488281 C 438.195312 537.164062 443.804688 526.507812 443.804688 515.644531 C 443.808594 513.273438 444.15625 510.957031 444.851562 508.691406 L 503.882812 314.304688 C 504.113281 313.554688 504.375 312.820312 504.675781 312.097656 C 504.972656 311.375 505.308594 310.671875 505.675781 309.980469 C 506.046875 309.289062 506.449219 308.621094 506.882812 307.972656 C 507.316406 307.320312 507.78125 306.695312 508.277344 306.089844 C 508.777344 305.484375 509.300781 304.90625 509.851562 304.355469 C 510.40625 303.800781 510.984375 303.277344 511.589844 302.78125 C 512.195312 302.285156 512.824219 301.820312 513.472656 301.386719 C 514.125 300.953125 514.792969 300.550781 515.484375 300.179688 C 516.171875 299.8125 516.878906 299.480469 517.601562 299.179688 C 518.324219 298.882812 519.058594 298.617188 519.808594 298.390625 C 520.554688 298.164062 521.3125 297.976562 522.082031 297.824219 C 522.847656 297.671875 523.621094 297.554688 524.398438 297.480469 C 525.175781 297.402344 525.957031 297.367188 526.738281 297.367188 C 527.523438 297.367188 528.300781 297.40625 529.078125 297.480469 C 529.859375 297.558594 530.632812 297.671875 531.398438 297.828125 C 532.164062 297.980469 532.921875 298.167969 533.671875 298.398438 C 534.417969 298.625 535.152344 298.886719 535.875 299.1875 C 536.597656 299.484375 537.304688 299.820312 537.996094 300.1875 C 538.683594 300.558594 539.355469 300.960938 540.003906 301.394531 C 540.652344 301.828125 541.28125 302.292969 541.886719 302.792969 C 542.488281 303.289062 543.070312 303.8125 543.621094 304.367188 C 544.175781 304.917969 544.699219 305.496094 545.195312 306.101562 C 545.691406 306.707031 546.15625 307.335938 546.589844 307.984375 C 547.023438 308.636719 547.425781 309.304688 547.792969 309.996094 C 548.160156 310.683594 548.496094 311.390625 548.792969 312.113281 C 549.09375 312.835938 549.355469 313.570312 549.582031 314.320312 C 549.808594 315.070312 550 315.828125 550.152344 316.59375 C 550.304688 317.359375 550.417969 318.132812 550.496094 318.910156 C 550.570312 319.691406 550.609375 320.46875 550.609375 321.25 C 550.609375 322.035156 550.570312 322.8125 550.492188 323.59375 C 550.417969 324.371094 550.300781 325.144531 550.148438 325.910156 C 549.996094 326.675781 549.804688 327.433594 549.578125 328.183594 L 491.46875 519.492188 C 490.335938 543.640625 478.605469 565.933594 458.132812 582.617188 C 452.867188 586.78125 447.285156 590.464844 441.390625 593.675781 C 435.5 596.886719 429.375 599.574219 423.023438 601.738281 C 416.671875 603.90625 410.179688 605.515625 403.554688 606.574219 C 396.925781 607.636719 390.257812 608.125 383.546875 608.046875 Z M 383.546875 608.046875 " fill-opacity="1" fill-rule="nonzero"/><path fill="#377813" d="M 551.847656 608.046875 C 492.15625 608.046875 443.804688 566.558594 443.804688 515.523438 C 443.804688 514.742188 443.84375 513.960938 443.921875 513.183594 C 443.996094 512.40625 444.109375 511.632812 444.265625 510.867188 C 444.417969 510.097656 444.605469 509.339844 444.832031 508.59375 C 445.058594 507.84375 445.324219 507.109375 445.621094 506.386719 C 445.921875 505.664062 446.253906 504.957031 446.625 504.269531 C 446.992188 503.578125 447.394531 502.910156 447.828125 502.257812 C 448.261719 501.609375 448.730469 500.980469 449.226562 500.378906 C 449.722656 499.773438 450.246094 499.195312 450.796875 498.640625 C 451.351562 498.089844 451.929688 497.5625 452.535156 497.066406 C 453.140625 496.570312 453.765625 496.105469 454.417969 495.671875 C 455.066406 495.238281 455.738281 494.835938 456.425781 494.46875 C 457.117188 494.097656 457.820312 493.765625 458.542969 493.464844 C 459.265625 493.164062 460.003906 492.902344 460.75 492.675781 C 461.5 492.449219 462.257812 492.257812 463.023438 492.105469 C 463.789062 491.953125 464.5625 491.839844 465.339844 491.761719 C 466.121094 491.6875 466.898438 491.648438 467.679688 491.648438 C 468.464844 491.648438 469.242188 491.6875 470.023438 491.761719 C 470.800781 491.839844 471.574219 491.953125 472.339844 492.105469 C 473.105469 492.257812 473.863281 492.449219 474.613281 492.675781 C 475.359375 492.902344 476.097656 493.164062 476.820312 493.464844 C 477.542969 493.765625 478.246094 494.097656 478.9375 494.46875 C 479.625 494.835938 480.296875 495.238281 480.945312 495.671875 C 481.597656 496.105469 482.222656 496.570312 482.828125 497.066406 C 483.433594 497.5625 484.011719 498.089844 484.566406 498.640625 C 485.117188 499.195312 485.640625 499.773438 486.136719 500.378906 C 486.632812 500.980469 487.101562 501.609375 487.535156 502.257812 C 487.96875 502.910156 488.371094 503.578125 488.738281 504.269531 C 489.109375 504.957031 489.441406 505.664062 489.742188 506.386719 C 490.039062 507.109375 490.304688 507.84375 490.53125 508.59375 C 490.757812 509.339844 490.945312 510.097656 491.097656 510.867188 C 491.253906 511.632812 491.367188 512.40625 491.441406 513.183594 C 491.519531 513.960938 491.558594 514.742188 491.558594 515.523438 C 491.558594 539.730469 519.164062 560.292969 551.847656 560.292969 C 584.527344 560.292969 612.105469 539.820312 612.105469 515.523438 C 612.105469 514.71875 612.105469 513.914062 612.105469 513.105469 L 631.804688 318.722656 C 631.882812 317.941406 631.996094 317.167969 632.152344 316.398438 C 632.304688 315.628906 632.496094 314.871094 632.726562 314.121094 C 632.957031 313.371094 633.222656 312.632812 633.523438 311.910156 C 633.824219 311.1875 634.160156 310.480469 634.53125 309.789062 C 634.902344 309.097656 635.304688 308.425781 635.742188 307.777344 C 636.179688 307.125 636.644531 306.496094 637.144531 305.890625 C 637.640625 305.285156 638.167969 304.707031 638.722656 304.152344 C 639.28125 303.601562 639.859375 303.074219 640.46875 302.578125 C 641.074219 302.082031 641.703125 301.617188 642.355469 301.183594 C 643.007812 300.75 643.679688 300.347656 644.375 299.980469 C 645.066406 299.609375 645.773438 299.277344 646.5 298.980469 C 647.222656 298.679688 647.960938 298.417969 648.710938 298.191406 C 649.460938 297.964844 650.222656 297.777344 650.992188 297.625 C 651.761719 297.472656 652.535156 297.359375 653.316406 297.285156 C 654.097656 297.207031 654.878906 297.171875 655.660156 297.171875 C 656.445312 297.175781 657.226562 297.214844 658.007812 297.292969 C 658.789062 297.371094 659.5625 297.488281 660.332031 297.640625 C 661.097656 297.796875 661.859375 297.988281 662.609375 298.214844 C 663.359375 298.445312 664.09375 298.710938 664.820312 299.011719 C 665.542969 299.3125 666.25 299.648438 666.941406 300.019531 C 667.632812 300.390625 668.300781 300.792969 668.953125 301.230469 C 669.605469 301.667969 670.230469 302.132812 670.835938 302.632812 C 671.441406 303.132812 672.023438 303.65625 672.574219 304.214844 C 673.128906 304.769531 673.652344 305.347656 674.148438 305.957031 C 674.644531 306.5625 675.109375 307.191406 675.546875 307.84375 C 675.980469 308.5 676.382812 309.171875 676.75 309.863281 C 677.117188 310.554688 677.453125 311.261719 677.75 311.988281 C 678.050781 312.710938 678.3125 313.449219 678.539062 314.199219 C 678.765625 314.953125 678.953125 315.710938 679.105469 316.480469 C 679.257812 317.25 679.371094 318.023438 679.445312 318.804688 C 679.519531 319.585938 679.558594 320.367188 679.554688 321.152344 C 679.554688 321.933594 679.515625 322.714844 679.4375 323.496094 L 659.859375 516.808594 C 659.023438 567.277344 610.910156 608.046875 551.847656 608.046875 Z M 551.847656 608.046875 " fill-opacity="1" fill-rule="nonzero"/><path fill="#377813" d="M 720.148438 608.046875 C 660.457031 608.046875 612.105469 566.558594 612.105469 515.523438 C 612.105469 514.742188 612.144531 513.960938 612.21875 513.183594 C 612.296875 512.40625 612.410156 511.632812 612.5625 510.867188 C 612.714844 510.097656 612.90625 509.339844 613.132812 508.59375 C 613.359375 507.84375 613.625 507.109375 613.921875 506.386719 C 614.222656 505.664062 614.554688 504.957031 614.925781 504.269531 C 615.292969 503.578125 615.695312 502.910156 616.128906 502.257812 C 616.5625 501.609375 617.027344 500.980469 617.523438 500.378906 C 618.019531 499.773438 618.546875 499.195312 619.097656 498.640625 C 619.652344 498.089844 620.230469 497.5625 620.835938 497.066406 C 621.4375 496.570312 622.066406 496.105469 622.714844 495.671875 C 623.367188 495.238281 624.035156 494.835938 624.726562 494.46875 C 625.417969 494.097656 626.121094 493.765625 626.84375 493.464844 C 627.566406 493.164062 628.300781 492.902344 629.050781 492.675781 C 629.800781 492.449219 630.558594 492.257812 631.324219 492.105469 C 632.089844 491.953125 632.863281 491.839844 633.640625 491.761719 C 634.417969 491.6875 635.199219 491.648438 635.980469 491.648438 C 636.765625 491.648438 637.542969 491.6875 638.320312 491.761719 C 639.101562 491.839844 639.871094 491.953125 640.640625 492.105469 C 641.40625 492.257812 642.164062 492.449219 642.914062 492.675781 C 643.660156 492.902344 644.394531 493.164062 645.117188 493.464844 C 645.839844 493.765625 646.546875 494.097656 647.238281 494.46875 C 647.925781 494.835938 648.597656 495.238281 649.246094 495.671875 C 649.898438 496.105469 650.523438 496.570312 651.128906 497.066406 C 651.734375 497.5625 652.3125 498.089844 652.863281 498.640625 C 653.417969 499.195312 653.941406 499.773438 654.4375 500.378906 C 654.933594 500.980469 655.398438 501.609375 655.835938 502.257812 C 656.269531 502.910156 656.671875 503.578125 657.039062 504.269531 C 657.40625 504.957031 657.742188 505.664062 658.039062 506.386719 C 658.339844 507.109375 658.601562 507.84375 658.832031 508.59375 C 659.058594 509.339844 659.246094 510.097656 659.398438 510.867188 C 659.550781 511.632812 659.667969 512.40625 659.742188 513.183594 C 659.820312 513.960938 659.859375 514.742188 659.859375 515.523438 C 659.859375 539.730469 687.464844 560.292969 720.148438 560.292969 C 724.132812 560.371094 728.097656 560.113281 732.039062 559.519531 C 735.980469 558.921875 739.84375 558 743.628906 556.746094 C 747.414062 555.492188 751.066406 553.929688 754.582031 552.054688 C 758.101562 550.179688 761.4375 548.019531 764.585938 545.578125 C 774.464844 537.519531 780.078125 527.285156 780.40625 516.660156 L 760.855469 323.496094 C 760.777344 322.71875 760.734375 321.9375 760.734375 321.15625 C 760.730469 320.371094 760.765625 319.589844 760.839844 318.8125 C 760.914062 318.035156 761.023438 317.257812 761.175781 316.492188 C 761.324219 315.722656 761.511719 314.964844 761.738281 314.214844 C 761.960938 313.464844 762.222656 312.726562 762.519531 312.003906 C 762.816406 311.28125 763.148438 310.574219 763.515625 309.882812 C 763.882812 309.191406 764.28125 308.519531 764.714844 307.867188 C 765.144531 307.214844 765.609375 306.585938 766.105469 305.976562 C 766.597656 305.371094 767.121094 304.789062 767.671875 304.234375 C 768.226562 303.679688 768.804688 303.152344 769.40625 302.65625 C 770.011719 302.15625 770.636719 301.6875 771.285156 301.253906 C 771.933594 300.816406 772.605469 300.410156 773.292969 300.039062 C 773.984375 299.671875 774.6875 299.332031 775.410156 299.03125 C 776.132812 298.730469 776.867188 298.464844 777.617188 298.234375 C 778.363281 298.007812 779.121094 297.816406 779.890625 297.660156 C 780.65625 297.503906 781.429688 297.386719 782.207031 297.308594 C 782.988281 297.230469 783.769531 297.191406 784.550781 297.1875 C 785.332031 297.1875 786.113281 297.222656 786.894531 297.296875 C 787.671875 297.371094 788.445312 297.484375 789.214844 297.636719 C 789.980469 297.789062 790.738281 297.976562 791.488281 298.199219 C 792.238281 298.425781 792.976562 298.6875 793.699219 298.984375 C 794.421875 299.285156 795.128906 299.617188 795.820312 299.984375 C 796.511719 300.351562 797.183594 300.75 797.835938 301.183594 C 798.488281 301.617188 799.117188 302.082031 799.722656 302.578125 C 800.328125 303.074219 800.90625 303.597656 801.460938 304.148438 C 802.015625 304.703125 802.542969 305.28125 803.039062 305.882812 C 803.539062 306.488281 804.003906 307.113281 804.441406 307.765625 C 804.875 308.414062 805.28125 309.085938 805.648438 309.773438 C 806.019531 310.464844 806.355469 311.167969 806.65625 311.890625 C 806.957031 312.613281 807.222656 313.351562 807.449219 314.097656 C 807.679688 314.847656 807.871094 315.605469 808.023438 316.371094 C 808.175781 317.140625 808.292969 317.914062 808.371094 318.691406 L 828.070312 513.078125 C 828.070312 513.882812 828.070312 514.6875 828.070312 515.496094 C 828.070312 541.132812 816.128906 564.917969 794.613281 582.46875 C 789.359375 586.636719 783.792969 590.332031 777.910156 593.554688 C 772.03125 596.773438 765.917969 599.472656 759.574219 601.652344 C 753.234375 603.832031 746.753906 605.457031 740.132812 606.53125 C 733.515625 607.601562 726.851562 608.109375 720.148438 608.046875 Z M 720.148438 608.046875 " fill-opacity="1" fill-rule="nonzero"/><path fill="#377813" d="M 888.445312 608.046875 C 828.753906 608.046875 780.433594 566.558594 780.433594 515.523438 C 780.433594 514.742188 780.472656 513.960938 780.550781 513.183594 C 780.625 512.40625 780.742188 511.632812 780.894531 510.867188 C 781.046875 510.097656 781.234375 509.339844 781.464844 508.59375 C 781.691406 507.84375 781.953125 507.109375 782.253906 506.386719 C 782.550781 505.664062 782.886719 504.957031 783.253906 504.269531 C 783.625 503.578125 784.023438 502.910156 784.460938 502.257812 C 784.894531 501.609375 785.359375 500.980469 785.855469 500.378906 C 786.351562 499.773438 786.875 499.195312 787.429688 498.640625 C 787.980469 498.089844 788.558594 497.5625 789.164062 497.066406 C 789.769531 496.570312 790.394531 496.105469 791.046875 495.671875 C 791.695312 495.238281 792.367188 494.835938 793.054688 494.46875 C 793.746094 494.097656 794.453125 493.765625 795.175781 493.464844 C 795.898438 493.164062 796.632812 492.902344 797.378906 492.675781 C 798.128906 492.449219 798.886719 492.257812 799.652344 492.105469 C 800.421875 491.953125 801.191406 491.839844 801.972656 491.761719 C 802.75 491.6875 803.53125 491.648438 804.3125 491.648438 C 805.09375 491.648438 805.875 491.6875 806.652344 491.761719 C 807.429688 491.839844 808.203125 491.953125 808.96875 492.105469 C 809.738281 492.257812 810.496094 492.449219 811.242188 492.675781 C 811.992188 492.902344 812.726562 493.164062 813.449219 493.464844 C 814.171875 493.765625 814.878906 494.097656 815.566406 494.46875 C 816.257812 494.835938 816.925781 495.238281 817.578125 495.671875 C 818.226562 496.105469 818.855469 496.570312 819.457031 497.066406 C 820.0625 497.5625 820.640625 498.089844 821.195312 498.640625 C 821.746094 499.195312 822.273438 499.773438 822.769531 500.378906 C 823.265625 500.980469 823.730469 501.609375 824.164062 502.257812 C 824.597656 502.910156 825 503.578125 825.367188 504.269531 C 825.738281 504.957031 826.070312 505.664062 826.371094 506.386719 C 826.671875 507.109375 826.933594 507.84375 827.160156 508.59375 C 827.386719 509.339844 827.578125 510.097656 827.730469 510.867188 C 827.882812 511.632812 827.996094 512.40625 828.074219 513.183594 C 828.148438 513.960938 828.1875 514.742188 828.1875 515.523438 C 828.1875 539.730469 855.765625 560.292969 888.445312 560.292969 C 919.753906 560.292969 946.378906 541.519531 948.585938 518.507812 L 890.714844 328.003906 C 890.488281 327.253906 890.296875 326.496094 890.144531 325.730469 C 889.992188 324.964844 889.878906 324.191406 889.800781 323.414062 C 889.722656 322.632812 889.683594 321.855469 889.683594 321.074219 C 889.683594 320.289062 889.722656 319.511719 889.800781 318.730469 C 889.875 317.953125 889.988281 317.179688 890.140625 316.414062 C 890.292969 315.648438 890.484375 314.890625 890.710938 314.140625 C 890.9375 313.394531 891.199219 312.65625 891.5 311.933594 C 891.796875 311.210938 892.132812 310.503906 892.5 309.816406 C 892.867188 309.125 893.269531 308.457031 893.703125 307.804688 C 894.136719 307.15625 894.601562 306.527344 895.097656 305.921875 C 895.59375 305.316406 896.121094 304.738281 896.671875 304.1875 C 897.226562 303.632812 897.804688 303.109375 898.40625 302.613281 C 899.011719 302.117188 899.640625 301.648438 900.289062 301.214844 C 900.941406 300.78125 901.609375 300.378906 902.300781 300.011719 C 902.988281 299.640625 903.695312 299.308594 904.417969 299.007812 C 905.140625 298.707031 905.875 298.445312 906.621094 298.21875 C 907.371094 297.988281 908.128906 297.800781 908.894531 297.648438 C 909.664062 297.496094 910.433594 297.378906 911.214844 297.300781 C 911.992188 297.226562 912.773438 297.1875 913.554688 297.1875 C 914.335938 297.1875 915.117188 297.226562 915.894531 297.300781 C 916.671875 297.378906 917.445312 297.492188 918.210938 297.644531 C 918.980469 297.796875 919.738281 297.984375 920.484375 298.210938 C 921.234375 298.4375 921.96875 298.703125 922.691406 299 C 923.414062 299.300781 924.121094 299.632812 924.808594 300.003906 C 925.5 300.371094 926.171875 300.773438 926.820312 301.207031 C 927.472656 301.640625 928.097656 302.105469 928.703125 302.601562 C 929.308594 303.097656 929.886719 303.621094 930.441406 304.175781 C 930.992188 304.726562 931.519531 305.304688 932.015625 305.910156 C 932.511719 306.515625 932.976562 307.140625 933.410156 307.792969 C 933.84375 308.441406 934.246094 309.113281 934.617188 309.800781 C 934.984375 310.492188 935.320312 311.195312 935.617188 311.917969 C 935.917969 312.640625 936.183594 313.378906 936.410156 314.125 L 995.445312 508.539062 C 996.136719 510.804688 996.484375 513.125 996.488281 515.496094 C 996.488281 566.558594 948.019531 608.046875 888.445312 608.046875 Z M 888.445312 608.046875 " fill-opacity="1" fill-rule="nonzero"/><path fill="#377813" d="M 1056.746094 608.046875 C 997.203125 608.046875 948.734375 566.558594 948.734375 515.523438 C 948.734375 514.742188 948.773438 513.960938 948.851562 513.183594 C 948.925781 512.40625 949.042969 511.632812 949.195312 510.867188 C 949.347656 510.097656 949.535156 509.339844 949.761719 508.59375 C 949.992188 507.84375 950.253906 507.109375 950.550781 506.386719 C 950.851562 505.664062 951.1875 504.957031 951.554688 504.269531 C 951.921875 503.578125 952.324219 502.910156 952.757812 502.257812 C 953.195312 501.609375 953.660156 500.980469 954.15625 500.378906 C 954.652344 499.773438 955.175781 499.195312 955.726562 498.640625 C 956.28125 498.089844 956.859375 497.5625 957.464844 497.066406 C 958.070312 496.570312 958.695312 496.105469 959.347656 495.671875 C 959.996094 495.238281 960.667969 494.835938 961.355469 494.46875 C 962.046875 494.097656 962.753906 493.765625 963.472656 493.464844 C 964.195312 493.164062 964.933594 492.902344 965.679688 492.675781 C 966.429688 492.449219 967.1875 492.257812 967.953125 492.105469 C 968.71875 491.953125 969.492188 491.839844 970.273438 491.761719 C 971.050781 491.6875 971.828125 491.648438 972.613281 491.648438 C 973.394531 491.648438 974.175781 491.6875 974.953125 491.761719 C 975.730469 491.839844 976.503906 491.953125 977.269531 492.105469 C 978.035156 492.257812 978.792969 492.449219 979.542969 492.675781 C 980.292969 492.902344 981.027344 493.164062 981.75 493.464844 C 982.472656 493.765625 983.175781 494.097656 983.867188 494.46875 C 984.558594 494.835938 985.226562 495.238281 985.875 495.671875 C 986.527344 496.105469 987.15625 496.570312 987.757812 497.066406 C 988.363281 497.5625 988.941406 498.089844 989.496094 498.640625 C 990.046875 499.195312 990.574219 499.773438 991.070312 500.378906 C 991.566406 500.980469 992.03125 501.609375 992.464844 502.257812 C 992.898438 502.910156 993.300781 503.578125 993.667969 504.269531 C 994.039062 504.957031 994.371094 505.664062 994.671875 506.386719 C 994.96875 507.109375 995.234375 507.84375 995.460938 508.59375 C 995.6875 509.339844 995.878906 510.097656 996.03125 510.867188 C 996.183594 511.632812 996.296875 512.40625 996.375 513.183594 C 996.449219 513.960938 996.488281 514.742188 996.488281 515.523438 C 996.488281 539.730469 1024.097656 560.292969 1056.746094 560.292969 C 1060.734375 560.375 1064.695312 560.117188 1068.640625 559.523438 C 1072.582031 558.925781 1076.445312 558.003906 1080.230469 556.75 C 1084.015625 555.496094 1087.667969 553.933594 1091.183594 552.058594 C 1094.703125 550.183594 1098.035156 548.023438 1101.1875 545.578125 C 1103.191406 544.0625 1105.039062 542.375 1106.734375 540.515625 C 1108.425781 538.65625 1109.933594 536.65625 1111.253906 534.519531 C 1112.574219 532.378906 1113.691406 530.136719 1114.597656 527.792969 C 1115.503906 525.449219 1116.1875 523.039062 1116.648438 520.566406 L 1021.140625 332.003906 C 1020.804688 331.308594 1020.503906 330.597656 1020.238281 329.871094 C 1019.96875 329.148438 1019.738281 328.410156 1019.542969 327.664062 C 1019.347656 326.917969 1019.1875 326.160156 1019.066406 325.398438 C 1018.945312 324.636719 1018.859375 323.871094 1018.8125 323.097656 C 1018.765625 322.328125 1018.753906 321.554688 1018.78125 320.785156 C 1018.808594 320.011719 1018.871094 319.242188 1018.976562 318.476562 C 1019.078125 317.710938 1019.214844 316.953125 1019.390625 316.199219 C 1019.566406 315.449219 1019.777344 314.707031 1020.023438 313.976562 C 1020.273438 313.242188 1020.554688 312.527344 1020.871094 311.820312 C 1021.1875 311.117188 1021.539062 310.429688 1021.921875 309.757812 C 1022.304688 309.089844 1022.722656 308.4375 1023.167969 307.808594 C 1023.617188 307.179688 1024.089844 306.570312 1024.597656 305.988281 C 1025.101562 305.402344 1025.636719 304.847656 1026.195312 304.3125 C 1026.757812 303.78125 1027.339844 303.277344 1027.949219 302.804688 C 1028.558594 302.328125 1029.1875 301.882812 1029.839844 301.46875 C 1030.492188 301.054688 1031.164062 300.671875 1031.851562 300.324219 C 1032.539062 299.976562 1033.246094 299.660156 1033.964844 299.378906 C 1034.683594 299.097656 1035.414062 298.851562 1036.160156 298.644531 C 1036.902344 298.433594 1037.65625 298.261719 1038.414062 298.125 C 1039.175781 297.988281 1039.941406 297.886719 1040.710938 297.824219 C 1041.480469 297.761719 1042.25 297.738281 1043.023438 297.75 C 1043.796875 297.761719 1044.566406 297.8125 1045.332031 297.898438 C 1046.101562 297.984375 1046.863281 298.109375 1047.617188 298.269531 C 1048.371094 298.429688 1049.117188 298.628906 1049.855469 298.863281 C 1050.589844 299.09375 1051.316406 299.363281 1052.023438 299.667969 C 1052.734375 299.96875 1053.429688 300.308594 1054.105469 300.679688 C 1054.785156 301.050781 1055.441406 301.453125 1056.082031 301.886719 C 1056.71875 302.320312 1057.335938 302.785156 1057.929688 303.28125 C 1058.523438 303.773438 1059.089844 304.296875 1059.632812 304.847656 C 1060.175781 305.394531 1060.691406 305.96875 1061.175781 306.570312 C 1061.664062 307.167969 1062.121094 307.792969 1062.546875 308.433594 C 1062.972656 309.078125 1063.367188 309.742188 1063.730469 310.425781 L 1162.222656 504.839844 C 1163.925781 508.230469 1164.78125 511.820312 1164.789062 515.613281 C 1164.789062 541.25 1152.851562 565.039062 1131.332031 582.585938 C 1126.070312 586.753906 1120.492188 590.445312 1114.597656 593.660156 C 1108.703125 596.871094 1102.582031 599.5625 1096.230469 601.730469 C 1089.875 603.902344 1083.386719 605.515625 1076.757812 606.574219 C 1070.128906 607.632812 1063.460938 608.125 1056.746094 608.046875 Z M 1056.746094 608.046875 " fill-opacity="1" fill-rule="nonzero"/><path fill="#377813" d="M 1099.902344 1154.191406 L 340.390625 1154.191406 C 339.609375 1154.191406 338.828125 1154.15625 338.050781 1154.078125 C 337.269531 1154 336.5 1153.886719 335.730469 1153.734375 C 334.964844 1153.582031 334.207031 1153.390625 333.457031 1153.164062 C 332.710938 1152.9375 331.976562 1152.675781 331.253906 1152.375 C 330.53125 1152.078125 329.824219 1151.742188 329.132812 1151.375 C 328.445312 1151.003906 327.773438 1150.605469 327.125 1150.167969 C 326.472656 1149.734375 325.847656 1149.269531 325.242188 1148.773438 C 324.636719 1148.277344 324.058594 1147.753906 323.507812 1147.199219 C 322.953125 1146.648438 322.429688 1146.066406 321.933594 1145.464844 C 321.4375 1144.859375 320.972656 1144.230469 320.535156 1143.582031 C 320.101562 1142.929688 319.699219 1142.261719 319.332031 1141.570312 C 318.964844 1140.882812 318.628906 1140.175781 318.332031 1139.453125 C 318.03125 1138.730469 317.769531 1137.996094 317.539062 1137.246094 C 317.3125 1136.5 317.125 1135.742188 316.972656 1134.976562 C 316.820312 1134.207031 316.703125 1133.433594 316.628906 1132.65625 C 316.550781 1131.878906 316.511719 1131.097656 316.511719 1130.316406 C 316.511719 1129.535156 316.550781 1128.753906 316.628906 1127.976562 C 316.703125 1127.199219 316.820312 1126.425781 316.972656 1125.660156 C 317.125 1124.890625 317.3125 1124.132812 317.539062 1123.386719 C 317.769531 1122.636719 318.03125 1121.902344 318.332031 1121.179688 C 318.628906 1120.457031 318.964844 1119.75 319.332031 1119.0625 C 319.699219 1118.371094 320.101562 1117.703125 320.535156 1117.050781 C 320.972656 1116.402344 321.4375 1115.773438 321.933594 1115.167969 C 322.429688 1114.566406 322.953125 1113.988281 323.507812 1113.433594 C 324.058594 1112.878906 324.636719 1112.355469 325.242188 1111.859375 C 325.847656 1111.363281 326.472656 1110.898438 327.125 1110.464844 C 327.773438 1110.03125 328.445312 1109.628906 329.132812 1109.257812 C 329.824219 1108.890625 330.53125 1108.558594 331.253906 1108.257812 C 331.976562 1107.957031 332.710938 1107.695312 333.457031 1107.46875 C 334.207031 1107.242188 334.964844 1107.050781 335.730469 1106.898438 C 336.5 1106.746094 337.269531 1106.632812 338.050781 1106.554688 C 338.828125 1106.480469 339.609375 1106.441406 340.390625 1106.441406 L 1099.902344 1106.441406 C 1100.6875 1106.441406 1101.464844 1106.480469 1102.246094 1106.554688 C 1103.023438 1106.632812 1103.796875 1106.746094 1104.5625 1106.898438 C 1105.328125 1107.050781 1106.085938 1107.242188 1106.835938 1107.46875 C 1107.582031 1107.695312 1108.320312 1107.957031 1109.039062 1108.257812 C 1109.761719 1108.558594 1110.46875 1108.890625 1111.160156 1109.257812 C 1111.847656 1109.628906 1112.519531 1110.03125 1113.167969 1110.464844 C 1113.820312 1110.898438 1114.445312 1111.363281 1115.050781 1111.859375 C 1115.65625 1112.355469 1116.234375 1112.878906 1116.789062 1113.433594 C 1117.339844 1113.988281 1117.863281 1114.566406 1118.359375 1115.167969 C 1118.855469 1115.773438 1119.320312 1116.402344 1119.757812 1117.050781 C 1120.191406 1117.703125 1120.59375 1118.371094 1120.960938 1119.0625 C 1121.328125 1119.75 1121.664062 1120.457031 1121.964844 1121.179688 C 1122.261719 1121.902344 1122.523438 1122.636719 1122.753906 1123.386719 C 1122.980469 1124.132812 1123.167969 1124.890625 1123.320312 1125.660156 C 1123.472656 1126.425781 1123.589844 1127.199219 1123.664062 1127.976562 C 1123.742188 1128.753906 1123.78125 1129.535156 1123.78125 1130.316406 C 1123.78125 1131.097656 1123.742188 1131.878906 1123.664062 1132.65625 C 1123.589844 1133.433594 1123.472656 1134.207031 1123.320312 1134.976562 C 1123.167969 1135.742188 1122.980469 1136.5 1122.753906 1137.246094 C 1122.523438 1137.996094 1122.261719 1138.730469 1121.964844 1139.453125 C 1121.664062 1140.175781 1121.328125 1140.882812 1120.960938 1141.570312 C 1120.59375 1142.261719 1120.191406 1142.929688 1119.757812 1143.582031 C 1119.320312 1144.230469 1118.855469 1144.859375 1118.359375 1145.464844 C 1117.863281 1146.066406 1117.339844 1146.648438 1116.789062 1147.199219 C 1116.234375 1147.753906 1115.65625 1148.277344 1115.050781 1148.773438 C 1114.445312 1149.269531 1113.820312 1149.734375 1113.167969 1150.167969 C 1112.519531 1150.605469 1111.847656 1151.003906 1111.160156 1151.375 C 1110.46875 1151.742188 1109.761719 1152.078125 1109.039062 1152.375 C 1108.320312 1152.675781 1107.582031 1152.9375 1106.835938 1153.164062 C 1106.085938 1153.390625 1105.328125 1153.582031 1104.5625 1153.734375 C 1103.796875 1153.886719 1103.023438 1154 1102.246094 1154.078125 C 1101.464844 1154.15625 1100.6875 1154.191406 1099.902344 1154.191406 Z M 1099.902344 1154.191406 " fill-opacity="1" fill-rule="nonzero"/><path fill="#377813" d="M 1099.902344 1273.816406 L 340.390625 1273.816406 C 339.609375 1273.816406 338.828125 1273.777344 338.050781 1273.699219 C 337.269531 1273.625 336.5 1273.507812 335.730469 1273.355469 C 334.964844 1273.203125 334.207031 1273.015625 333.457031 1272.785156 C 332.710938 1272.558594 331.976562 1272.296875 331.253906 1271.996094 C 330.53125 1271.699219 329.824219 1271.363281 329.132812 1270.996094 C 328.445312 1270.628906 327.773438 1270.226562 327.125 1269.789062 C 326.472656 1269.355469 325.847656 1268.890625 325.242188 1268.394531 C 324.636719 1267.898438 324.058594 1267.375 323.507812 1266.820312 C 322.953125 1266.269531 322.429688 1265.691406 321.933594 1265.085938 C 321.4375 1264.480469 320.972656 1263.855469 320.535156 1263.203125 C 320.101562 1262.554688 319.699219 1261.882812 319.332031 1261.195312 C 318.964844 1260.503906 318.628906 1259.796875 318.332031 1259.074219 C 318.03125 1258.351562 317.769531 1257.617188 317.539062 1256.871094 C 317.3125 1256.121094 317.125 1255.363281 316.972656 1254.597656 C 316.820312 1253.828125 316.703125 1253.058594 316.628906 1252.277344 C 316.550781 1251.5 316.511719 1250.71875 316.511719 1249.9375 C 316.511719 1249.15625 316.550781 1248.375 316.628906 1247.597656 C 316.703125 1246.820312 316.820312 1246.046875 316.972656 1245.28125 C 317.125 1244.511719 317.3125 1243.757812 317.539062 1243.007812 C 317.769531 1242.257812 318.03125 1241.523438 318.332031 1240.800781 C 318.628906 1240.078125 318.964844 1239.371094 319.332031 1238.683594 C 319.699219 1237.992188 320.101562 1237.324219 320.535156 1236.671875 C 320.972656 1236.023438 321.4375 1235.394531 321.933594 1234.792969 C 322.429688 1234.1875 322.953125 1233.609375 323.507812 1233.054688 C 324.058594 1232.503906 324.636719 1231.976562 325.242188 1231.480469 C 325.847656 1230.984375 326.472656 1230.519531 327.125 1230.085938 C 327.773438 1229.652344 328.445312 1229.25 329.132812 1228.882812 C 329.824219 1228.511719 330.53125 1228.179688 331.253906 1227.878906 C 331.976562 1227.582031 332.710938 1227.316406 333.457031 1227.089844 C 334.207031 1226.863281 334.964844 1226.671875 335.730469 1226.519531 C 336.5 1226.367188 337.269531 1226.253906 338.050781 1226.175781 C 338.828125 1226.101562 339.609375 1226.0625 340.390625 1226.0625 L 1099.902344 1226.0625 C 1100.6875 1226.0625 1101.464844 1226.101562 1102.246094 1226.175781 C 1103.023438 1226.253906 1103.796875 1226.367188 1104.5625 1226.519531 C 1105.328125 1226.671875 1106.085938 1226.863281 1106.835938 1227.089844 C 1107.582031 1227.316406 1108.320312 1227.582031 1109.039062 1227.878906 C 1109.761719 1228.179688 1110.46875 1228.511719 1111.160156 1228.882812 C 1111.847656 1229.25 1112.519531 1229.652344 1113.167969 1230.085938 C 1113.820312 1230.519531 1114.445312 1230.984375 1115.050781 1231.480469 C 1115.65625 1231.976562 1116.234375 1232.503906 1116.789062 1233.054688 C 1117.339844 1233.609375 1117.863281 1234.1875 1118.359375 1234.792969 C 1118.855469 1235.394531 1119.320312 1236.023438 1119.757812 1236.671875 C 1120.191406 1237.324219 1120.59375 1237.992188 1120.960938 1238.683594 C 1121.328125 1239.371094 1121.664062 1240.078125 1121.964844 1240.800781 C 1122.261719 1241.523438 1122.523438 1242.257812 1122.753906 1243.007812 C 1122.980469 1243.757812 1123.167969 1244.511719 1123.320312 1245.28125 C 1123.472656 1246.046875 1123.589844 1246.820312 1123.664062 1247.597656 C 1123.742188 1248.375 1123.78125 1249.15625 1123.78125 1249.9375 C 1123.78125 1250.71875 1123.742188 1251.5 1123.664062 1252.277344 C 1123.589844 1253.058594 1123.472656 1253.828125 1123.320312 1254.597656 C 1123.167969 1255.363281 1122.980469 1256.121094 1122.753906 1256.871094 C 1122.523438 1257.617188 1122.261719 1258.351562 1121.964844 1259.074219 C 1121.664062 1259.796875 1121.328125 1260.503906 1120.960938 1261.195312 C 1120.59375 1261.882812 1120.191406 1262.554688 1119.757812 1263.203125 C 1119.320312 1263.855469 1118.855469 1264.480469 1118.359375 1265.085938 C 1117.863281 1265.691406 1117.339844 1266.269531 1116.789062 1266.820312 C 1116.234375 1267.375 1115.65625 1267.898438 1115.050781 1268.394531 C 1114.445312 1268.890625 1113.820312 1269.355469 1113.167969 1269.792969 C 1112.519531 1270.226562 1111.847656 1270.628906 1111.160156 1270.996094 C 1110.46875 1271.363281 1109.761719 1271.699219 1109.039062 1271.996094 C 1108.320312 1272.296875 1107.582031 1272.558594 1106.835938 1272.785156 C 1106.085938 1273.015625 1105.328125 1273.203125 1104.5625 1273.355469 C 1103.796875 1273.507812 1103.023438 1273.625 1102.246094 1273.699219 C 1101.464844 1273.777344 1100.6875 1273.816406 1099.902344 1273.816406 Z M 1099.902344 1273.816406 " fill-opacity="1" fill-rule="nonzero"/><path fill="#377813" d="M 237.035156 897.9375 C 236.25 897.9375 235.472656 897.898438 234.695312 897.824219 C 233.914062 897.746094 233.140625 897.632812 232.375 897.480469 C 231.609375 897.328125 230.851562 897.136719 230.101562 896.910156 C 229.355469 896.683594 228.617188 896.417969 227.898438 896.121094 C 227.175781 895.820312 226.46875 895.488281 225.777344 895.117188 C 225.089844 894.75 224.417969 894.347656 223.769531 893.914062 C 223.117188 893.480469 222.492188 893.015625 221.886719 892.519531 C 221.28125 892.023438 220.703125 891.496094 220.152344 890.945312 C 219.597656 890.390625 219.074219 889.8125 218.578125 889.207031 C 218.082031 888.605469 217.617188 887.976562 217.179688 887.328125 C 216.746094 886.675781 216.34375 886.007812 215.976562 885.316406 C 215.609375 884.625 215.273438 883.921875 214.972656 883.199219 C 214.675781 882.476562 214.414062 881.742188 214.183594 880.992188 C 213.957031 880.242188 213.769531 879.484375 213.617188 878.71875 C 213.464844 877.953125 213.347656 877.179688 213.273438 876.402344 C 213.195312 875.625 213.15625 874.84375 213.15625 874.0625 L 213.15625 399.273438 C 213.15625 398.492188 213.195312 397.714844 213.273438 396.933594 C 213.347656 396.15625 213.464844 395.382812 213.617188 394.617188 C 213.769531 393.851562 213.957031 393.09375 214.183594 392.34375 C 214.414062 391.597656 214.675781 390.859375 214.972656 390.136719 C 215.273438 389.414062 215.609375 388.710938 215.976562 388.019531 C 216.34375 387.332031 216.746094 386.660156 217.179688 386.011719 C 217.617188 385.359375 218.082031 384.734375 218.578125 384.128906 C 219.074219 383.523438 219.597656 382.945312 220.152344 382.390625 C 220.703125 381.839844 221.28125 381.3125 221.886719 380.816406 C 222.492188 380.320312 223.117188 379.855469 223.769531 379.421875 C 224.417969 378.988281 225.089844 378.585938 225.777344 378.21875 C 226.46875 377.847656 227.175781 377.515625 227.898438 377.214844 C 228.617188 376.917969 229.355469 376.652344 230.101562 376.425781 C 230.851562 376.199219 231.609375 376.011719 232.375 375.855469 C 233.140625 375.703125 233.914062 375.589844 234.695312 375.511719 C 235.472656 375.4375 236.25 375.398438 237.035156 375.398438 C 237.816406 375.398438 238.597656 375.4375 239.375 375.511719 C 240.152344 375.589844 240.925781 375.703125 241.691406 375.855469 C 242.457031 376.011719 243.214844 376.199219 243.964844 376.425781 C 244.714844 376.652344 245.449219 376.917969 246.171875 377.214844 C 246.894531 377.515625 247.597656 377.847656 248.289062 378.21875 C 248.980469 378.585938 249.648438 378.988281 250.296875 379.421875 C 250.949219 379.855469 251.578125 380.320312 252.179688 380.816406 C 252.785156 381.3125 253.363281 381.839844 253.917969 382.390625 C 254.46875 382.945312 254.996094 383.523438 255.492188 384.128906 C 255.988281 384.734375 256.453125 385.359375 256.886719 386.011719 C 257.320312 386.660156 257.722656 387.332031 258.089844 388.019531 C 258.460938 388.710938 258.792969 389.414062 259.09375 390.136719 C 259.390625 390.859375 259.65625 391.597656 259.882812 392.34375 C 260.109375 393.09375 260.300781 393.851562 260.453125 394.617188 C 260.605469 395.382812 260.71875 396.15625 260.796875 396.933594 C 260.871094 397.714844 260.910156 398.492188 260.910156 399.273438 L 260.910156 874.0625 C 260.910156 874.84375 260.871094 875.625 260.796875 876.402344 C 260.71875 877.179688 260.605469 877.953125 260.453125 878.71875 C 260.300781 879.484375 260.109375 880.242188 259.882812 880.992188 C 259.65625 881.742188 259.390625 882.476562 259.09375 883.199219 C 258.792969 883.921875 258.460938 884.625 258.089844 885.316406 C 257.722656 886.007812 257.320312 886.675781 256.886719 887.328125 C 256.453125 887.976562 255.988281 888.605469 255.492188 889.207031 C 254.996094 889.8125 254.46875 890.390625 253.917969 890.945312 C 253.363281 891.496094 252.785156 892.023438 252.179688 892.519531 C 251.578125 893.015625 250.949219 893.480469 250.296875 893.914062 C 249.648438 894.347656 248.980469 894.75 248.289062 895.117188 C 247.597656 895.488281 246.894531 895.820312 246.171875 896.121094 C 245.449219 896.417969 244.714844 896.683594 243.964844 896.910156 C 243.214844 897.136719 242.457031 897.328125 241.691406 897.480469 C 240.925781 897.632812 240.152344 897.746094 239.375 897.824219 C 238.597656 897.898438 237.816406 897.9375 237.035156 897.9375 Z M 131.082031 897.9375 C 130.300781 897.9375 129.519531 897.898438 128.742188 897.824219 C 127.960938 897.746094 127.191406 897.632812 126.421875 897.480469 C 125.65625 897.328125 124.898438 897.136719 124.148438 896.910156 C 123.402344 896.683594 122.667969 896.417969 121.945312 896.121094 C 121.222656 895.820312 120.515625 895.488281 119.824219 895.117188 C 119.136719 894.75 118.464844 894.347656 117.816406 893.914062 C 117.164062 893.480469 116.539062 893.015625 115.933594 892.519531 C 115.328125 892.023438 114.75 891.496094 114.199219 890.945312 C 113.644531 890.390625 113.121094 889.8125 112.625 889.207031 C 112.128906 888.605469 111.664062 887.976562 111.230469 887.328125 C 110.792969 886.675781 110.394531 886.007812 110.023438 885.316406 C 109.65625 884.625 109.320312 883.921875 109.023438 883.199219 C 108.722656 882.476562 108.460938 881.742188 108.234375 880.992188 C 108.003906 880.242188 107.816406 879.484375 107.664062 878.71875 C 107.511719 877.953125 107.394531 877.179688 107.320312 876.402344 C 107.242188 875.625 107.203125 874.84375 107.203125 874.0625 L 107.203125 399.273438 C 107.203125 398.492188 107.242188 397.714844 107.320312 396.933594 C 107.394531 396.15625 107.511719 395.382812 107.664062 394.617188 C 107.816406 393.851562 108.003906 393.09375 108.234375 392.34375 C 108.460938 391.597656 108.722656 390.859375 109.023438 390.136719 C 109.320312 389.414062 109.65625 388.710938 110.023438 388.019531 C 110.394531 387.332031 110.792969 386.660156 111.230469 386.011719 C 111.664062 385.359375 112.128906 384.734375 112.625 384.128906 C 113.121094 383.523438 113.644531 382.945312 114.199219 382.390625 C 114.75 381.839844 115.328125 381.3125 115.933594 380.816406 C 116.539062 380.320312 117.164062 379.855469 117.816406 379.421875 C 118.464844 378.988281 119.136719 378.585938 119.824219 378.21875 C 120.515625 377.847656 121.222656 377.515625 121.945312 377.214844 C 122.667969 376.917969 123.402344 376.652344 124.148438 376.425781 C 124.898438 376.199219 125.65625 376.011719 126.421875 375.855469 C 127.191406 375.703125 127.960938 375.589844 128.742188 375.511719 C 129.519531 375.4375 130.300781 375.398438 131.082031 375.398438 C 131.863281 375.398438 132.644531 375.4375 133.421875 375.511719 C 134.199219 375.589844 134.972656 375.703125 135.738281 375.855469 C 136.507812 376.011719 137.265625 376.199219 138.011719 376.425781 C 138.761719 376.652344 139.496094 376.917969 140.21875 377.214844 C 140.941406 377.515625 141.648438 377.847656 142.335938 378.21875 C 143.027344 378.585938 143.695312 378.988281 144.347656 379.421875 C 144.996094 379.855469 145.625 380.320312 146.226562 380.816406 C 146.832031 381.3125 147.410156 381.839844 147.964844 382.390625 C 148.515625 382.945312 149.042969 383.523438 149.539062 384.128906 C 150.035156 384.734375 150.5 385.359375 150.933594 386.011719 C 151.367188 386.660156 151.769531 387.332031 152.136719 388.019531 C 152.507812 388.710938 152.839844 389.414062 153.140625 390.136719 C 153.441406 390.859375 153.703125 391.597656 153.929688 392.34375 C 154.15625 393.09375 154.347656 393.851562 154.5 394.617188 C 154.652344 395.382812 154.765625 396.15625 154.84375 396.933594 C 154.917969 397.714844 154.957031 398.492188 154.957031 399.273438 L 154.957031 874.0625 C 154.957031 874.84375 154.917969 875.625 154.84375 876.402344 C 154.765625 877.179688 154.652344 877.953125 154.5 878.71875 C 154.347656 879.488281 154.15625 880.242188 153.929688 880.992188 C 153.703125 881.742188 153.441406 882.476562 153.140625 883.199219 C 152.839844 883.921875 152.507812 884.628906 152.136719 885.316406 C 151.769531 886.007812 151.367188 886.675781 150.933594 887.328125 C 150.5 887.976562 150.035156 888.605469 149.539062 889.207031 C 149.042969 889.8125 148.519531 890.390625 147.964844 890.945312 C 147.410156 891.496094 146.832031 892.023438 146.226562 892.519531 C 145.625 893.015625 144.996094 893.480469 144.347656 893.914062 C 143.695312 894.347656 143.027344 894.75 142.335938 895.117188 C 141.648438 895.488281 140.941406 895.820312 140.21875 896.121094 C 139.496094 896.417969 138.761719 896.683594 138.011719 896.910156 C 137.265625 897.136719 136.507812 897.328125 135.738281 897.480469 C 134.972656 897.632812 134.199219 897.746094 133.421875 897.824219 C 132.644531 897.898438 131.863281 897.9375 131.082031 897.9375 Z M 131.082031 897.9375 " fill-opacity="1" fill-rule="nonzero"/><g fill="#377813" fill-opacity="1"><g transform="translate(716.353253, 1402.49693)"><g><path d="M 2.421875 0.125 C 1.785156 0.125 1.304688 -0.0390625 0.984375 -0.375 C 0.671875 -0.71875 0.515625 -1.179688 0.515625 -1.765625 C 0.515625 -2.421875 0.726562 -2.925781 1.15625 -3.28125 C 1.59375 -3.632812 2.289062 -3.820312 3.25 -3.84375 L 4.671875 -3.875 L 4.671875 -4.21875 C 4.671875 -4.726562 4.5625 -5.09375 4.34375 -5.3125 C 4.125 -5.539062 3.78125 -5.65625 3.3125 -5.65625 C 2.84375 -5.65625 2.5 -5.570312 2.28125 -5.40625 C 2.0625 -5.25 1.929688 -4.992188 1.890625 -4.640625 L 0.796875 -4.75 C 0.972656 -5.882812 1.816406 -6.453125 3.328125 -6.453125 C 4.128906 -6.453125 4.726562 -6.269531 5.125 -5.90625 C 5.53125 -5.539062 5.734375 -5.015625 5.734375 -4.328125 L 5.734375 -1.59375 C 5.734375 -1.28125 5.773438 -1.046875 5.859375 -0.890625 C 5.941406 -0.734375 6.097656 -0.65625 6.328125 -0.65625 C 6.429688 -0.65625 6.546875 -0.664062 6.671875 -0.6875 L 6.671875 -0.03125 C 6.410156 0.03125 6.140625 0.0625 5.859375 0.0625 C 5.472656 0.0625 5.1875 -0.0390625 5 -0.25 C 4.820312 -0.457031 4.722656 -0.78125 4.703125 -1.21875 L 4.671875 -1.21875 C 4.398438 -0.726562 4.082031 -0.378906 3.71875 -0.171875 C 3.363281 0.0234375 2.929688 0.125 2.421875 0.125 Z M 2.671875 -0.671875 C 3.054688 -0.671875 3.398438 -0.757812 3.703125 -0.9375 C 4.003906 -1.113281 4.238281 -1.351562 4.40625 -1.65625 C 4.582031 -1.96875 4.671875 -2.285156 4.671875 -2.609375 L 4.671875 -3.125 L 3.515625 -3.109375 C 3.015625 -3.097656 2.632812 -3.046875 2.375 -2.953125 C 2.125 -2.859375 1.929688 -2.710938 1.796875 -2.515625 C 1.660156 -2.328125 1.59375 -2.070312 1.59375 -1.75 C 1.59375 -1.40625 1.6875 -1.140625 1.875 -0.953125 C 2.0625 -0.765625 2.328125 -0.671875 2.671875 -0.671875 Z M 2.671875 -0.671875 "/></g></g><g transform="translate(723.02708, 1402.49693)"><g><path d="M 5.5625 -1.75 C 5.5625 -1.15625 5.335938 -0.691406 4.890625 -0.359375 C 4.441406 -0.0351562 3.8125 0.125 3 0.125 C 2.207031 0.125 1.597656 -0.00390625 1.171875 -0.265625 C 0.742188 -0.523438 0.460938 -0.929688 0.328125 -1.484375 L 1.265625 -1.671875 C 1.359375 -1.328125 1.546875 -1.078125 1.828125 -0.921875 C 2.109375 -0.765625 2.5 -0.6875 3 -0.6875 C 3.53125 -0.6875 3.921875 -0.765625 4.171875 -0.921875 C 4.421875 -1.085938 4.546875 -1.335938 4.546875 -1.671875 C 4.546875 -1.921875 4.457031 -2.125 4.28125 -2.28125 C 4.113281 -2.4375 3.835938 -2.566406 3.453125 -2.671875 L 2.703125 -2.859375 C 2.085938 -3.015625 1.648438 -3.164062 1.390625 -3.3125 C 1.140625 -3.46875 0.941406 -3.65625 0.796875 -3.875 C 0.660156 -4.09375 0.59375 -4.359375 0.59375 -4.671875 C 0.59375 -5.242188 0.796875 -5.679688 1.203125 -5.984375 C 1.617188 -6.285156 2.21875 -6.4375 3 -6.4375 C 3.707031 -6.4375 4.265625 -6.3125 4.671875 -6.0625 C 5.085938 -5.820312 5.347656 -5.429688 5.453125 -4.890625 L 4.5 -4.765625 C 4.445312 -5.046875 4.289062 -5.257812 4.03125 -5.40625 C 3.78125 -5.5625 3.4375 -5.640625 3 -5.640625 C 2.53125 -5.640625 2.179688 -5.566406 1.953125 -5.421875 C 1.722656 -5.273438 1.609375 -5.054688 1.609375 -4.765625 C 1.609375 -4.585938 1.65625 -4.441406 1.75 -4.328125 C 1.84375 -4.210938 1.976562 -4.113281 2.15625 -4.03125 C 2.34375 -3.945312 2.734375 -3.832031 3.328125 -3.6875 C 3.890625 -3.539062 4.289062 -3.410156 4.53125 -3.296875 C 4.78125 -3.179688 4.972656 -3.050781 5.109375 -2.90625 C 5.253906 -2.757812 5.363281 -2.585938 5.4375 -2.390625 C 5.519531 -2.203125 5.5625 -1.988281 5.5625 -1.75 Z M 5.5625 -1.75 "/></g></g><g transform="translate(729.02708, 1402.49693)"><g><path d="M 4.8125 -1.015625 C 4.613281 -0.609375 4.351562 -0.316406 4.03125 -0.140625 C 3.707031 0.0351562 3.3125 0.125 2.84375 0.125 C 2.039062 0.125 1.445312 -0.144531 1.0625 -0.6875 C 0.6875 -1.226562 0.5 -2.046875 0.5 -3.140625 C 0.5 -5.347656 1.28125 -6.453125 2.84375 -6.453125 C 3.320312 -6.453125 3.71875 -6.363281 4.03125 -6.1875 C 4.351562 -6.019531 4.613281 -5.742188 4.8125 -5.359375 L 4.828125 -5.359375 L 4.8125 -6.0625 L 4.8125 -8.703125 L 5.859375 -8.703125 L 5.859375 -1.3125 C 5.859375 -0.644531 5.875 -0.207031 5.90625 0 L 4.890625 0 C 4.878906 -0.0625 4.863281 -0.207031 4.84375 -0.4375 C 4.832031 -0.664062 4.828125 -0.859375 4.828125 -1.015625 Z M 1.609375 -3.171875 C 1.609375 -2.285156 1.722656 -1.648438 1.953125 -1.265625 C 2.191406 -0.890625 2.578125 -0.703125 3.109375 -0.703125 C 3.703125 -0.703125 4.132812 -0.90625 4.40625 -1.3125 C 4.675781 -1.726562 4.8125 -2.375 4.8125 -3.25 C 4.8125 -4.082031 4.675781 -4.691406 4.40625 -5.078125 C 4.132812 -5.472656 3.707031 -5.671875 3.125 -5.671875 C 2.59375 -5.671875 2.207031 -5.472656 1.96875 -5.078125 C 1.726562 -4.691406 1.609375 -4.054688 1.609375 -3.171875 Z M 1.609375 -3.171875 "/></g></g></g></svg>