<svg xmlns="http://www.w3.org/2000/svg" xmlns:xlink="http://www.w3.org/1999/xlink" width="1920" zoomAndPan="magnify" viewBox="0 0 1440 1439.999935" height="1920" preserveAspectRatio="xMidYMid meet" version="1.0"><defs><g/><clipPath id="98d38c0c6a"><path d="M 26.574219 17.734375 L 1406.574219 17.734375 L 1406.574219 1397.734375 L 26.574219 1397.734375 Z M 26.574219 17.734375 " clip-rule="nonzero"/></clipPath></defs><g clip-path="url(#98d38c0c6a)"><path fill="#377813" d="M 716.421875 62.242188 C 360.632812 62.242188 71.082031 351.703125 71.082031 707.582031 C 71.082031 1063.371094 360.632812 1352.921875 716.421875 1352.921875 C 1072.210938 1352.921875 1361.765625 1063.371094 1361.765625 707.582031 C 1361.765625 351.703125 1072.210938 62.242188 716.421875 62.242188 Z M 716.421875 1397.429688 C 336.03125 1397.429688 26.574219 1087.972656 26.574219 707.582031 C 26.574219 327.191406 336.03125 17.734375 716.421875 17.734375 C 1096.8125 17.734375 1406.269531 327.191406 1406.269531 707.582031 C 1406.269531 1087.972656 1096.8125 1397.429688 716.421875 1397.429688 " fill-opacity="1" fill-rule="nonzero"/></g><path fill="#377813" d="M 783.183594 218.011719 C 734.070312 218.011719 694.167969 257.910156 694.167969 307.023438 C 694.167969 356.136719 734.070312 396.039062 783.183594 396.039062 C 832.296875 396.039062 872.195312 356.136719 872.195312 307.023438 C 872.195312 257.910156 832.296875 218.011719 783.183594 218.011719 Z M 783.183594 440.542969 C 709.554688 440.542969 649.664062 380.652344 649.664062 307.023438 C 649.664062 233.398438 709.554688 173.507812 783.183594 173.507812 C 856.808594 173.507812 916.699219 233.398438 916.699219 307.023438 C 916.699219 380.652344 856.808594 440.542969 783.183594 440.542969 " fill-opacity="1" fill-rule="nonzero"/><path fill="#377813" d="M 602.722656 617.351562 C 614.546875 617.351562 625.148438 619.871094 634.015625 626.480469 C 641.578125 632.128906 650.621094 643.082031 650.621094 663.074219 C 650.621094 671.941406 647.054688 683.851562 638.1875 712.449219 C 618.890625 774.863281 582.902344 890.910156 582.902344 1019.125 C 582.902344 1073.019531 622.109375 1130.390625 694.777344 1130.390625 C 811.867188 1130.390625 881.234375 1094.578125 907.140625 1061.023438 C 913.660156 1052.503906 915.917969 1046.160156 916.527344 1042.507812 C 844.464844 1068.152344 793.265625 1070.847656 764.144531 1050.507812 C 752.496094 1042.335938 738.675781 1026.425781 738.675781 996.871094 C 738.675781 857.183594 779.878906 730.964844 807.261719 647.339844 C 817.777344 615.179688 827.6875 584.753906 827.6875 574.0625 C 827.6875 533.902344 765.710938 529.554688 739.023438 529.554688 C 635.929688 529.554688 522.925781 606.226562 498.5 640.648438 C 508.40625 639.777344 524.488281 634.996094 538.917969 630.738281 C 561.695312 623.871094 583.773438 617.351562 602.722656 617.351562 Z M 694.777344 1174.898438 C 596.898438 1174.898438 538.398438 1095.707031 538.398438 1019.125 C 538.398438 884.214844 575.601562 763.910156 595.683594 699.324219 C 600.550781 683.328125 605.679688 666.8125 606.113281 662.464844 C 606.113281 662.292969 606.113281 662.117188 606.113281 661.945312 C 596.03125 660.121094 567.429688 668.636719 551.609375 673.332031 C 531.007812 679.503906 511.449219 685.328125 495.628906 685.328125 C 451.644531 685.328125 449.386719 655.164062 449.386719 649.082031 C 449.386719 588.230469 614.023438 485.050781 739.023438 485.050781 C 822.472656 485.050781 872.195312 518.34375 872.195312 574.0625 C 872.195312 591.882812 863.15625 619.4375 849.507812 661.164062 C 823.082031 742.089844 783.183594 864.308594 783.183594 996.871094 C 783.183594 1009.476562 787.789062 1012.691406 789.703125 1014.082031 C 794.046875 1017.039062 819.515625 1030.425781 904.617188 999.480469 C 909.484375 997.742188 912.007812 996.871094 916.09375 996.871094 C 942.605469 996.871094 961.207031 1014.78125 961.207031 1040.421875 C 961.207031 1070.761719 935.304688 1105.007812 893.492188 1129.78125 C 858.808594 1150.382812 796.222656 1174.898438 694.777344 1174.898438 " fill-opacity="1" fill-rule="nonzero"/><g fill="#377813" fill-opacity="1"><g transform="translate(700.747343, 1141.452649)"><g><path d="M 2.421875 0.125 C 1.785156 0.125 1.304688 -0.0390625 0.984375 -0.375 C 0.671875 -0.71875 0.515625 -1.179688 0.515625 -1.765625 C 0.515625 -2.421875 0.726562 -2.925781 1.15625 -3.28125 C 1.59375 -3.632812 2.289062 -3.820312 3.25 -3.84375 L 4.671875 -3.875 L 4.671875 -4.21875 C 4.671875 -4.726562 4.5625 -5.09375 4.34375 -5.3125 C 4.125 -5.539062 3.78125 -5.65625 3.3125 -5.65625 C 2.84375 -5.65625 2.5 -5.570312 2.28125 -5.40625 C 2.0625 -5.25 1.929688 -4.992188 1.890625 -4.640625 L 0.796875 -4.75 C 0.972656 -5.882812 1.816406 -6.453125 3.328125 -6.453125 C 4.128906 -6.453125 4.726562 -6.269531 5.125 -5.90625 C 5.53125 -5.539062 5.734375 -5.015625 5.734375 -4.328125 L 5.734375 -1.59375 C 5.734375 -1.28125 5.773438 -1.046875 5.859375 -0.890625 C 5.941406 -0.734375 6.097656 -0.65625 6.328125 -0.65625 C 6.429688 -0.65625 6.546875 -0.664062 6.671875 -0.6875 L 6.671875 -0.03125 C 6.410156 0.03125 6.140625 0.0625 5.859375 0.0625 C 5.472656 0.0625 5.1875 -0.0390625 5 -0.25 C 4.820312 -0.457031 4.722656 -0.78125 4.703125 -1.21875 L 4.671875 -1.21875 C 4.398438 -0.726562 4.082031 -0.378906 3.71875 -0.171875 C 3.363281 0.0234375 2.929688 0.125 2.421875 0.125 Z M 2.671875 -0.671875 C 3.054688 -0.671875 3.398438 -0.757812 3.703125 -0.9375 C 4.003906 -1.113281 4.238281 -1.351562 4.40625 -1.65625 C 4.582031 -1.96875 4.671875 -2.285156 4.671875 -2.609375 L 4.671875 -3.125 L 3.515625 -3.109375 C 3.015625 -3.097656 2.632812 -3.046875 2.375 -2.953125 C 2.125 -2.859375 1.929688 -2.710938 1.796875 -2.515625 C 1.660156 -2.328125 1.59375 -2.070312 1.59375 -1.75 C 1.59375 -1.40625 1.6875 -1.140625 1.875 -0.953125 C 2.0625 -0.765625 2.328125 -0.671875 2.671875 -0.671875 Z M 2.671875 -0.671875 "/></g></g><g transform="translate(707.42117, 1141.452649)"><g><path d="M 5.5625 -1.75 C 5.5625 -1.15625 5.335938 -0.691406 4.890625 -0.359375 C 4.441406 -0.0351562 3.8125 0.125 3 0.125 C 2.207031 0.125 1.597656 -0.00390625 1.171875 -0.265625 C 0.742188 -0.523438 0.460938 -0.929688 0.328125 -1.484375 L 1.265625 -1.671875 C 1.359375 -1.328125 1.546875 -1.078125 1.828125 -0.921875 C 2.109375 -0.765625 2.5 -0.6875 3 -0.6875 C 3.53125 -0.6875 3.921875 -0.765625 4.171875 -0.921875 C 4.421875 -1.085938 4.546875 -1.335938 4.546875 -1.671875 C 4.546875 -1.921875 4.457031 -2.125 4.28125 -2.28125 C 4.113281 -2.4375 3.835938 -2.566406 3.453125 -2.671875 L 2.703125 -2.859375 C 2.085938 -3.015625 1.648438 -3.164062 1.390625 -3.3125 C 1.140625 -3.46875 0.941406 -3.65625 0.796875 -3.875 C 0.660156 -4.09375 0.59375 -4.359375 0.59375 -4.671875 C 0.59375 -5.242188 0.796875 -5.679688 1.203125 -5.984375 C 1.617188 -6.285156 2.21875 -6.4375 3 -6.4375 C 3.707031 -6.4375 4.265625 -6.3125 4.671875 -6.0625 C 5.085938 -5.820312 5.347656 -5.429688 5.453125 -4.890625 L 4.5 -4.765625 C 4.445312 -5.046875 4.289062 -5.257812 4.03125 -5.40625 C 3.78125 -5.5625 3.4375 -5.640625 3 -5.640625 C 2.53125 -5.640625 2.179688 -5.566406 1.953125 -5.421875 C 1.722656 -5.273438 1.609375 -5.054688 1.609375 -4.765625 C 1.609375 -4.585938 1.65625 -4.441406 1.75 -4.328125 C 1.84375 -4.210938 1.976562 -4.113281 2.15625 -4.03125 C 2.34375 -3.945312 2.734375 -3.832031 3.328125 -3.6875 C 3.890625 -3.539062 4.289062 -3.410156 4.53125 -3.296875 C 4.78125 -3.179688 4.972656 -3.050781 5.109375 -2.90625 C 5.253906 -2.757812 5.363281 -2.585938 5.4375 -2.390625 C 5.519531 -2.203125 5.5625 -1.988281 5.5625 -1.75 Z M 5.5625 -1.75 "/></g></g><g transform="translate(713.42117, 1141.452649)"><g><path d="M 4.8125 -1.015625 C 4.613281 -0.609375 4.351562 -0.316406 4.03125 -0.140625 C 3.707031 0.0351562 3.3125 0.125 2.84375 0.125 C 2.039062 0.125 1.445312 -0.144531 1.0625 -0.6875 C 0.6875 -1.226562 0.5 -2.046875 0.5 -3.140625 C 0.5 -5.347656 1.28125 -6.453125 2.84375 -6.453125 C 3.320312 -6.453125 3.71875 -6.363281 4.03125 -6.1875 C 4.351562 -6.019531 4.613281 -5.742188 4.8125 -5.359375 L 4.828125 -5.359375 L 4.8125 -6.0625 L 4.8125 -8.703125 L 5.859375 -8.703125 L 5.859375 -1.3125 C 5.859375 -0.644531 5.875 -0.207031 5.90625 0 L 4.890625 0 C 4.878906 -0.0625 4.863281 -0.207031 4.84375 -0.4375 C 4.832031 -0.664062 4.828125 -0.859375 4.828125 -1.015625 Z M 1.609375 -3.171875 C 1.609375 -2.285156 1.722656 -1.648438 1.953125 -1.265625 C 2.191406 -0.890625 2.578125 -0.703125 3.109375 -0.703125 C 3.703125 -0.703125 4.132812 -0.90625 4.40625 -1.3125 C 4.675781 -1.726562 4.8125 -2.375 4.8125 -3.25 C 4.8125 -4.082031 4.675781 -4.691406 4.40625 -5.078125 C 4.132812 -5.472656 3.707031 -5.671875 3.125 -5.671875 C 2.59375 -5.671875 2.207031 -5.472656 1.96875 -5.078125 C 1.726562 -4.691406 1.609375 -4.054688 1.609375 -3.171875 Z M 1.609375 -3.171875 "/></g></g></g></svg>