<svg xmlns="http://www.w3.org/2000/svg" xmlns:xlink="http://www.w3.org/1999/xlink" width="1920" zoomAndPan="magnify" viewBox="0 0 1440 1439.999935" height="1920" preserveAspectRatio="xMidYMid meet" version="1.0"><defs><g/><clipPath id="ba94d35432"><path d="M 315 1109 L 514 1109 L 514 1408.851562 L 315 1408.851562 Z M 315 1109 " clip-rule="nonzero"/></clipPath><clipPath id="4e7e7b25b0"><path d="M 584 1001 L 783 1001 L 783 1408.851562 L 584 1408.851562 Z M 584 1001 " clip-rule="nonzero"/></clipPath><clipPath id="177b299a5b"><path d="M 853 843 L 1055 843 L 1055 1408.851562 L 853 1408.851562 Z M 853 843 " clip-rule="nonzero"/></clipPath><clipPath id="65f15563f3"><path d="M 1033 332 L 1416 332 L 1416 1408.851562 L 1033 1408.851562 Z M 1033 332 " clip-rule="nonzero"/></clipPath><clipPath id="156ecf7761"><path d="M 217 1376 L 1386 1376 L 1386 1408.851562 L 217 1408.851562 Z M 217 1376 " clip-rule="nonzero"/></clipPath><clipPath id="589e234a05"><path d="M 24.144531 63 L 623 63 L 623 659 L 24.144531 659 Z M 24.144531 63 " clip-rule="nonzero"/></clipPath></defs><g clip-path="url(#ba94d35432)"><path fill="#377813" d="M 497.160156 1408.886719 L 331.390625 1408.886719 C 323.238281 1408.886719 315.085938 1403.453125 315.085938 1392.582031 L 315.085938 1126.265625 C 315.085938 1118.113281 323.238281 1109.960938 331.390625 1109.960938 L 497.160156 1109.960938 C 505.3125 1109.960938 513.464844 1118.113281 513.464844 1126.265625 L 513.464844 1392.582031 C 513.464844 1403.453125 505.3125 1408.886719 497.160156 1408.886719 Z M 347.695312 1376.277344 L 480.855469 1376.277344 L 480.855469 1142.570312 L 347.695312 1142.570312 Z M 347.695312 1376.277344 " fill-opacity="1" fill-rule="evenodd"/></g><g clip-path="url(#4e7e7b25b0)"><path fill="#377813" d="M 766.195312 1408.886719 L 600.425781 1408.886719 C 592.273438 1408.886719 584.121094 1403.453125 584.121094 1392.582031 L 584.121094 1017.5625 C 584.121094 1009.410156 592.273438 1001.257812 600.425781 1001.257812 L 766.195312 1001.257812 C 777.066406 1001.257812 782.5 1009.410156 782.5 1017.5625 L 782.5 1392.582031 C 782.5 1403.453125 777.066406 1408.886719 766.195312 1408.886719 Z M 616.730469 1376.277344 L 749.890625 1376.277344 L 749.890625 1033.871094 L 616.730469 1033.871094 Z M 616.730469 1376.277344 " fill-opacity="1" fill-rule="evenodd"/></g><g clip-path="url(#177b299a5b)"><path fill="#377813" d="M 1037.949219 1408.886719 L 869.460938 1408.886719 C 861.308594 1408.886719 853.15625 1403.453125 853.15625 1392.582031 L 853.15625 859.949219 C 853.15625 851.796875 861.308594 843.640625 869.460938 843.640625 L 1037.949219 843.640625 C 1046.101562 843.640625 1054.253906 851.796875 1054.253906 859.949219 L 1054.253906 1392.582031 C 1054.253906 1403.453125 1046.101562 1408.886719 1037.949219 1408.886719 Z M 885.765625 1376.277344 L 1021.644531 1376.277344 L 1021.644531 876.253906 L 885.765625 876.253906 Z M 885.765625 1376.277344 " fill-opacity="1" fill-rule="evenodd"/></g><g clip-path="url(#65f15563f3)"><path fill="#377813" d="M 1306.984375 1408.886719 L 1141.214844 1408.886719 C 1133.0625 1408.886719 1124.910156 1403.453125 1124.910156 1392.582031 L 1124.910156 626.242188 L 1048.816406 626.242188 C 1043.382812 626.242188 1037.949219 623.523438 1035.230469 618.089844 C 1032.511719 612.652344 1032.511719 607.21875 1035.230469 601.78125 L 1206.433594 340.902344 C 1209.152344 335.464844 1214.585938 332.746094 1220.023438 332.746094 C 1225.457031 332.746094 1228.175781 335.464844 1233.609375 340.902344 L 1410.25 599.066406 C 1412.964844 601.78125 1415.683594 607.21875 1415.683594 609.933594 C 1415.683594 618.089844 1407.53125 626.242188 1399.378906 626.242188 L 1323.289062 626.242188 L 1323.289062 1392.582031 C 1323.289062 1403.453125 1315.136719 1408.886719 1306.984375 1408.886719 Z M 1157.519531 1376.277344 L 1290.679688 1376.277344 L 1290.679688 609.933594 C 1290.679688 601.78125 1298.832031 593.628906 1306.984375 593.628906 L 1366.769531 593.628906 L 1220.023438 378.945312 L 1078.710938 593.628906 L 1141.214844 593.628906 C 1149.367188 593.628906 1157.519531 601.78125 1157.519531 609.933594 Z M 1157.519531 1376.277344 " fill-opacity="1" fill-rule="evenodd"/></g><g clip-path="url(#156ecf7761)"><path fill="#377813" d="M 1369.484375 1408.886719 L 233.5625 1408.886719 C 225.40625 1408.886719 217.253906 1403.453125 217.253906 1392.582031 C 217.253906 1384.429688 225.40625 1376.277344 233.5625 1376.277344 L 1369.484375 1376.277344 C 1380.355469 1376.277344 1385.792969 1384.429688 1385.792969 1392.582031 C 1385.792969 1403.453125 1380.355469 1408.886719 1369.484375 1408.886719 Z M 1369.484375 1408.886719 " fill-opacity="1" fill-rule="evenodd"/></g><path fill="#377813" d="M 219.972656 1042.023438 C 184.644531 1042.023438 154.753906 1017.5625 149.316406 984.953125 C 146.601562 955.0625 162.90625 919.734375 206.386719 906.144531 C 236.277344 897.992188 268.886719 884.40625 290.628906 873.535156 C 298.78125 870.816406 306.933594 868.101562 315.085938 862.664062 C 374.871094 835.488281 434.65625 797.445312 489.007812 759.398438 C 657.496094 637.109375 779.78125 482.210938 853.15625 300.136719 C 864.027344 267.527344 877.613281 232.199219 885.765625 199.589844 L 888.484375 191.4375 L 798.804688 153.390625 C 793.371094 150.671875 787.9375 145.238281 787.9375 137.085938 C 787.9375 131.652344 793.371094 126.214844 798.804688 123.5 L 1013.488281 33.820312 C 1021.644531 31.101562 1032.511719 33.820312 1035.230469 41.972656 L 1124.910156 259.375 C 1127.625 264.808594 1124.910156 272.960938 1122.191406 275.679688 C 1116.757812 281.113281 1108.605469 283.832031 1103.167969 281.113281 L 1016.207031 243.070312 C 978.164062 370.792969 921.09375 487.648438 847.722656 593.628906 C 771.628906 696.894531 676.515625 792.007812 567.816406 870.816406 C 497.160156 922.449219 421.070312 965.929688 344.980469 998.542969 C 317.804688 1012.128906 282.476562 1028.433594 247.148438 1036.585938 C 236.277344 1039.304688 228.125 1042.023438 219.972656 1042.023438 Z M 847.722656 137.085938 L 915.660156 166.980469 C 921.09375 169.695312 926.53125 177.847656 923.8125 186 L 918.375 207.742188 C 907.507812 243.070312 896.636719 278.398438 883.050781 313.726562 C 806.957031 501.234375 681.953125 658.851562 510.75 783.855469 C 450.960938 827.335938 391.175781 862.664062 328.675781 892.558594 C 320.519531 895.277344 312.367188 900.710938 304.214844 903.429688 C 279.757812 914.296875 247.148438 930.601562 217.253906 938.753906 C 187.363281 946.910156 179.210938 965.929688 181.925781 979.519531 C 184.644531 995.824219 195.515625 1009.410156 219.972656 1009.410156 C 225.40625 1009.410156 230.84375 1009.410156 236.277344 1006.695312 C 268.886719 995.824219 304.214844 982.234375 331.390625 968.648438 C 407.480469 936.039062 478.136719 892.558594 548.792969 843.640625 C 763.476562 688.742188 915.660156 476.777344 986.316406 226.765625 L 989.03125 215.894531 C 989.03125 213.175781 994.46875 207.742188 997.183594 207.742188 C 1002.621094 205.023438 1005.335938 205.023438 1010.773438 207.742188 L 1078.710938 234.917969 L 1010.773438 69.148438 Z M 847.722656 137.085938 " fill-opacity="1" fill-rule="evenodd"/><g clip-path="url(#589e234a05)"><path fill="#377813" d="M 323.238281 658.851562 C 160.1875 658.851562 24.3125 525.691406 24.3125 362.640625 C 24.3125 196.871094 160.1875 63.710938 323.238281 63.710938 C 489.007812 63.710938 622.167969 196.871094 622.167969 362.640625 C 622.167969 525.691406 489.007812 658.851562 323.238281 658.851562 Z M 323.238281 96.324219 C 176.492188 96.324219 56.921875 215.894531 56.921875 362.640625 C 56.921875 509.386719 176.492188 626.242188 323.238281 626.242188 C 469.984375 626.242188 589.554688 509.386719 589.554688 362.640625 C 589.554688 215.894531 469.984375 96.324219 323.238281 96.324219 Z M 323.238281 96.324219 " fill-opacity="1" fill-rule="evenodd"/></g><path fill="#377813" d="M 323.238281 539.28125 C 271.605469 539.28125 228.125 495.800781 228.125 441.449219 C 228.125 433.296875 233.5625 425.144531 244.429688 425.144531 C 252.582031 425.144531 260.734375 433.296875 260.734375 441.449219 C 260.734375 476.777344 287.910156 506.667969 323.238281 506.667969 C 358.566406 506.667969 388.460938 476.777344 388.460938 441.449219 C 388.460938 406.121094 358.566406 378.945312 323.238281 378.945312 C 271.605469 378.945312 228.125 335.464844 228.125 281.113281 C 228.125 229.480469 271.605469 186 323.238281 186 C 377.589844 186 421.070312 229.480469 421.070312 281.113281 C 421.070312 289.265625 412.917969 297.421875 404.765625 297.421875 C 393.894531 297.421875 388.460938 289.265625 388.460938 281.113281 C 388.460938 245.785156 358.566406 218.613281 323.238281 218.613281 C 287.910156 218.613281 260.734375 245.785156 260.734375 281.113281 C 260.734375 316.441406 287.910156 346.335938 323.238281 346.335938 C 377.589844 346.335938 421.070312 389.816406 421.070312 441.449219 C 421.070312 495.800781 377.589844 539.28125 323.238281 539.28125 Z M 323.238281 539.28125 " fill-opacity="1" fill-rule="evenodd"/><path fill="#377813" d="M 323.238281 563.738281 C 315.085938 563.738281 306.933594 555.585938 306.933594 547.433594 L 306.933594 177.847656 C 306.933594 166.980469 315.085938 161.542969 323.238281 161.542969 C 331.390625 161.542969 339.542969 166.980469 339.542969 177.847656 L 339.542969 547.433594 C 339.542969 555.585938 331.390625 563.738281 323.238281 563.738281 Z M 323.238281 563.738281 " fill-opacity="1" fill-rule="evenodd"/><g fill="#377813" fill-opacity="1"><g transform="translate(758.750993, 1083.653094)"><g><path d="M 2.421875 0.125 C 1.785156 0.125 1.304688 -0.0390625 0.984375 -0.375 C 0.671875 -0.71875 0.515625 -1.179688 0.515625 -1.765625 C 0.515625 -2.421875 0.726562 -2.925781 1.15625 -3.28125 C 1.59375 -3.632812 2.289062 -3.820312 3.25 -3.84375 L 4.671875 -3.875 L 4.671875 -4.21875 C 4.671875 -4.726562 4.5625 -5.09375 4.34375 -5.3125 C 4.125 -5.539062 3.78125 -5.65625 3.3125 -5.65625 C 2.84375 -5.65625 2.5 -5.570312 2.28125 -5.40625 C 2.0625 -5.25 1.929688 -4.992188 1.890625 -4.640625 L 0.796875 -4.75 C 0.972656 -5.882812 1.816406 -6.453125 3.328125 -6.453125 C 4.128906 -6.453125 4.726562 -6.269531 5.125 -5.90625 C 5.53125 -5.539062 5.734375 -5.015625 5.734375 -4.328125 L 5.734375 -1.59375 C 5.734375 -1.28125 5.773438 -1.046875 5.859375 -0.890625 C 5.941406 -0.734375 6.097656 -0.65625 6.328125 -0.65625 C 6.429688 -0.65625 6.546875 -0.664062 6.671875 -0.6875 L 6.671875 -0.03125 C 6.410156 0.03125 6.140625 0.0625 5.859375 0.0625 C 5.472656 0.0625 5.1875 -0.0390625 5 -0.25 C 4.820312 -0.457031 4.722656 -0.78125 4.703125 -1.21875 L 4.671875 -1.21875 C 4.398438 -0.726562 4.082031 -0.378906 3.71875 -0.171875 C 3.363281 0.0234375 2.929688 0.125 2.421875 0.125 Z M 2.671875 -0.671875 C 3.054688 -0.671875 3.398438 -0.757812 3.703125 -0.9375 C 4.003906 -1.113281 4.238281 -1.351562 4.40625 -1.65625 C 4.582031 -1.96875 4.671875 -2.285156 4.671875 -2.609375 L 4.671875 -3.125 L 3.515625 -3.109375 C 3.015625 -3.097656 2.632812 -3.046875 2.375 -2.953125 C 2.125 -2.859375 1.929688 -2.710938 1.796875 -2.515625 C 1.660156 -2.328125 1.59375 -2.070312 1.59375 -1.75 C 1.59375 -1.40625 1.6875 -1.140625 1.875 -0.953125 C 2.0625 -0.765625 2.328125 -0.671875 2.671875 -0.671875 Z M 2.671875 -0.671875 "/></g></g><g transform="translate(765.424821, 1083.653094)"><g><path d="M 5.5625 -1.75 C 5.5625 -1.15625 5.335938 -0.691406 4.890625 -0.359375 C 4.441406 -0.0351562 3.8125 0.125 3 0.125 C 2.207031 0.125 1.597656 -0.00390625 1.171875 -0.265625 C 0.742188 -0.523438 0.460938 -0.929688 0.328125 -1.484375 L 1.265625 -1.671875 C 1.359375 -1.328125 1.546875 -1.078125 1.828125 -0.921875 C 2.109375 -0.765625 2.5 -0.6875 3 -0.6875 C 3.53125 -0.6875 3.921875 -0.765625 4.171875 -0.921875 C 4.421875 -1.085938 4.546875 -1.335938 4.546875 -1.671875 C 4.546875 -1.921875 4.457031 -2.125 4.28125 -2.28125 C 4.113281 -2.4375 3.835938 -2.566406 3.453125 -2.671875 L 2.703125 -2.859375 C 2.085938 -3.015625 1.648438 -3.164062 1.390625 -3.3125 C 1.140625 -3.46875 0.941406 -3.65625 0.796875 -3.875 C 0.660156 -4.09375 0.59375 -4.359375 0.59375 -4.671875 C 0.59375 -5.242188 0.796875 -5.679688 1.203125 -5.984375 C 1.617188 -6.285156 2.21875 -6.4375 3 -6.4375 C 3.707031 -6.4375 4.265625 -6.3125 4.671875 -6.0625 C 5.085938 -5.820312 5.347656 -5.429688 5.453125 -4.890625 L 4.5 -4.765625 C 4.445312 -5.046875 4.289062 -5.257812 4.03125 -5.40625 C 3.78125 -5.5625 3.4375 -5.640625 3 -5.640625 C 2.53125 -5.640625 2.179688 -5.566406 1.953125 -5.421875 C 1.722656 -5.273438 1.609375 -5.054688 1.609375 -4.765625 C 1.609375 -4.585938 1.65625 -4.441406 1.75 -4.328125 C 1.84375 -4.210938 1.976562 -4.113281 2.15625 -4.03125 C 2.34375 -3.945312 2.734375 -3.832031 3.328125 -3.6875 C 3.890625 -3.539062 4.289062 -3.410156 4.53125 -3.296875 C 4.78125 -3.179688 4.972656 -3.050781 5.109375 -2.90625 C 5.253906 -2.757812 5.363281 -2.585938 5.4375 -2.390625 C 5.519531 -2.203125 5.5625 -1.988281 5.5625 -1.75 Z M 5.5625 -1.75 "/></g></g><g transform="translate(771.42482, 1083.653094)"><g><path d="M 4.8125 -1.015625 C 4.613281 -0.609375 4.351562 -0.316406 4.03125 -0.140625 C 3.707031 0.0351562 3.3125 0.125 2.84375 0.125 C 2.039062 0.125 1.445312 -0.144531 1.0625 -0.6875 C 0.6875 -1.226562 0.5 -2.046875 0.5 -3.140625 C 0.5 -5.347656 1.28125 -6.453125 2.84375 -6.453125 C 3.320312 -6.453125 3.71875 -6.363281 4.03125 -6.1875 C 4.351562 -6.019531 4.613281 -5.742188 4.8125 -5.359375 L 4.828125 -5.359375 L 4.8125 -6.0625 L 4.8125 -8.703125 L 5.859375 -8.703125 L 5.859375 -1.3125 C 5.859375 -0.644531 5.875 -0.207031 5.90625 0 L 4.890625 0 C 4.878906 -0.0625 4.863281 -0.207031 4.84375 -0.4375 C 4.832031 -0.664062 4.828125 -0.859375 4.828125 -1.015625 Z M 1.609375 -3.171875 C 1.609375 -2.285156 1.722656 -1.648438 1.953125 -1.265625 C 2.191406 -0.890625 2.578125 -0.703125 3.109375 -0.703125 C 3.703125 -0.703125 4.132812 -0.90625 4.40625 -1.3125 C 4.675781 -1.726562 4.8125 -2.375 4.8125 -3.25 C 4.8125 -4.082031 4.675781 -4.691406 4.40625 -5.078125 C 4.132812 -5.472656 3.707031 -5.671875 3.125 -5.671875 C 2.59375 -5.671875 2.207031 -5.472656 1.96875 -5.078125 C 1.726562 -4.691406 1.609375 -4.054688 1.609375 -3.171875 Z M 1.609375 -3.171875 "/></g></g></g></svg>